<?xml version="1.0" encoding="utf-8"?>
<!-- Generator: Adobe Illustrator 19.2.1, SVG Export Plug-In . SVG Version: 6.00 Build 0)  -->
<svg version="1.1" id="Слой_1" xmlns="http://www.w3.org/2000/svg" xmlns:xlink="http://www.w3.org/1999/xlink" x="0px" y="0px"
	 viewBox="0 0 274.6 70" style="enable-background:new 0 0 274.6 70;" xml:space="preserve">
<style type="text/css">
	.st0{fill:#E8980F;stroke:#231F20;stroke-width:0.5;stroke-miterlimit:10;}
	.st1{fill:#F3B617;stroke:#231F20;stroke-width:0.5;stroke-miterlimit:10;}
	.st2{fill:#231F20;stroke:#231F20;stroke-width:0.5;stroke-miterlimit:10;}
	.st3{fill:#F0A412;stroke:#231F20;stroke-width:0.5;stroke-miterlimit:10;}
</style>
<path class="st0" d="M154.9,35.4L154.9,35.4c-2.1,0-3.8-1.7-3.8-3.8V4.8c0-2.1,1.7-3.8,3.8-3.8l0,0c2.1,0,3.8,1.7,3.8,3.8v26.8
	C158.6,33.7,157.1,35.4,154.9,35.4z"/>
<g>
	<circle class="st0" cx="17.8" cy="18.3" r="17.1"/>
	<circle class="st1" cx="17.8" cy="18.3" r="13.3"/>
	<polygon class="st2" points="19.9,10.2 12.2,17.9 21.2,17.9 12.9,26.2 14.9,26.2 24.1,16.9 15,16.9 21.7,10.1 	"/>
</g>
<g>
	<ellipse class="st0" cx="52" cy="18.3" rx="16.4" ry="17.3"/>
	<path class="st3" d="M56.7,34.9C56,35,55,35.2,53.8,35.1c-0.7,0-3.7-0.1-6.5-1.8c-4.6-2.7-6.3-7.5-6.8-9.2c-1.4-4.2-1-7.8-0.8-9.1
		c0.2-1.2,0.4-3.2,1.6-5.4c0.3-0.5,1.2-2.4,3.2-4.2c1-1,2.5-2.4,5-3.3c0.8-0.3,3-1,5.8-0.6c2.6,0.3,4.4,1.4,5.4,2
		c0.8,0.5,4,2.5,6.1,6.8c0.4,0.8,1.5,3.3,1.8,6.8c0.1,1.1,0.2,4.6-1.5,8.5c-0.4,0.9-1.2,2.7-2.9,4.6C61.4,33.1,58.4,34.4,56.7,34.9z
		"/>
	<ellipse class="st1" cx="53.9" cy="18.1" rx="11.1" ry="13.4"/>
	<polygon class="st2" points="55.6,10.3 50.5,18 56.4,18 51,26.2 52.3,26.2 58.4,16.9 52.4,16.9 56.8,10.2 	"/>
</g>
<g>
	<ellipse class="st0" cx="86.2" cy="18.3" rx="13.5" ry="17.3"/>
	<path class="st3" d="M87.3,35.1c-1.9-0.2-3.2-1.2-4.2-1.9c-2-1.5-3-3.4-3.8-4.9c-1.6-3-1.9-5.7-2.1-7.3c-0.4-2.9-0.1-5.2,0-6.2
		c0.1-0.8,0.5-3.2,1.8-6.1c0.7-1.6,1.3-3,2.7-4.5c0.8-0.9,2.1-2.3,4.2-2.8l0,0c2.3-0.7,4.5,0.5,5.5,1c3,1.5,4.6,4.2,5.3,5.3
		c0.5,0.8,3.1,5.1,2.9,11.3c-0.1,4.5-1.7,7.7-2.1,8.6c-0.7,1.4-2,3.8-4.7,5.6C91.5,34.1,89.7,35.3,87.3,35.1z"/>
	<ellipse class="st1" cx="88.7" cy="18.3" rx="8.3" ry="13.5"/>
	<polygon class="st2" points="89.5,10.3 86,18 90,18 86.3,26.2 87.2,26.2 91.4,16.9 87.3,16.9 90.3,10.2 	"/>
</g>
<g>
	<ellipse class="st0" cx="121.5" cy="18.3" rx="10.4" ry="17.3"/>
	<path class="st3" d="M123.5,35c-1.3-0.1-2.3-1-2.9-1.5c-0.4-0.4-1.1-1.1-2.1-3.6c-0.5-1.2-1-2.9-1.5-5.4c-0.1-0.6-0.5-2.7-0.5-5.6
		c0-1.8-0.1-4,0.4-6.9c0.2-1.2,0.6-3,1.5-5.1c0.9-2.3,1.7-3.2,2.3-3.8c0.7-0.6,1.4-1.4,2.5-1.5c1.2-0.1,2.2,0.7,3.1,1.4
		c0.4,0.3,1.8,1.5,3.2,4.5c0.2,0.5,1.1,2.3,1.7,5.1c0.1,0.5,0.7,3.1,0.6,6.6c0,1.7-0.1,3.8-0.9,6.5c-0.2,0.8-0.6,2.1-1.5,3.7
		C128.4,31.1,126.3,35.1,123.5,35z"/>
	<ellipse class="st1" cx="124" cy="18.4" rx="5.7" ry="13.5"/>
	<polygon class="st2" points="124.9,10.3 121.6,18 125.4,18 121.9,26.2 122.7,26.2 126.7,16.9 122.8,16.9 125.7,10.2 	"/>
</g>
<g>
	<ellipse class="st0" cx="189.3" cy="18.4" rx="10.4" ry="17.3"/>
	<path class="st3" d="M187.1,35.1c1.3-0.1,2.3-1,2.9-1.5c0.4-0.4,1.1-1.1,2.1-3.6c0.5-1.2,1-2.9,1.5-5.4c0.1-0.6,0.5-2.7,0.5-5.6
		c0-1.8,0.1-4-0.4-6.9c-0.2-1.2-0.6-3-1.5-5.1c-0.9-2.3-1.7-3.2-2.3-3.8c-0.7-0.6-1.4-1.4-2.5-1.5c-1.2-0.1-2.2,0.7-3.1,1.4
		c-0.4,0.3-1.8,1.5-3.2,4.5c-0.2,0.5-1.1,2.3-1.7,5.1c-0.1,0.5-0.7,3.1-0.6,6.6c0,1.7,0.1,3.8,0.9,6.5c0.2,0.8,0.6,2.1,1.5,3.7
		C182.1,31.1,184.3,35.2,187.1,35.1z"/>
	<ellipse class="st1" cx="186.6" cy="18.4" rx="5.7" ry="13.5"/>
	<polygon class="st2" points="187.4,10.5 184.1,18.2 187.9,18.2 184.4,26.4 185.3,26.4 189.3,17.1 185.3,17.1 188.3,10.4 	"/>
</g>
<g>
	<ellipse class="st0" cx="223.1" cy="18.3" rx="13.5" ry="17.2"/>
	<path class="st3" d="M221.8,35c1.9-0.2,3.2-1.1,4.2-1.9c2-1.5,3-3.3,3.8-4.9c1.6-3,1.9-5.7,2.1-7.2c0.4-2.9,0.1-5.2,0-6.2
		c-0.1-0.8-0.5-3.2-1.8-6.1c-0.7-1.6-1.3-3-2.7-4.5c-0.8-0.9-2.1-2.3-4.2-2.8l0,0c-2.3-0.7-4.5,0.5-5.5,1c-3,1.5-4.6,4.2-5.3,5.3
		c-0.5,0.8-3.1,5.1-2.9,11.2c0.1,4.5,1.7,7.7,2.1,8.5c0.7,1.4,2,3.8,4.7,5.6C217.6,34,219.6,35.2,221.8,35z"/>
	<ellipse class="st1" cx="220.6" cy="18.3" rx="8.3" ry="13.4"/>
	<polygon class="st2" points="221.3,10.5 217.8,18.2 221.9,18.2 218.1,26.4 219.1,26.4 223.3,17.1 219.1,17.1 222.1,10.4 	"/>
</g>
<g>
	<ellipse class="st0" cx="257.6" cy="18.3" rx="16.4" ry="17.2"/>
	<path class="st3" d="M252.8,34.8c0.7,0.1,1.7,0.3,2.9,0.2c0.7,0,3.7-0.1,6.5-1.8c4.6-2.7,6.3-7.5,6.8-9.2c1.4-4.2,1-7.7,0.8-9.1
		c-0.2-1.2-0.4-3.1-1.6-5.4C267.9,9,267,7.1,265,5.3c-1-1-2.5-2.4-5-3.3c-0.8-0.3-3-1-5.8-0.6c-2.6,0.3-4.4,1.4-5.4,2
		c-0.8,0.5-4,2.5-6.1,6.8c-0.4,0.8-1.5,3.3-1.8,6.8c-0.1,1.1-0.2,4.6,1.5,8.5c0.4,0.9,1.2,2.7,2.9,4.6
		C248.1,33,251.1,34.3,252.8,34.8z"/>
	<ellipse class="st1" cx="255.6" cy="18.1" rx="11.1" ry="13.4"/>
	<polygon class="st2" points="257,10.2 251.8,17.9 257.8,17.9 252.3,26.2 253.6,26.2 259.8,16.9 253.8,16.9 258.2,10.1 	"/>
</g>
</svg>
