<?xml version="1.0" encoding="utf-8"?>
<!-- Generator: Adobe Illustrator 19.2.1, SVG Export Plug-In . SVG Version: 6.00 Build 0)  -->
<svg version="1.1" id="Слой_1" xmlns="http://www.w3.org/2000/svg" xmlns:xlink="http://www.w3.org/1999/xlink" x="0px" y="0px"
	 viewBox="0 0 218.3 70" style="enable-background:new 0 0 218.3 70;" xml:space="preserve">
<style type="text/css">
	.st0{fill:#EE2A24;stroke:#231F20;stroke-width:0.5;stroke-miterlimit:10;}
	.st1{fill:#FCEE25;stroke:#231F20;stroke-width:0.5;stroke-miterlimit:10;}
</style>
<g>
	<path class="st0" d="M6.4,0.9C3.9,1.9,2.6,3.7,2.2,4.3C2,4.6-0.4,8.3,0.9,12.5c0.9,3.1,3.4,4.8,6.1,6.8c2.7,2,3.3,1.5,5.4,3.4
		c2.5,2.3,3.7,3.5,4.3,4.4c0.3,0.6,0.8,1.4,1.5,1.4c0.7,0.1,1.3-0.7,1.9-1.5c1.1-1.3,2.3-2.5,3.4-3.7c1.7-1.9,2.2-1.4,6.2-4.3
		c3-2.2,4.5-3.3,5.2-4.7c1.8-3.5,0.4-7.3,0.3-7.7c-0.3-0.7-1.7-4.2-5.5-5.5c0,0-3.9-1.2-7.7,1.2c-0.5,0.3-1.4,0.9-2.2,2
		c-0.7,0.9-1,1.6-1,1.6c-0.3,0.7-0.3,1-0.5,1c-0.4,0.1-0.8-1.6-1.8-3c-1.5-2.2-3.9-3-4.5-3.2C11.1,0.5,8.9,0,6.4,0.9z"/>
	<polygon class="st1" points="19.6,8.2 14.3,13.5 20,13.5 14.3,19.3 16.4,19.3 23.4,12.3 17.5,12.3 21.7,8.1 	"/>
</g>
<g>
	<path class="st0" d="M45.6,4.6c-1.9,0.7-2.9,2.1-3.2,2.6c-0.1,0.2-1.9,3-1,6.2c0.7,2.3,2.5,3.7,4.6,5.1c2.1,1.5,2.5,1.1,4.1,2.6
		c1.9,1.8,2.8,2.6,3.3,3.3c0.3,0.4,0.6,1.1,1.1,1.1c0.5,0,1-0.5,1.5-1.1c0.8-1,1.8-1.9,2.6-2.8c1.3-1.4,1.7-1.1,4.7-3.3
		c2.3-1.7,3.4-2.5,4-3.6c1.4-2.7,0.3-5.5,0.2-5.8c-0.2-0.5-1.3-3.2-4.2-4.1c0,0-2.9-0.9-5.8,0.9c-0.4,0.2-1.1,0.7-1.7,1.6
		C55.2,7.8,55,8.4,55,8.4c-0.2,0.5-0.3,0.8-0.4,0.8c-0.3,0.1-0.6-1.2-1.4-2.3c-1.1-1.7-2.9-2.3-3.4-2.4C49.1,4.3,47.5,3.9,45.6,4.6z
		"/>
	<polygon class="st1" points="55.6,10.1 51.6,14.1 55.9,14.1 51.5,18.5 53.1,18.5 58.4,13.2 54,13.2 57.2,10 	"/>
</g>
<g>
	<path class="st0" d="M85,7.6c-1.2,0.5-1.9,1.4-2.1,1.7c-0.1,0.1-1.3,1.9-0.6,4c0.5,1.5,1.7,2.4,3,3.3c1.4,1,1.6,0.7,2.7,1.7
		c1.2,1.1,1.9,1.7,2.1,2.2c0.2,0.3,0.4,0.7,0.7,0.7c0.4,0,0.6-0.4,1-0.7c0.5-0.6,1.1-1.2,1.7-1.8c0.8-0.9,1.1-0.7,3.1-2.1
		c1.5-1.1,2.2-1.6,2.6-2.3c0.9-1.8,0.2-3.6,0.1-3.8c-0.1-0.3-0.8-2.1-2.7-2.7c0,0-1.9-0.6-3.8,0.6c-0.2,0.1-0.7,0.5-1.1,1
		c-0.3,0.5-0.5,0.8-0.5,0.8c-0.2,0.3-0.2,0.5-0.3,0.5c-0.2,0-0.4-0.8-0.9-1.5c-0.7-1.1-1.9-1.5-2.2-1.6C87.3,7.4,86.2,7.1,85,7.6z"
		/>
	<polygon class="st1" points="91.6,11.2 88.9,13.8 91.7,13.8 88.9,16.7 90,16.7 93.4,13.2 90.5,13.2 92.6,11.1 	"/>
</g>
<g>
	<path class="st0" d="M125.6,11.4c-0.4,0.2-0.6,0.5-0.7,0.6c0,0-0.4,0.7-0.2,1.4c0.2,0.5,0.6,0.8,1,1.2c0.5,0.3,0.6,0.3,0.9,0.6
		c0.4,0.4,0.6,0.6,0.7,0.7c0.1,0.1,0.1,0.2,0.3,0.2c0.1,0,0.2-0.1,0.3-0.3c0.2-0.2,0.4-0.4,0.6-0.6c0.3-0.3,0.4-0.2,1.1-0.7
		c0.5-0.4,0.8-0.6,0.9-0.8c0.3-0.6,0.1-1.2,0-1.3c0-0.1-0.3-0.7-0.9-0.9c0,0-0.7-0.2-1.3,0.2c-0.1,0.1-0.2,0.2-0.4,0.3
		c-0.1,0.2-0.2,0.3-0.2,0.3c-0.1,0.1-0.1,0.2-0.1,0.2c-0.1,0-0.1-0.3-0.3-0.5c-0.3-0.4-0.7-0.5-0.8-0.5
		C126.4,11.3,126,11.2,125.6,11.4z"/>
	<polygon class="st1" points="127.9,12.7 127,13.6 127.9,13.6 126.9,14.5 127.3,14.5 128.5,13.4 127.5,13.4 128.2,12.6 	"/>
</g>
<g>
	<path class="st0" d="M157.7,8.1c-1.2,0.5-1.9,1.4-2.1,1.7c-0.1,0.1-1.3,1.9-0.6,4c0.5,1.5,1.7,2.4,3,3.3c1.4,1,1.6,0.7,2.7,1.7
		c1.2,1.1,1.9,1.7,2.1,2.2c0.2,0.3,0.4,0.7,0.7,0.7c0.4,0,0.6-0.4,1-0.7c0.5-0.6,1.1-1.2,1.7-1.8c0.8-0.9,1.1-0.7,3.1-2.1
		c1.5-1.1,2.2-1.6,2.6-2.3c0.9-1.8,0.2-3.6,0.1-3.8c-0.1-0.3-0.8-2.1-2.7-2.7c0,0-1.9-0.6-3.8,0.6c-0.2,0.1-0.7,0.5-1.1,1
		c-0.3,0.5-0.5,0.8-0.5,0.8c-0.2,0.3-0.2,0.5-0.3,0.5c-0.2,0-0.4-0.8-0.9-1.5c-0.7-1.1-1.9-1.5-2.2-1.6C160,7.9,158.9,7.7,157.7,8.1
		z"/>
	<polygon class="st1" points="164.2,11.7 161.6,14.4 164.4,14.4 161.6,17.2 162.6,17.2 166.1,13.8 163.2,13.8 165.3,11.7 	"/>
</g>
<g>
	<path class="st0" d="M190.9,5c-1.9,0.7-2.9,2.1-3.2,2.6c-0.1,0.2-1.9,3-1,6.2c0.7,2.3,2.5,3.7,4.6,5.1c2.1,1.5,2.5,1.1,4.1,2.6
		c1.9,1.8,2.8,2.6,3.3,3.3c0.3,0.4,0.6,1.1,1.1,1.1c0.5,0,1-0.5,1.5-1.1c0.8-1,1.8-1.9,2.6-2.8c1.3-1.4,1.7-1.1,4.7-3.3
		c2.3-1.7,3.4-2.5,4-3.6c1.4-2.7,0.3-5.5,0.2-5.8c-0.2-0.5-1.3-3.2-4.2-4.1c0,0-2.9-0.9-5.8,0.9c-0.4,0.2-1.1,0.7-1.7,1.6
		c-0.5,0.7-0.7,1.2-0.7,1.2c-0.2,0.5-0.3,0.8-0.4,0.8c-0.3,0.1-0.6-1.2-1.4-2.3c-1.1-1.7-2.9-2.3-3.4-2.4
		C194.5,4.7,192.8,4.3,190.9,5z"/>
	<polygon class="st1" points="200.9,10.6 196.9,14.6 201.2,14.6 196.9,19 198.5,19 203.8,13.7 199.4,13.7 202.5,10.5 	"/>
</g>
</svg>
