<?xml version="1.0" encoding="UTF-8" standalone="no"?>
<!-- Created with Inkscape (http://www.inkscape.org/) -->

<svg
   xmlns:dc="http://purl.org/dc/elements/1.1/"
   xmlns:cc="http://creativecommons.org/ns#"
   xmlns:rdf="http://www.w3.org/1999/02/22-rdf-syntax-ns#"
   xmlns:svg="http://www.w3.org/2000/svg"
   xmlns="http://www.w3.org/2000/svg"
   xmlns:sodipodi="http://sodipodi.sourceforge.net/DTD/sodipodi-0.dtd"
   xmlns:inkscape="http://www.inkscape.org/namespaces/inkscape"
   id="svg2"
   version="1.1"
   inkscape:version="0.48.3.1 r9886"
   width="300"
   height="100"
   sodipodi:docname="lightning.png">
  <metadata
     id="metadata8">
    <rdf:RDF>
      <cc:Work
         rdf:about="">
        <dc:format>image/svg+xml</dc:format>
        <dc:type
           rdf:resource="http://purl.org/dc/dcmitype/StillImage" />
        <dc:title></dc:title>
      </cc:Work>
    </rdf:RDF>
  </metadata>
  <defs
     id="defs6" />
  <sodipodi:namedview
     pagecolor="#ffffff"
     bordercolor="#666666"
     borderopacity="1"
     objecttolerance="10"
     gridtolerance="10"
     guidetolerance="10"
     inkscape:pageopacity="0"
     inkscape:pageshadow="2"
     inkscape:window-width="1304"
     inkscape:window-height="745"
     id="namedview4"
     showgrid="false"
     showguides="true"
     inkscape:guide-bbox="true"
     inkscape:zoom="1.7913372"
     inkscape:cx="310.94837"
     inkscape:cy="30.171216"
     inkscape:window-x="54"
     inkscape:window-y="-8"
     inkscape:window-maximized="1"
     inkscape:current-layer="svg2" />
  <path
     style="fill:none;stroke:#ffcb00;stroke-width:0.92200005;stroke-linecap:butt;stroke-linejoin:miter;stroke-miterlimit:4;stroke-opacity:1;stroke-dasharray:none"
     d="m 98.304527,33.422971 -6.819962,-0.625742 -4.017041,1.585675 c 0,0 -0.845694,-4.862736 -3.805622,-2.325656 -2.959924,2.537079 -4.017041,-3.382773 -4.017041,-3.382773 l -5.602717,-2.642791 -4.017045,-0.317135 -3.171348,-0.739982 -0.528558,2.008522 -4.228465,0.739981 -2.431369,2.114233 -6.236988,0.317135 -6.44841,-0.105712 -5.391294,2.959926"
     id="path2987"
     inkscape:connector-curvature="0"
     sodipodi:nodetypes="cccscccccccccc" />
  <path
     style="fill:none;stroke:#ffcb00;stroke-width:0.92200005;stroke-linecap:butt;stroke-linejoin:miter;stroke-miterlimit:4;stroke-opacity:1;stroke-dasharray:none"
     d="M 42.751496,32.057248 40.53155,31.105843 40.002992,29.62588 31.65177,29.414456"
     id="path2989"
     inkscape:connector-curvature="0" />
  <path
     style="fill:none;stroke:#ffcb00;stroke-width:0.92200005;stroke-linecap:butt;stroke-linejoin:miter;stroke-miterlimit:4;stroke-opacity:1;stroke-dasharray:none"
     d="m 35.245968,29.203033 -2.537081,-1.90281 0.317135,-2.219944 -5.81414,-1.90281"
     id="path2991"
     inkscape:connector-curvature="0" />
  <path
     style="fill:none;stroke:#ffcb00;stroke-width:0.92200005;stroke-linecap:butt;stroke-linejoin:miter;stroke-miterlimit:4;stroke-opacity:1;stroke-dasharray:none"
     d="m 91.378853,32.797229 0.951406,9.091202 -1.374252,3.065638 -2.642793,-3.382773 -1.057114,4.651312 -1.374252,-4.439889 -2.537081,2.748503 -4.439888,1.057117 c 0,0 -3.277063,1.162828 -3.805618,1.162828 -0.528559,0 -5.497009,-1.797098 -5.497009,-1.797098 l -8.139794,-0.951405 -6.025564,-2.748503 -0.317135,1.797098 1.057117,4.968447 -2.114234,1.691388 -6.554123,0.105712 -5.391293,4.651312 -2.114234,4.757023"
     id="path2993"
     inkscape:connector-curvature="0" />
  <path
     style="fill:none;stroke:#ffcb00;stroke-width:0.92200005;stroke-linecap:butt;stroke-linejoin:miter;stroke-miterlimit:4;stroke-opacity:1;stroke-dasharray:none"
     d="m 66.113769,27.0888 1.268541,2.219945 -2.748505,2.325656 -1.374252,4.439889 -0.84569,2.854215 -1.691387,1.691386 -3.488487,-1.057116"
     id="path2995"
     inkscape:connector-curvature="0" />
  <path
     style="fill:none;stroke:#ffcb00;stroke-width:0.92200005;stroke-linecap:butt;stroke-linejoin:miter;stroke-miterlimit:4;stroke-opacity:1;stroke-dasharray:none"
     d="m 81.44196,44.954069 -3.382775,2.959926 -4.651311,1.268541 -3.382775,-0.951406 -1.057114,7.082681 -4.017044,1.374249 -7.399816,0.951405 -0.951406,4.545603 -2.748501,4.651312 -4.968447,-1.479964 -2.114234,4.017042 -3.488483,7.399816"
     id="path2997"
     inkscape:connector-curvature="0" />
  <path
     style="fill:none;stroke:#ffcb00;stroke-width:0.92200005;stroke-linecap:butt;stroke-linejoin:miter;stroke-miterlimit:4;stroke-opacity:1;stroke-dasharray:none"
     d="m 48.565636,50.028229 2.748501,1.585673 4.017045,1.691387 3.171348,0.951405 -1.374252,3.171348"
     id="path2999"
     inkscape:connector-curvature="0" />
  <path
     style="fill:none;stroke:#ffcb00;stroke-width:0.92200005;stroke-linecap:butt;stroke-linejoin:miter;stroke-miterlimit:4;stroke-opacity:1;stroke-dasharray:none"
     d="m 40.108703,59.436564 0.422847,5.602717 1.797099,2.537081 -2.325657,3.594195 -2.008523,2.642792 0.528559,2.114231 -1.479961,2.959928 -3.277063,0.317135 -4.228465,-8.456933 -0.211423,2.537081 -1.585676,-0.528559 -0.951405,0.317135 -1.691384,-3.065639 -3.488486,-7.505525 -1.585676,3.91133 -0.422847,3.382771 -7.716947,-7.822659 -9.7254732,-9.51405"
     id="path3001"
     inkscape:connector-curvature="0" />
  <g
     id="g3964"
     transform="matrix(0.31239466,0,0,0.31239466,164.33374,40.383642)"
     style="stroke:#ffcb00;stroke-width:2.9513948;stroke-miterlimit:4;stroke-opacity:1;stroke-dasharray:none">
    <path
       inkscape:connector-curvature="0"
       id="path2987-1"
       d="m -197.38848,22.460241 51.22881,-24.6292301 12.47881,4.92584 c 0,0 2.62712,-15.1059299 11.82204,-7.22457 9.19491,7.88135 12.47881,-10.5084799 12.47881,-10.5084799 l 17.404664,-8.20974 12.47882,-0.98517 9.85169,-2.29873 1.64195,6.23941 13.13559,2.29872 7.55297,6.5678 19.375,0.98517 20.0317802,-0.32839 16.74788,9.1949199"
       style="fill:none;stroke:#ffcb00;stroke-width:2.9513948;stroke-linecap:butt;stroke-linejoin:miter;stroke-miterlimit:4;stroke-opacity:1;stroke-dasharray:none" />
    <path
       inkscape:connector-curvature="0"
       id="path2993-7"
       d="m -169.98078,8.9769309 -2.95551,28.2415201 4.26907,9.52331 8.20975,-10.50848 3.28389,14.44915 4.26907,-13.79237 7.88136,8.53814 13.79237,3.2839 c 0,0 10.18009,3.61228 11.82203,3.61228 1.64195,0 17.07628,-5.58262 17.07628,-5.58262 l 25.286014,-2.95551 18.71822,-8.53814 0.98517,5.58263 -3.2839,15.43432 6.5678,5.25424 20.36017,0.32839 16.74788,14.44915 6.5678,14.77754"
       style="fill:none;stroke:#ffcb00;stroke-width:2.9513948;stroke-linecap:butt;stroke-linejoin:miter;stroke-miterlimit:4;stroke-opacity:1;stroke-dasharray:none" />
    <path
       inkscape:connector-curvature="0"
       id="path3021"
       d="m -194.64359,-78.467959 21.36301,6.9662 11.61034,-11.61033 2.78648,-4.17972 23.22067,2.78648 -6.9662,23.22067 15.79005,-9.28827 32.973354,11.61033 49.22781,14.86123 c 0,0 9.28827,7.89503 15.32564,8.82385 6.03738,0.92883 29.72246015,0.92883 29.72246015,0.92883"
       style="fill:none;stroke:#ffcb00;stroke-width:2.9513948;stroke-linecap:butt;stroke-linejoin:miter;stroke-miterlimit:4;stroke-opacity:1;stroke-dasharray:none" />
    <path
       inkscape:connector-curvature="0"
       id="path3023"
       d="m -77.611426,-54.782879 31.58011,-8.35944 -2.32206,-15.79005 7.89502,1.39324 1.85766,-15.32564 -1.85766,-19.040951 14.39682,3.71531 24.1494902,4.17972"
       style="fill:none;stroke:#ffcb00;stroke-width:2.9513948;stroke-linecap:butt;stroke-linejoin:miter;stroke-miterlimit:4;stroke-opacity:1;stroke-dasharray:none" />
    <path
       inkscape:connector-curvature="0"
       id="path3025"
       d="m -148.66667,173.70849 c 8.35944,0 37.15307,6.50179 37.15307,6.50179 l 27.864804,-4.64413 0,-19.50536 41.7972,-10.2171 2.78648,-20.43418 -15.79005,-6.50179 6.50179,-25.078319 31.5801,-0.92883 23.2206702,-4.64413 14.8612298,-18.57654 6.50179,-12.07474 22.29184,-9.28827 21.36301,2.78648"
       style="fill:none;stroke:#ffcb00;stroke-width:2.9513948;stroke-linecap:butt;stroke-linejoin:miter;stroke-miterlimit:4;stroke-opacity:1;stroke-dasharray:none" />
    <path
       inkscape:connector-curvature="0"
       id="path3027"
       d="m -43.709246,-41.779299 19.50536,34.3665899 16.7188802,15.79005"
       style="fill:none;stroke:#ffcb00;stroke-width:2.9513948;stroke-linecap:butt;stroke-linejoin:miter;stroke-miterlimit:4;stroke-opacity:1;stroke-dasharray:none" />
    <path
       inkscape:connector-curvature="0"
       id="path3029"
       d="m -18.630926,-0.91092907 -10.21709,9.28826997 4.64413,18.5765301 7.43061,13.9324 12.0747502,5.57297 7.43061,-18.57654 11.1459198,0 26.00715,0 0.92883,-11.14592"
       style="fill:none;stroke:#ffcb00;stroke-width:2.9513948;stroke-linecap:butt;stroke-linejoin:miter;stroke-miterlimit:4;stroke-opacity:1;stroke-dasharray:none" />
    <path
       inkscape:connector-curvature="0"
       id="path3031"
       d="m 23.166274,25.096221 1.85766,-9.28827 5.57296,-13.0035701 16.71888,-11.14592 c 0,0 13.00357,-4.6441299 16.71888,-4.6441299 3.7153,0 25.07832,-13.00358 25.07832,-13.00358 l 10.21709,21.3630199 -3.239153,38.1291021"
       style="fill:none;stroke:#ffcb00;stroke-width:2.9513948;stroke-linecap:butt;stroke-linejoin:miter;stroke-miterlimit:4;stroke-opacity:1;stroke-dasharray:none"
       sodipodi:nodetypes="ccccsccc" />
    <path
       inkscape:connector-curvature="0"
       id="path3033"
       d="m 105.83185,23.238571 -2.78648,24.14949 -11.145916,11.14592 -11.14592,-5.57296 4.64413,-13.9324 -16.71888,11.14592 -8.35944,-9.28827 -8.35944,-21.36301 8.35944,-10.2170901 10.21709,5.5729601 12.07475,-9.2882701 -15.79005,-8.35944 -8.35944,-11.1459199"
       style="fill:none;stroke:#ffcb00;stroke-width:2.9513948;stroke-linecap:butt;stroke-linejoin:miter;stroke-miterlimit:4;stroke-opacity:1;stroke-dasharray:none" />
  </g>
  <g
     id="g3996"
     style="stroke:#ffcb00;stroke-width:3.2230525;stroke-miterlimit:4;stroke-opacity:1;stroke-dasharray:none"
     transform="matrix(0.28606421,0,0,0.28606421,271.62509,10.350462)">
    <path
       inkscape:connector-curvature="0"
       id="path3001-4"
       d="m 22.121752,161.73144 -1.3136,17.40466 -5.5826,7.88136 7.2246,11.16525 6.2394,8.20975 -1.642,6.56779 4.5975,9.19492 10.1801,0.98517 13.1356,-26.27119 0.6567,7.88136 4.9259,-1.64195 2.9555,0.98517 5.2542,-9.52331 10.8369,-23.31567 4.9259,12.15042 1.3135,10.50847 1.530735,-46.7426 -46.870778,-37.36092"
       style="fill:none;stroke:#ffcb00;stroke-width:3.2230525;stroke-linecap:butt;stroke-linejoin:miter;stroke-miterlimit:4;stroke-opacity:1;stroke-dasharray:none"
       sodipodi:nodetypes="cccccccccccccccccc" />
    <path
       inkscape:connector-curvature="0"
       id="path3021-0"
       d="m -180.38668,86.272644 21.36301,6.9662 11.61034,-11.61033 2.78648,-4.17972 23.22067,2.78648 -6.9662,23.220666 15.79005,-9.288266 32.973352,11.610326 49.22781,14.86123 c 0,0 9.28827,7.89503 15.32564,8.82385 6.0373799,0.92883 29.72246,0.92883 29.72246,0.92883"
       style="fill:none;stroke:#ffcb00;stroke-width:3.2230525;stroke-linecap:butt;stroke-linejoin:miter;stroke-miterlimit:4;stroke-opacity:1;stroke-dasharray:none" />
    <path
       inkscape:connector-curvature="0"
       id="path3023-9"
       d="m -63.354518,109.95772 31.58011,-8.35944 -2.32206,-15.790046 7.89502,1.39324 1.85766,-15.32564 -1.85766,-19.04095 14.39682,3.71531 24.14949,4.17972"
       style="fill:none;stroke:#ffcb00;stroke-width:3.2230525;stroke-linecap:butt;stroke-linejoin:miter;stroke-miterlimit:4;stroke-opacity:1;stroke-dasharray:none" />
    <path
       inkscape:connector-curvature="0"
       id="path3025-4"
       d="m -237.9509,265.51233 c 8.35944,0 17.6385,-27.64872 17.6385,-27.64872 l -1.40707,-18.30433 0,-19.50536 41.7972,-10.2171 2.78648,-20.43418 -15.79005,-6.50179 6.50179,-25.07832 31.5801,-0.92883 23.22067,-4.64413 14.86123,-18.57654 6.50179,-12.07474 22.291842,-9.288266 21.36301,2.78648"
       style="fill:none;stroke:#ffcb00;stroke-width:3.2230525;stroke-linecap:butt;stroke-linejoin:miter;stroke-miterlimit:4;stroke-opacity:1;stroke-dasharray:none"
       sodipodi:nodetypes="cccccccccccccc" />
    <path
       inkscape:connector-curvature="0"
       id="path3027-8"
       d="m -29.452338,122.9613 19.5053599,34.36659 16.71888,15.79005"
       style="fill:none;stroke:#ffcb00;stroke-width:3.2230525;stroke-linecap:butt;stroke-linejoin:miter;stroke-miterlimit:4;stroke-opacity:1;stroke-dasharray:none" />
    <path
       inkscape:connector-curvature="0"
       id="path3029-8"
       d="m -4.3740181,163.82967 -10.2170899,9.28827 4.6441299,18.57653 7.43061,13.9324 12.07475,5.57297 7.4306101,-18.57654 11.14592,0 26.00715,0 0.92883,-11.14592"
       style="fill:none;stroke:#ffcb00;stroke-width:3.2230525;stroke-linecap:butt;stroke-linejoin:miter;stroke-miterlimit:4;stroke-opacity:1;stroke-dasharray:none" />
    <path
       inkscape:connector-curvature="0"
       id="path3054"
       d="m -225.43477,190.76565 28.79363,13.9324 21.36301,-14.86123 52.0143,-9.28826 19.50536,4.64413 -9.28827,-26.93597 22.291842,3.7153 21.36301,-5.57296 23.22067,20.43419 23.22067,13.9324 7.43061,-12.07475"
       style="fill:none;stroke:#ffcb00;stroke-width:3.2230525;stroke-linecap:butt;stroke-linejoin:miter;stroke-miterlimit:4;stroke-opacity:1;stroke-dasharray:none" />
    <path
       inkscape:connector-curvature="0"
       id="path3056"
       d="m 90.50241,58.590841 -7.102298,17.000293 -20.43419,0.92883 -18.57653,-14.86123 c 0,0 -21.36302,2.78648 -21.36302,8.35944 0,5.57296 -15.7900501,3.71531 -15.7900501,3.71531 L 17.453412,46.797504 -6.6960781,41.224544 -18.770828,26.363324 -44.777978,13.359744"
       style="fill:none;stroke:#ffcb00;stroke-width:3.2230525;stroke-linecap:butt;stroke-linejoin:miter;stroke-miterlimit:4;stroke-opacity:1;stroke-dasharray:none"
       sodipodi:nodetypes="ccccsccccc" />
  </g>
</svg>
