<?xml version="1.0" encoding="UTF-8" standalone="no"?>
<!-- Created with Inkscape (http://www.inkscape.org/) -->

<svg
   xmlns:dc="http://purl.org/dc/elements/1.1/"
   xmlns:cc="http://creativecommons.org/ns#"
   xmlns:rdf="http://www.w3.org/1999/02/22-rdf-syntax-ns#"
   xmlns:svg="http://www.w3.org/2000/svg"
   xmlns="http://www.w3.org/2000/svg"
   xmlns:sodipodi="http://sodipodi.sourceforge.net/DTD/sodipodi-0.dtd"
   xmlns:inkscape="http://www.inkscape.org/namespaces/inkscape"
   id="svg2"
   version="1.1"
   inkscape:version="0.48.3.1 r9886"
   width="1062"
   height="109"
   sodipodi:docname="Новый точечный рисунок.png">
  <metadata
     id="metadata8">
    <rdf:RDF>
      <cc:Work
         rdf:about="">
        <dc:format>image/svg+xml</dc:format>
        <dc:type
           rdf:resource="http://purl.org/dc/dcmitype/StillImage" />
        <dc:title></dc:title>
      </cc:Work>
    </rdf:RDF>
  </metadata>
  <defs
     id="defs6" />
  <sodipodi:namedview
     pagecolor="#ffffff"
     bordercolor="#666666"
     borderopacity="1"
     objecttolerance="10"
     gridtolerance="10"
     guidetolerance="10"
     inkscape:pageopacity="0"
     inkscape:pageshadow="2"
     inkscape:window-width="1304"
     inkscape:window-height="745"
     id="namedview4"
     showgrid="false"
     inkscape:zoom="2.8625235"
     inkscape:cx="937.4002"
     inkscape:cy="71.783805"
     inkscape:window-x="54"
     inkscape:window-y="-8"
     inkscape:window-maximized="1"
     inkscape:current-layer="svg2" />
  <g
     id="g3760"
     transform="translate(-9.7355548,-3.9214037)">
    <path
       style="fill:#a21d21;stroke:#231f20;stroke-width:0.24988447"
       d="m 74.560959,42.395676 c -1.999076,0 -3.798244,0.399815 -4.847759,1.549284 -0.749653,0.79963 -0.949561,1.699214 -2.748729,3.548359 -1.099492,1.149469 -1.599261,1.399353 -2.348914,2.448868 -0.899584,1.2994 -0.849607,1.949099 -1.549284,3.298475 -0.499769,0.899584 -0.999538,1.549284 -3.248498,3.898198 -2.798706,2.848683 -3.04859,2.89866 -4.547897,4.447944 -1.999076,2.099029 -3.298475,3.898198 -4.99769,6.247112 -1.749191,2.398891 -2.648775,3.598336 -3.498382,5.14762 -1.649238,2.89866 -1.899122,4.298013 -3.698291,5.79732 -1.149468,0.949561 -2.398891,1.499307 -3.098567,1.749191 -1.649238,0.599723 -2.448868,0.449792 -3.948175,0.699677 -2.748729,0.499768 -4.697828,1.799168 -6.347066,2.948636 -1.299399,0.899584 -2.398891,1.949099 -4.647851,4.148083 -1.099491,1.049514 -2.198983,2.24896 -2.348914,2.348914 0,0.04998 0.199908,0.09995 0.299862,0.249884 0,0 4.847758,1.249423 4.847758,1.349376 v 0.04998 c -2.099029,4.797782 -1.849145,4.947713 -1.849145,4.947713 l 0.09995,-0.04998 c 0.149931,-0.199908 2.89866,-1.44933 8.396118,-3.998152 3.098568,-1.44933 4.647852,-2.149006 5.747343,-2.648775 3.148545,-1.399353 6.197135,-2.998614 9.34568,-4.447944 0.499769,-0.199907 1.499307,-0.699676 2.548821,-1.649237 1.199446,-1.099492 1.799169,-2.198984 2.049053,-2.648776 1.249422,-2.149006 2.848683,-2.348914 8.246188,-6.047204 2.948636,-1.999076 4.447943,-3.048591 6.347065,-4.897736 0.349839,-0.399815 1.649238,-1.849145 4.19806,-4.797782 0.899584,-0.999538 1.59926,-1.799168 2.298937,-3.04859 0.849607,-1.499307 1.499307,-1.649238 1.499307,-1.649238 1.199445,0.999538 2.498844,1.849145 3.748267,2.448868 4.098105,2.498845 8.546049,4.198059 13.343831,4.99769 0.249884,-0.199908 0.249884,-0.149931 0.449792,-0.299862 -2.998614,3.798244 -2.74873,7.24665 -3.748267,10.79501 -0.04998,0.449792 -0.09995,3.248498 -0.699677,5.347527 -0.09995,0.349839 -0.599723,1.999076 -0.999538,4.198059 0,0 -0.6497,3.198522 -0.399815,3.248499 l 0.04998,-0.04998 0.09995,0 c 0,0 4.34799,-1.499307 4.49792,-1.599261 0.04998,0.04998 1.049515,5.197597 1.349376,5.14762 l 0.04998,-0.04998 c 0.09995,-0.449792 0.999538,-1.349376 2.798706,-4.397966 1.499307,-2.498845 2.798706,-5.047667 3.398426,-6.247112 2.54883,-5.097644 1.9491,-4.647851 3.79825,-8.146234 0,0 1.9491,-3.648313 4.64785,-10.14531 0.14993,-0.299861 0.44979,-0.999538 0.34984,-1.899122 -0.14993,-1.499307 -1.34938,-2.548821 -1.59926,-2.748729 -0.05,-0.04998 -0.1,-0.04998 -0.14993,-0.09995 l 0.05,-0.04998 c -0.54975,-0.399815 -1.54929,-0.999538 -3.29848,-1.749191 -2.09903,-0.899584 -2.09903,-0.699677 -3.99815,-1.549284 C 98.349962,57.588647 97.950147,57.38874 96.300909,56.789017 93.502203,55.389664 90.553567,54.240195 87.654907,53.290634 87.205115,52.091189 86.95523,51.191605 86.705346,50.042136 86.255554,47.943106 86.1556,46.143938 86.1556,44.894516 86.20558,45.044447 79.658603,42.395671 74.56096,42.395671 l 0,0 z"
       class="st16"
       inkscape:connector-curvature="0"
       id="path4257" />
    <path
       style="fill:#f2cd14;stroke:#231f20;stroke-width:0.24988447;stroke-miterlimit:10"
       d="m 17.787207,111.31382 c -1.749192,-1.14947 -1.899122,-1.99908 -4.248036,-5.04767 -2.598799,-3.34845 -3.8981981,-4.19806 -3.6483136,-5.74735 0.099954,-0.749648 0.5497456,-1.549279 1.1494686,-2.149001 0.149931,-0.149931 0.449792,-0.449793 2.348914,-1.349377 0.899584,-0.449792 1.249422,-0.549745 1.799168,-0.849607 0.799631,-0.399815 1.899122,-0.899584 2.998614,-1.649237 0,0 1.199445,-0.799631 3.748267,-3.198522 l 0.549746,-0.499769 0,0 c 0,0 5.097643,1.549284 5.14762,1.549284 h 0.04998 l 0,0 -1.899122,4.847759 0,0 c -2.998614,1.299399 -5.147621,2.598798 -5.147621,2.598798 -1.349376,0.799632 -1.799168,1.199442 -2.149006,1.799172 -0.499769,0.99954 -0.349838,2.04905 -0.299861,2.29893 0.199908,1.04952 0.79963,1.69922 1.299399,2.29894 0.499769,0.54975 0.499769,0.39982 2.598798,2.19899 0.199908,0.14993 1.049515,0.89958 1.049515,0.89958 l 0,0 c 0,0 1.349376,1.24942 1.149469,2.29894 -0.09995,0.44979 -0.449792,0.74965 -0.549746,0.8496 -0.299861,0.19991 -0.899584,0.54975 -2.698752,0.14993 -0.899585,-0.1999 -1.899122,-0.39981 -3.248498,-1.29939 z"
       class="st5"
       inkscape:connector-curvature="0"
       id="path4259" />
    <path
       style="fill:#a21d21;stroke:#231f20;stroke-width:0.24988447;stroke-miterlimit:10"
       d="m 71.062576,43.045376 c 0.299862,-0.199908 0.549746,-0.299862 0.549746,-0.349839 0.749654,-0.499768 1.699215,-1.149468 3.598337,-2.698752 3.098567,-2.548821 4.647851,-3.798244 5.697366,-5.097643 1.749191,-2.149007 1.099492,-2.348914 2.698752,-4.34799 2.149007,-2.748729 4.697828,-4.148082 7.196673,-5.497458 1.999076,-1.099492 3.598336,-1.699215 5.947251,-2.598799 1.449329,-0.549746 3.398429,-1.299399 6.047209,-1.999076 1.14946,-0.299861 1.84914,-0.449792 5.94724,-1.349376 0.1,-0.599723 0.29986,-1.549284 0.44979,-2.648775 0.29987,-2.198984 0.14994,-2.398891 0.39982,-3.498383 0.39981,-1.999076 1.2994,-3.398429 1.84914,-4.2480362 0.69968,-1.0994917 1.19945,-1.899122 2.24896,-2.7487292 1.39936,-1.0994917 2.79871,-1.3993531 3.49839,-1.5492838 0.89958,-0.1999076 2.54882,-0.5497458 4.49792,0.099954 0.54974,0.1999076 2.44887,0.8496072 3.74827,2.7487292 0.99953,1.4993069 1.14946,3.048591 1.19944,3.498383 0.05,0.79963 -0.05,1.049514 0,2.948636 0,0.249885 0.05,0.899584 0.05,1.899122 0,0.09995 0,0.699677 0,0.699677 l -2.54882,-0.04998 -1.44933,1.049515 c 0,0 -0.79963,-0.6497 -1.7492,-1.049515 -0.49976,-0.199908 -0.99953,-0.349838 -1.44933,-0.199908 -0.29986,0.09995 -0.49976,0.299862 -0.79963,0.749654 -0.59972,0.849607 -0.89958,1.299399 -1.19944,1.999076 -0.24989,0.649699 -0.34984,1.399353 -0.49977,2.848683 -0.19991,1.849145 -0.14993,2.149006 0,2.398891 0.34984,0.599722 1.14947,1.199445 1.49931,1.299399 0,0 0.1,0 0.1,0.04998 0,0.04998 -0.49977,0 -0.79963,0.149931 -0.49977,0.199907 -0.59972,0.849607 -0.74965,1.299399 -0.19991,0.899584 -0.54975,1.749191 -0.69968,2.598798 -0.19991,1.149469 -0.54975,3.098568 -1.19945,4.847759 -0.44979,1.149469 -0.89958,1.949099 -1.19944,2.448868 -1.49931,2.498845 -3.29848,3.998152 -4.89774,5.247574 -0.54974,0.449792 -2.84868,2.24896 -6.39704,3.898198 -1.74919,0.79963 -1.39935,0.449792 -4.44794,1.699214 l 0,0 c -5.797319,1.749192 -8.346141,3.998152 -9.195748,4.747805 -0.04998,0.04998 -0.299862,0.299862 -0.6497,0.549746 0,0 -14.743184,-2.198983 -16.442398,-2.448868 -0.599723,-0.09995 -1.199446,-0.299861 -1.849145,-0.349838 -0.249885,0 -0.449792,0 -0.599723,-0.149931 -0.299862,-0.249884 -0.09995,-2.24896 -0.04998,-3.548359 0.04998,-1.44933 0.09995,-2.198984 0.599723,-2.698753 0.14993,-0.09995 0.649699,-0.399815 1.049514,-0.649699 z"
       class="st17"
       inkscape:connector-curvature="0"
       id="path4261" />
    <path
       style="fill:#ffffff;stroke:#231f20;stroke-width:0.24988447;stroke-miterlimit:10"
       d="m 104.747,36.348472 c 0.14993,-0.499769 0.59973,-2.049053 2.19899,-3.098568 0.24988,-0.14993 1.89912,-1.249422 3.94817,-0.79963 0.59972,0.149931 1.39935,0.299861 1.84914,0.949561 0.79963,1.099492 0.1,2.798706 -0.1999,3.498383 -0.54975,1.349376 -1.44933,2.099029 -1.84915,2.448868 -0.74965,0.649699 -1.59926,1.349376 -2.7987,1.399353 -0.99954,0.04998 -2.44887,-0.299862 -3.09857,-1.44933 -0.59972,-1.049515 -0.29986,-2.09903 -0.05,-2.948637 z"
       class="st9"
       inkscape:connector-curvature="0"
       id="path4263" />
    <polygon
       transform="matrix(0.49976895,0,0,0.49976895,206.00019,149.54614)"
       style="fill:#f2cd14;stroke:#231f20;stroke-width:0.5;stroke-miterlimit:10"
       points="-192.6,-225.5 -189.9,-225.3 -201.8,-214 -193.8,-223.9 -196.4,-224.4 -192.6,-228.1 -196.4,-228.8 -186.3,-236.6 -191.6,-230 -188.7,-229.6 "
       class="st5"
       id="polygon4265" />
    <path
       style="fill:none;stroke:#231f20;stroke-width:0.24988447;stroke-miterlimit:10"
       d="m 116.84141,23.954202 c -0.59972,-0.599723 -1.2994,-1.399353 -1.9491,-2.398891 -0.74965,-1.149469 -1.19945,-2.198983 -1.49931,-3.048591"
       class="st8"
       inkscape:connector-curvature="0"
       id="path4267" />
    <path
       style="fill:#fee1c7;stroke:#231f20;stroke-width:0.24988447;stroke-miterlimit:10"
       d="m 118.69055,25.403532 c 1.19945,0.79963 1.04952,0.849607 1.44933,0.999538 0.29987,0.09995 1.34938,0.549746 2.24896,0.04998 0.39982,-0.199908 0.6497,-0.849608 1.19945,-2.149007 0.34984,-0.79963 0.39982,-1.099492 0.24988,-1.399353 -0.1999,-0.399815 -0.74965,-0.549746 -0.94956,-0.599723 -0.39981,-0.09995 -0.6497,-0.04998 -0.89958,-0.04998 -0.79963,0.04998 -1.84915,-0.249884 -1.84915,-0.549745 0,-0.09995 0.1,-0.149931 0.59973,-0.549746 0.69967,-0.599723 0.8496,-0.749654 1.09949,-0.699677 0.05,0 0.1,0.04998 0.49977,0.399815 0.39981,0.399816 0.59972,0.549746 0.74965,0.699677 0.49977,0.549746 0.59972,0.699676 0.79963,0.699676 0.29986,0 0.49977,-0.299861 0.49977,-0.299861 0.19991,-0.249884 0.05,-0.499769 0.05,-1.049515 0,-0.499769 0,-0.899584 0.1999,-1.249422 0.05,-0.09995 0.34984,-0.599723 0.84961,-0.6497 0.29986,-0.04998 0.34984,0.149931 0.59972,0.04998 0.29987,-0.09995 0.4498,-0.449792 0.49977,-0.599723 0.14993,-0.299861 0.1,-0.599722 0.1,-0.849607 -0.05,-0.349838 -0.1,-0.949561 -0.49977,-1.199445 -0.1,-0.04998 -0.24989,-0.04998 -0.6497,-0.09995 -0.49977,-0.04998 -0.74965,-0.09995 -0.99954,-0.04998 -0.14993,0 -0.29986,0.04998 -0.84961,0.399815 -0.24988,0.149931 -0.59972,0.349838 -1.04951,0.599723 -0.6497,-0.499769 -1.24942,-0.79963 -1.64924,-0.949561 -0.59972,-0.249885 -0.99954,-0.399815 -1.44933,-0.299861 -0.14993,0.04998 -0.44979,0.14993 -1.04951,0.999537 -0.34984,0.499769 -0.79963,1.149469 -1.14947,2.149007 -0.1,0.299861 -0.19991,0.899584 -0.39982,2.09903 -0.14993,0.999537 -0.1999,1.399353 -0.14993,1.899122 0.05,0.349838 0.1,0.749653 0.34984,1.149468 0.29986,0.399815 0.59972,0.499769 1.54928,1.099492 l 0,0 z"
       class="st7"
       inkscape:connector-curvature="0"
       id="path4269" />
    <path
       style="fill:none;stroke:#231f20;stroke-width:0.24988447;stroke-miterlimit:10"
       d="M 123.53831,22.454895"
       class="st8"
       inkscape:connector-curvature="0"
       id="path4271" />
    <polygon
       transform="matrix(0.49976895,0,0,0.49976895,206.00019,149.54614)"
       style="fill:#ffffff;stroke:#231f20;stroke-width:0.5;stroke-miterlimit:10"
       points="-168.6,-258.3 -171.9,-255.9 -171.4,-255.3 -169.4,-254.8 -165.2,-254.3 -164.9,-254.8 "
       class="st9"
       id="polygon4273" />
    <path
       style="fill:#fee1c7;stroke:#231f20;stroke-width:0.24988447;stroke-miterlimit:10"
       d="m 120.68963,13.908846 c -0.1,-0.549746 0.69968,-1.299399 0.69968,-1.299399 l 3.39843,1.349376 c 0,0 -0.14994,0.399815 -0.29987,0.599723 -0.05,0.04998 -0.29986,0.349838 -1.19944,0.349838 -0.89959,0 -2.49885,-0.349838 -2.5988,-0.999538 l 0,0 z"
       class="st7"
       inkscape:connector-curvature="0"
       id="path4275" />
    <path
       style="fill:#72cde0;stroke:#231f20;stroke-width:0.24988447;stroke-miterlimit:10"
       d="m 122.93859,13.509031 c -0.14993,0.09995 -0.19991,0.399815 -0.0999,0.649699 0.0999,0.199908 0.29986,0.299862 0.54974,0.299862 0.24989,-0.04998 0.39982,-0.249885 0.39982,-0.299862 0,0 0.14993,-0.299861 0,-0.499769 -0.05,-0.09995 -0.14993,-0.09995 -0.34984,-0.14993 -0.24989,-0.09995 -0.39982,-0.09995 -0.49977,0 z"
       class="st18"
       inkscape:connector-curvature="0"
       id="path4277" />
    <path
       style="fill:#523014;stroke:#231f20;stroke-width:0.24988447;stroke-miterlimit:10"
       d="m 123.48834,13.708938 c -0.05,-0.04998 -0.14993,0.04998 -0.19991,0.09995 -0.05,0.09995 0,0.199908 0.05,0.199908 0.05,0 0.14993,-0.04998 0.14993,-0.09995 0.0999,-0.04998 0.0999,-0.149931 0,-0.199908 z"
       class="st19"
       inkscape:connector-curvature="0"
       id="path4279" />
    <path
       style="fill:#f2cd14;stroke:#231f20;stroke-width:0.24988447;stroke-miterlimit:10"
       d="m 112.59337,13.808892 c 0.19991,-0.899584 0.69968,-1.44933 0.94956,-1.699214 0.19991,-0.199908 0.6497,-0.599723 1.34938,-0.749654 0.84961,-0.199907 1.49931,0.04998 1.64924,0.09995 0.69967,0.249885 1.09949,0.749654 1.24942,1.049515 0.34984,0.549746 0.44979,1.049515 0.44979,1.349376 0.14993,1.249422 -0.39981,2.149007 -0.49977,2.348914 -0.14993,0.249885 -0.49977,0.849607 -1.24942,1.199446 -0.19991,0.09995 -1.34938,0.649699 -2.49884,0.09995 -0.89959,-0.449792 -1.19945,-1.349376 -1.34938,-1.849145 0,-0.399815 -0.19991,-1.049515 -0.05,-1.849145 l 0,0 z"
       class="st5"
       inkscape:connector-curvature="0"
       id="path4281" />
    <path
       style="fill:#f2cd14;stroke:#231f20;stroke-width:0.24988447;stroke-miterlimit:10"
       d="m 105.64659,12.609447 7.44655,-1.549284 -1.59926,2.648775 c 1.54929,0.149931 3.04859,0.299862 4.59788,0.449792 l 0,0 c 0.05,0.09995 0.14993,0.249885 0.14993,0.449792 0,0.349839 -0.19991,0.6497 -0.24989,0.699677 l -5.64739,-1.099492 0.79963,-1.749191 -5.49745,0.149931 0,0 z"
       class="st5"
       inkscape:connector-curvature="0"
       id="path4283" />
    <path
       style="fill:#f2cd14;stroke:#231f20;stroke-width:0.24988447;stroke-miterlimit:10"
       d="m 102.44807,112.46328 c 0.94956,-0.44979 0.74965,-0.44979 1.39935,-1.19944 0.49977,-1.09949 -0.54975,-1.74919 -0.79963,-1.99908 -0.69968,-0.74965 -2.5988,-0.05 -4.747806,-0.74965 -2.798706,-1.64924 -4.34799,-2.09903 -4.897735,-2.94864 -0.549746,-0.8496 -0.6497,-1.69921 -0.699677,-2.04905 -0.199908,-1.54928 0.249885,-2.5988 1.249422,-5.297552 0.749654,-1.999076 1.44933,-4.148082 1.44933,-4.148082 -0.949561,-3.748268 -1.299399,-5.197598 -1.299399,-5.447482 l 0,0 c -0.199907,-0.349838 -5.047666,2.448868 -5.047666,2.448868 -3.698291,9.295698 -5.647389,14.243418 -5.647389,14.243418 l 0,0 c 0,0 1.349376,1.14947 1.59926,1.44933 1.549284,1.34937 3.098568,2.39889 3.748267,2.84868 0.899584,0.6497 2.09903,1.34938 4.397967,2.79871 3.048591,0.14993 6.746881,-0.05 9.295706,0.05 z"
       class="st5"
       sodipodi:nodetypes="ccccccccccccccccc"
       inkscape:connector-curvature="0"
       id="path4285" />
    <path
       style="fill:#f2cd14;stroke:#231f20;stroke-width:0.24988447;stroke-miterlimit:10"
       d="m 69.463316,44.094891 -0.149931,5.897273 c 6.147158,1.099492 12.344293,2.198984 18.491451,3.298475 0.749654,-0.549746 1.499307,-1.149468 2.198984,-1.699214 C 83.656754,50.391979 77.359665,49.142557 71.0126,47.943111 l 0.04998,-4.697828 c 0,0 -1.59926,0.849608 -1.59926,0.849608 z"
       class="st5"
       inkscape:connector-curvature="0"
       id="path4287" />
    <path
       id="path3133"
       inkscape:connector-curvature="0"
       class="st20"
       d="m 70.052653,60.549969 c 0,0 -9.5,-3.6 -4.5,-11.5"
       style="fill:none;stroke:#000000;stroke-width:0.5" />
  </g>
  <path
     class="st32"
     d="m 378.853,106.05 c 0.1,0.4 -0.1,0.7 -0.4,1.4 -0.2,0.5 -0.4,0.7 -0.5,0.9 -0.4,0.4 -1,0.4 -2.3,0.4 -1.7,0 -2.5,-0.1 -2.9,-0.2 -0.8,-0.3 -1.1,-0.9 -2.1,-2.3 -1.7,-2.5 -2.6,-3.8 -3.3,-4.6 -0.9,-1 -1.6,-1.800004 -2.1,-3.300004 -0.3,-0.9 -0.2,-1.4 -0.2,-1.5 0.1,-0.6 0.4,-1.3 2.1,-2.7 0.7,-0.6 1.1,-0.9 2.2,-1.7 1,-0.7 2.4,-1.8 3.5,-2.7 0.7,-0.6 1.7,-1.4 2.9,-2.6 0.9,-0.1 1.7,-0.1 2.7,-0.1 1,0 1.9,0 2.8,0 -0.1,0.9 -0.3,1.7 -0.5,2.6 -0.2,0.8 -0.3,1.6 -0.5,2.4 -0.1,0 -0.2,0.1 -0.4,0.2 -1.8,1 -2,1.3 -3.4,2.2 -1.2,0.7 -1.8,1 -2.5,1.9 -0.1,0.1 -0.1,0.2 -0.2,0.3 -0.5,1 -0.4,2 -0.3,2.9 0.1,1.000004 0.3,2.600004 1.4,3.700004 0.8,0.8 2.8,1.9 3.3,2.3 0.2,-0.1 0.6,0.1 0.7,0.5 z"
     id="path240"
     inkscape:connector-curvature="0"
     style="fill:#f1cc19;stroke:#221f1f;stroke-width:0.5;stroke-miterlimit:10" />
  <path
     class="st33"
     d="m 420.553,93.849996 c 3.3,-3.7 5.6,-6.3 7.3,-8.1 0,0 1.7,-1.9 5.2,-7.1 0.3,-0.5 1,-1.6 1.2,-3.1 0.1,-0.6 0,-1 0,-1.7 0,-1.3 0,-1.9 0.1,-4 0.2,-3 0.3,-6.1 0.3,-7.4 0.1,-3.6 0.2,-5.3 0.1,-6.8 -0.2,-2.7 -0.4,-3.4 -0.7,-6.5 -0.2,-2.8 -0.3,-5.1 -0.2,-6.6 -6.5,-0.6 -13.1,-1.2 -19.6,-1.8 -1.2,1.4 -2.5,3 -3.6,5 -0.2,0.4 -0.5,0.9 -0.7,1.3 -0.6,1.4 -0.3,1.4 -0.8,2.4 -1,1.9 -2.4,2.7 -4.1,3.9 -0.8,0.6 -3.5,2.8 -5.5,5.9 -0.5,0.8 -0.1,0.3 -2.9,5.6 -1.2,2.4 -1.3,2.5 -1.5,3 -0.4,1.1 -0.4,1.8 -1,2.4 -0.5,0.5 -1,0.4 -1.9,0.7 -0.5,0.1 -1,0.4 -2.8,1.8 -2.2,1.7 -3.7,3.2 -3.7,3.2 -1.9,1.9 -3.1,3.3 -4.3,4.7 -1.3,1.5 -3.1,3.6 -5.5,6.1 1.8,0 3.6,-0.1 5.4,-0.1 -0.2,1.6 -0.5,3.2 -0.7,4.8 2.2,-2 4,-3.7 5.5,-5 2.6,-2.4 3.7,-3.3 5,-4.3 2.4,-1.9 3.6,-2.8 4.5,-3.1 1.8,-0.6 3.3,-0.6 4.7,-2 0.6,-0.6 0.8,-1.1 1,-1.4 1.5,-2.9 4.3,-4.5 7.9,-8 3.5,-3.4 2.4,-3.2 6.2,-6.9 2.8,-2.8 3.9,-3.3 5.5,-5.5 2.1,-3 3,-6.2 2.9,-6.2 0,0 -1.2,2.1 -2,4.9 -0.3,1.1 -0.8,2.9 -0.8,5.4 0,2.4 0.5,4.2 1,6 0.5,1.8 0.7,2.2 1.7,5.1 0.6,1.8 1,3.3 1.3,4.2 0,0 -1.8,1.2 -3.1,2.3 -0.6,0.5 -2.1,1.9 -3.1,4 -0.7,1.5 -0.6,2.1 -1.3,4.6 -0.5,1.9 -1.1,3.4 -1.5,4.3 l 4.3,-1.3 0.2,5.3 z"
     id="path242"
     inkscape:connector-curvature="0"
     style="fill:#a11e22;stroke:#221f1f;stroke-width:0.5;stroke-miterlimit:10" />
  <path
     class="st32"
     d="m 420.453,93.949996 c -1.4,1.4 -2.2,2.8 -2.7,3.8 -0.8,1.4 -1.2,2.400004 -1.1,3.600004 0.2,1.3 1,2.3 1.4,2.7 0,0 3.1,0 5.3,0.5 0.1,0 0.3,0.1 0.6,0.2 0.7,0.4 1,1.3 1,2.1 0,1 -0.5,1.6 -0.7,1.8 -3,-0.2 -6,-0.3 -9,-0.5 -1.6,-1.6 -3.1,-2.7 -4.2,-3.3 -1.7,-1 -2.9,-1.3 -3.1,-2.4 -0.2,-0.6 0,-1.2 1,-2.800004 1.4,-2.3 2.7,-4 2.8,-4.1 1,-1.2 2.3,-3 3.8,-5.3 l 4.5,-1.5 c 0.1,1.8 0.3,3.5 0.4,5.2 z"
     id="path244"
     inkscape:connector-curvature="0"
     style="fill:#f1cc19;stroke:#221f1f;stroke-width:0.5;stroke-miterlimit:10" />
  <path
     id="path3181_1_"
     inkscape:connector-curvature="0"
     class="st23"
     d="m 415.803,39.544736 c 0.3,-0.2 0.5,-0.3 0.5,-0.3 0.7,-0.5 1.7,-1.1 3.6,-2.7 3.1,-2.5 4.6,-3.8 5.7,-5.1 1.7,-2.1 1.1,-2.3 2.7,-4.3 2.1,-2.7 4.7,-4.1 7.2,-5.5 2,-1.1 3.6,-1.7 5.9,-2.6 1.4,-0.5 3.4,-1.3 6,-2 1.1,-0.3 1.8,-0.4 5.9,-1.3 0.1,-0.6 0.3,-1.5 0.4,-2.6 0.3,-2.2 0.1,-2.4 0.4,-3.4999997 0.4,-2 1.3,-3.4 1.8,-4.2 0.7,-1.1 1.2,-1.9 2.2,-2.7 1.4,-1.1 2.8,-1.4 3.5,-1.5 0.9,-0.2 2.5,-0.50000002 4.5,0.1 0.5,0.2 2.4,0.8 3.7,2.7 1,1.5 1.1,3 1.2,3.5 0,0.8 -0.1,1 0,2.8999997 0,0.2 0,0.9 0,1.9 0,0.1 0,0.7 0,0.7 l -2.5,-0.1 -1.4,1 c 0,0 -0.8,-0.6 -1.7,-1 -0.5,-0.2 -1,-0.3 -1.4,-0.2 -0.3,0.1 -0.5,0.3 -0.8,0.7 -0.6,0.8 -0.9,1.3 -1.2,2 -0.2,0.6 -0.3,1.4 -0.5,2.8 -0.2,1.8 -0.1,2.1 0,2.4 0.3,0.6 1.1,1.2 1.5,1.3 0,0 0.1,0 0.1,0.1 0,0.1 -0.5,0 -0.8,0.1 -0.5,0.2 -0.6,0.8 -0.7,1.3 -0.2,0.9 -0.5,1.7 -0.7,2.6 -0.2,1.1 -0.5,3.1 -1.2,4.8 -0.4,1.1 -0.9,1.9 -1.2,2.4 -1.5,2.5 -3.3,4 -4.9,5.2 -0.5,0.4 -2.8,2.2 -6.4,3.9 -1.7,0.8 -1.4,0.4 -4.4,1.7 l 0,0 c -5.8,1.7 -8.3,4 -9.2,4.7 0,0.1 -0.3,0.3 -0.6,0.5 0,0 -14.7,-2.2 -16.4,-2.4 -0.6,-0.1 -1.2,-0.3 -1.8,-0.3 -0.2,0 -0.4,0 -0.6,-0.1 -0.3,-0.2 -0.1,-2.2 0,-3.5 0,-1.4 0.1,-2.2 0.6,-2.7 0.1,-0.1 0.6,-0.4 1,-0.7 l 0,0 z"
     style="fill:#a21d21;stroke:#231f20;stroke-width:0.4998;stroke-miterlimit:10" />
  <path
     id="path3183_1_"
     inkscape:connector-curvature="0"
     class="st24"
     d="m 449.503,32.844736 c 0.1,-0.5 0.6,-2 2.2,-3.1 0.2,-0.1 1.9,-1.2 3.9,-0.8 0.6,0.1 1.4,0.3 1.8,0.9 0.8,1.1 0.1,2.8 -0.2,3.5 -0.5,1.3 -1.4,2.1 -1.8,2.4 -0.7,0.6 -1.6,1.3 -2.8,1.4 -1,0.1 -2.4,-0.3 -3.1,-1.4 -0.5,-1 -0.2,-2 0,-2.9 l 0,0 z"
     style="fill:#ffffff;stroke:#231f20;stroke-width:0.4998;stroke-miterlimit:10" />
  <polygon
     id="polygon3185_1_"
     class="st5"
     points="318.6,45.4 315.9,48.7 317.4,48.9 315.4,50.9 316.8,51 310.8,56.7 314.8,51.7 313.5,51.5 315.4,49.6 313.5,49.3 "
     style="fill:#f2cd14;stroke:#231f20;stroke-width:0.5;stroke-miterlimit:10"
     transform="translate(139.103,-17.555264)" />
  <path
     id="path3187_1_"
     inkscape:connector-curvature="0"
     class="st25"
     d="m 461.603,20.444736 c -0.6,-0.6 -1.3,-1.4 -1.9,-2.4 -0.7,-1.1 -1.2,-2.2 -1.5,-3"
     style="fill:none;stroke:#231f20;stroke-width:0.4998;stroke-miterlimit:10" />
  <path
     id="path3189_1_"
     inkscape:connector-curvature="0"
     class="st26"
     d="m 463.503,21.944736 c 1.2,0.8 1,0.8 1.4,1 0.3,0.1 1.3,0.5 2.2,0.1 0.4,-0.2 0.6,-0.8 1.2,-2.1 0.3,-0.8 0.4,-1.1 0.2,-1.4 -0.2,-0.4 -0.7,-0.5 -0.9,-0.6 -0.4,-0.1 -0.6,-0.1 -0.9,-0.1 -0.8,0.1 -1.8,-0.2 -1.8,-0.5 0,-0.1 0.1,-0.1 0.6,-0.5 0.7,-0.6 0.8,-0.7 1.1,-0.7 0,0 0.1,0.1 0.5,0.4 0.4,0.4 0.6,0.5 0.7,0.7 0.5,0.5 0.6,0.7 0.8,0.7 0.3,0 0.5,-0.3 0.5,-0.3 0.2,-0.2 0,-0.5 0,-1 0,-0.5 0,-0.9 0.2,-1.2 0.1,-0.1 0.3,-0.6 0.8,-0.6 0.3,-0.1 0.3,0.1 0.6,0.1 0.3,-0.1 0.4,-0.4 0.5,-0.6 0.1,-0.3 0.1,-0.6 0.1,-0.8 0,-0.3 -0.1,-0.9 -0.5,-1.2 -0.1,-0.1 -0.2,-0.1 -0.6,-0.1 -0.5,-0.1 -0.7,-0.1 -1,-0.1 -0.1,0 -0.3,0.1 -0.8,0.4 -0.2,0.1 -0.6,0.3 -1,0.6 -0.6,-0.5 -1.2,-0.8 -1.6,-0.9 -0.6,-0.2 -1,-0.4 -1.4,-0.3 -0.1,0.1 -0.4,0.1 -1,1 -0.3,0.5 -0.8,1.1 -1.1,2.1 -0.1,0.3 -0.2,0.9 -0.4,2.1 -0.1,1 -0.2,1.4 -0.1,1.9 0,0.3 0.1,0.7 0.3,1.1 0.1,0.1 0.4,0.2 1.4,0.8 l 0,0 z"
     style="fill:#fee1c7;stroke:#231f20;stroke-width:0.2499;stroke-miterlimit:10" />
  <g
     id="g3868"
     transform="translate(6.2996352,-4.6210837)">
    <path
       style="fill:#a21d21;stroke:#231f20;stroke-width:0.24988447"
       d="m 530.61378,43.095353 c -1.99908,0 -3.79825,0.399815 -4.84776,1.549283 -0.74966,0.799631 -0.94956,1.699215 -2.74873,3.54836 -1.09949,1.149469 -1.59926,1.399353 -2.34892,2.448868 -0.89958,1.299399 -0.8496,1.949099 -1.54928,3.298475 -0.49977,0.899584 -0.99954,1.549284 -3.2485,3.898198 -2.7987,2.848683 -3.04859,2.89866 -4.5479,4.447943 -1.99907,2.09903 -3.29847,3.898198 -4.99769,6.247112 -1.74919,2.398891 -2.64877,3.598337 -3.49838,5.14762 -1.64924,2.89866 -1.89912,4.298013 -3.69829,5.79732 -1.14947,0.949561 -2.39889,1.499307 -3.09857,1.749192 -1.64923,0.599722 -2.44886,0.449792 -3.94817,0.699676 -2.74873,0.499769 -4.69783,1.799168 -6.34707,2.948637 -1.2994,0.899584 -2.39889,1.949099 -4.64785,4.148082 -1.09949,1.049515 -2.19898,2.24896 -2.34891,2.348914 0,0.04998 0.19991,0.09995 0.29986,0.249885 0,0 4.84776,1.249422 4.84776,1.349376 v 0.04998 c -2.09903,4.797782 -1.84915,4.947712 -1.84915,4.947712 l 0.1,-0.04998 c 0.14993,-0.199907 2.89866,-1.449329 8.39612,-3.998151 3.09856,-1.44933 4.64785,-2.149007 5.74734,-2.648776 3.14854,-1.399353 6.19713,-2.998613 9.34568,-4.447943 0.49977,-0.199908 1.49931,-0.699677 2.54882,-1.649238 1.19945,-1.099491 1.79917,-2.198983 2.04905,-2.648775 1.24942,-2.149007 2.84869,-2.348914 8.24619,-6.047204 2.94864,-1.999076 4.44794,-3.048591 6.34707,-4.897736 0.34983,-0.399815 1.64923,-1.849145 4.19806,-4.797782 0.89958,-0.999538 1.59926,-1.799168 2.29893,-3.048591 0.84961,-1.499307 1.49931,-1.649237 1.49931,-1.649237 1.19944,0.999538 2.49884,1.849145 3.74827,2.448868 4.0981,2.498844 8.54605,4.198059 13.34383,4.997689 0.24988,-0.199907 0.24988,-0.149931 0.44979,-0.299861 -2.99861,3.798244 -2.74873,7.24665 -3.74827,10.795009 -0.05,0.449792 -0.1,3.248498 -0.69967,5.347528 -0.1,0.349838 -0.59973,1.999076 -0.99954,4.198059 0,0 -0.6497,3.198521 -0.39982,3.248498 l 0.05,-0.04998 0.0999,0 c 0,0 4.34799,-1.499307 4.49792,-1.59926 0.05,0.04998 1.04952,5.197597 1.34938,5.14762 l 0.05,-0.04998 c 0.1,-0.449792 0.99953,-1.349376 2.7987,-4.397967 1.49931,-2.498845 2.79871,-5.047666 3.39843,-6.247112 2.54882,-5.097643 1.9491,-4.647851 3.79825,-8.146234 0,0 1.94909,-3.648313 4.64785,-10.145309 0.14993,-0.299862 0.44979,-0.999538 0.34984,-1.899122 -0.14994,-1.499307 -1.34938,-2.548822 -1.59927,-2.74873 -0.05,-0.04998 -0.1,-0.04998 -0.14993,-0.09995 l 0.05,-0.04998 c -0.54974,-0.399815 -1.54928,-0.999538 -3.29847,-1.749192 -2.09903,-0.899584 -2.09903,-0.699676 -3.99816,-1.549283 -2.149,-0.949561 -2.54882,-1.149469 -4.19805,-1.749192 -2.79871,-1.399353 -5.74735,-2.548821 -8.64601,-3.498382 -0.44979,-1.199446 -0.69967,-2.09903 -0.94956,-3.248498 -0.44979,-2.09903 -0.54974,-3.898198 -0.54974,-5.147621 0.05,0.149931 -6.497,-2.498844 -11.59464,-2.498844 l 0,0 z"
       class="st16"
       inkscape:connector-curvature="0"
       id="path4291" />
    <path
       style="fill:#f2cd14;stroke:#231f20;stroke-width:0.24988447;stroke-miterlimit:10"
       d="m 473.84002,112.01349 c -1.74919,-1.14947 -1.89912,-1.99907 -4.24803,-5.04766 -2.5988,-3.34846 -3.8982,-4.19806 -3.64832,-5.74735 0.1,-0.74965 0.54975,-1.549282 1.14947,-2.149005 0.14993,-0.149931 0.44979,-0.449792 2.34892,-1.349376 0.89958,-0.449792 1.24942,-0.549746 1.79916,-0.849607 0.79963,-0.399815 1.89913,-0.899584 2.99862,-1.649238 0,0 1.19944,-0.79963 3.74827,-3.198521 l 0.54974,-0.499769 0,0 c 0,0 5.09764,1.549284 5.14762,1.549284 h 0.05 l 0,0 -1.89912,4.847758 0,0 c -2.99862,1.2994 -5.14762,2.598794 -5.14762,2.598794 -1.34938,0.79963 -1.79917,1.19945 -2.14901,1.79917 -0.49977,0.99954 -0.34984,2.04906 -0.29986,2.29894 0.19991,1.04952 0.79963,1.69922 1.2994,2.29894 0.49977,0.54974 0.49977,0.39981 2.5988,2.19898 0.1999,0.14993 1.04951,0.89959 1.04951,0.89959 l 0,0 c 0,0 1.34938,1.24942 1.14947,2.29893 -0.0999,0.4498 -0.44979,0.74966 -0.54975,0.84961 -0.29986,0.19991 -0.89958,0.54975 -2.69875,0.14993 -0.89958,-0.19991 -1.89912,-0.39981 -3.2485,-1.2994 z"
       class="st5"
       inkscape:connector-curvature="0"
       id="path4293" />
    <path
       style="fill:#a21d21;stroke:#231f20;stroke-width:0.24988447;stroke-miterlimit:10"
       d="m 527.11539,43.745052 c 0.29986,-0.199907 0.54975,-0.299861 0.54975,-0.349838 0.74965,-0.499769 1.69921,-1.149469 3.59834,-2.698752 3.09856,-2.548822 4.64785,-3.798244 5.69736,-5.097644 1.74919,-2.149006 1.09949,-2.348914 2.69875,-4.347989 2.14901,-2.74873 4.69783,-4.148083 7.19668,-5.497459 1.99907,-1.099492 3.59833,-1.699214 5.94725,-2.598798 1.44933,-0.549746 3.39843,-1.2994 6.0472,-1.999076 1.14947,-0.299862 1.84915,-0.449792 5.94725,-1.349376 0.1,-0.599723 0.29986,-1.549284 0.44979,-2.648776 0.29987,-2.198983 0.14993,-2.398891 0.39982,-3.498383 0.39981,-1.999075 1.2994,-3.398428 1.84914,-4.2480357 0.69968,-1.0994917 1.19945,-1.899122 2.24896,-2.7487292 1.39936,-1.0994917 2.79871,-1.3993531 3.49839,-1.5492838 0.89958,-0.1999075 2.54882,-0.5497458 4.49792,0.099954 0.54974,0.1999076 2.44887,0.8496073 3.74826,2.7487293 0.99954,1.4993068 1.14947,3.0485904 1.19945,3.4983824 0.05,0.79963 -0.05,1.049515 0,2.948637 0,0.249884 0.05,0.899584 0.05,1.899122 0,0.09995 0,0.699676 0,0.699676 l -2.54882,-0.04998 -1.44933,1.049514 c 0,0 -0.79963,-0.649699 -1.7492,-1.049514 -0.49976,-0.199908 -0.99953,-0.349839 -1.44933,-0.199908 -0.29986,0.09995 -0.49976,0.299861 -0.79963,0.749653 -0.59972,0.849608 -0.89958,1.2994 -1.19944,1.999076 -0.24989,0.6497 -0.34984,1.399353 -0.49977,2.848683 -0.19991,1.849145 -0.14993,2.149007 0,2.398891 0.34984,0.599723 1.14947,1.199446 1.49931,1.299399 0,0 0.1,0 0.1,0.04998 0,0.04998 -0.49977,0 -0.79963,0.149931 -0.49977,0.199908 -0.59972,0.849607 -0.74965,1.299399 -0.19991,0.899584 -0.54975,1.749192 -0.69968,2.598799 -0.19991,1.149468 -0.54975,3.098567 -1.19945,4.847759 -0.44979,1.149468 -0.89958,1.949099 -1.19944,2.448868 -1.49931,2.498844 -3.29848,3.998151 -4.89774,5.247573 -0.54974,0.449793 -2.84868,2.248961 -6.39704,3.898198 -1.74919,0.799631 -1.39935,0.449792 -4.44794,1.699215 l 0,0 c -5.79732,1.749191 -8.34614,3.998151 -9.19575,4.747805 -0.05,0.04998 -0.29986,0.299861 -0.6497,0.549746 0,0 -14.74319,-2.198984 -16.4424,-2.448868 -0.59972,-0.09995 -1.19945,-0.299862 -1.84914,-0.349839 -0.24989,0 -0.4498,0 -0.59973,-0.14993 -0.29986,-0.249885 -0.1,-2.24896 -0.05,-3.54836 0.05,-1.44933 0.1,-2.198983 0.59972,-2.698752 0.14993,-0.09995 0.6497,-0.399815 1.04951,-0.6497 z"
       class="st17"
       inkscape:connector-curvature="0"
       id="path4295" />
    <path
       style="fill:#ffffff;stroke:#231f20;stroke-width:0.24988447;stroke-miterlimit:10"
       d="m 560.79982,37.048148 c 0.14993,-0.499769 0.59972,-2.049052 2.19898,-3.098567 0.24989,-0.149931 1.89913,-1.249423 3.94818,-0.79963 0.59972,0.14993 1.39935,0.299861 1.84914,0.949561 0.79963,1.099491 0.1,2.798706 -0.1999,3.498382 -0.54975,1.349376 -1.44933,2.09903 -1.84915,2.448868 -0.74965,0.6497 -1.59926,1.349376 -2.79871,1.399353 -0.99953,0.04998 -2.44886,-0.299861 -3.09856,-1.44933 -0.59973,-1.049515 -0.29986,-2.099029 -0.05,-2.948637 z"
       class="st9"
       inkscape:connector-curvature="0"
       id="path4297" />
    <polygon
       transform="matrix(0.49976895,0,0,0.49976895,560.00019,149.54614)"
       style="fill:#f2cd14;stroke:#231f20;stroke-width:0.5;stroke-miterlimit:10"
       points="2.4,-212.6 10.4,-222.5 7.8,-223 11.6,-226.7 7.8,-227.4 17.9,-235.2 12.6,-228.6 15.5,-228.2 11.6,-224.1 14.3,-223.9 "
       class="st5"
       id="polygon4299" />
    <path
       style="fill:none;stroke:#231f20;stroke-width:0.24988447;stroke-miterlimit:10"
       d="m 572.89423,24.653878 c -0.59972,-0.599722 -1.2994,-1.399353 -1.9491,-2.398891 -0.74965,-1.149468 -1.19945,-2.198983 -1.49931,-3.04859"
       class="st8"
       inkscape:connector-curvature="0"
       id="path4301" />
    <path
       style="fill:#fee1c7;stroke:#231f20;stroke-width:0.24988447;stroke-miterlimit:10"
       d="m 574.74337,26.103208 c 1.19945,0.799631 1.04952,0.849608 1.44933,0.999538 0.29987,0.09995 1.34938,0.549746 2.24896,0.04998 0.39982,-0.199907 0.6497,-0.849607 1.19945,-2.149006 0.34984,-0.799631 0.39981,-1.099492 0.24988,-1.399353 -0.1999,-0.399816 -0.74965,-0.549746 -0.94956,-0.599723 -0.39981,-0.09995 -0.6497,-0.04998 -0.89958,-0.04998 -0.79963,0.04998 -1.84915,-0.249885 -1.84915,-0.549746 0,-0.09995 0.1,-0.149931 0.59973,-0.549746 0.69967,-0.599722 0.8496,-0.749653 1.09949,-0.699676 0.05,0 0.1,0.04998 0.49977,0.399815 0.39981,0.399815 0.59972,0.549746 0.74965,0.699676 0.49977,0.549746 0.59972,0.699677 0.79963,0.699677 0.29986,0 0.49977,-0.299861 0.49977,-0.299861 0.19991,-0.249885 0.05,-0.499769 0.05,-1.049515 0,-0.499769 0,-0.899584 0.1999,-1.249423 0.05,-0.09995 0.34984,-0.599722 0.84961,-0.649699 0.29986,-0.04998 0.34984,0.14993 0.59972,0.04998 0.29987,-0.09995 0.4498,-0.449792 0.49977,-0.599723 0.14993,-0.299861 0.1,-0.599723 0.1,-0.849607 -0.05,-0.349839 -0.1,-0.949561 -0.49977,-1.199446 -0.1,-0.04998 -0.24989,-0.04998 -0.6497,-0.09995 -0.49977,-0.04998 -0.74965,-0.09995 -0.99954,-0.04998 -0.14993,0 -0.29986,0.04998 -0.84961,0.399815 -0.24988,0.14993 -0.59972,0.349838 -1.04951,0.599722 -0.6497,-0.499768 -1.24942,-0.79963 -1.64924,-0.949561 -0.59972,-0.249884 -0.99954,-0.399815 -1.44933,-0.299861 -0.14993,0.04998 -0.44979,0.149931 -1.04951,0.999538 -0.34984,0.499769 -0.79963,1.149469 -1.14947,2.149006 -0.1,0.299862 -0.19991,0.899585 -0.39982,2.09903 -0.14993,0.999538 -0.1999,1.399353 -0.14993,1.899122 0.05,0.349838 0.1,0.749654 0.34984,1.149469 0.29986,0.399815 0.59972,0.499769 1.54928,1.099491 l 0,0 z"
       class="st7"
       inkscape:connector-curvature="0"
       id="path4303" />
    <path
       style="fill:none;stroke:#231f20;stroke-width:0.24988447;stroke-miterlimit:10"
       d="M 579.59113,23.154572"
       class="st8"
       inkscape:connector-curvature="0"
       id="path4305" />
    <polygon
       transform="matrix(0.49976895,0,0,0.49976895,560.00019,149.54614)"
       style="fill:#ffffff;stroke:#231f20;stroke-width:0.5;stroke-miterlimit:10"
       points="35.6,-256.9 32.3,-254.5 32.8,-253.9 34.8,-253.4 39,-252.9 39.3,-253.4 "
       class="st9"
       id="polygon4307" />
    <path
       style="fill:#fee1c7;stroke:#231f20;stroke-width:0.24988447;stroke-miterlimit:10"
       d="m 576.74245,14.608522 c -0.1,-0.549745 0.69968,-1.299399 0.69968,-1.299399 l 3.39843,1.349376 c 0,0 -0.14994,0.399816 -0.29987,0.599723 -0.05,0.04998 -0.29986,0.349838 -1.19944,0.349838 -0.89959,0 -2.49885,-0.349838 -2.5988,-0.999538 l 0,0 z"
       class="st7"
       inkscape:connector-curvature="0"
       id="path4309" />
    <path
       style="fill:#72cde0;stroke:#231f20;stroke-width:0.24988447;stroke-miterlimit:10"
       d="m 578.99141,14.208707 c -0.14993,0.09995 -0.19991,0.399815 -0.1,0.6497 0.1,0.199908 0.29986,0.299861 0.54974,0.299861 0.24989,-0.04998 0.39982,-0.249884 0.39982,-0.299861 0,0 0.14993,-0.299861 0,-0.499769 -0.05,-0.09995 -0.14993,-0.09995 -0.34984,-0.149931 -0.24989,-0.09995 -0.39982,-0.09995 -0.49977,0 z"
       class="st18"
       inkscape:connector-curvature="0"
       id="path4311" />
    <path
       style="fill:#523014;stroke:#231f20;stroke-width:0.24988447;stroke-miterlimit:10"
       d="m 579.54116,14.408615 c -0.05,-0.04998 -0.14993,0.04998 -0.19991,0.09995 -0.05,0.09995 0,0.199907 0.05,0.199907 0.05,0 0.14993,-0.04998 0.14993,-0.09995 0.0999,-0.04998 0.0999,-0.14993 0,-0.199907 z"
       class="st19"
       inkscape:connector-curvature="0"
       id="path4313" />
    <path
       style="fill:#f2cd14;stroke:#231f20;stroke-width:0.24988447;stroke-miterlimit:10"
       d="m 568.64619,14.508569 c 0.19991,-0.899584 0.69968,-1.44933 0.94956,-1.699215 0.19991,-0.199907 0.6497,-0.599722 1.34938,-0.749653 0.84961,-0.199908 1.49931,0.04998 1.64924,0.09995 0.69967,0.249884 1.09949,0.749653 1.24942,1.049514 0.34984,0.549746 0.44979,1.049515 0.44979,1.349377 0.14993,1.249422 -0.39981,2.149006 -0.49977,2.348914 -0.14993,0.249884 -0.49977,0.849607 -1.24942,1.199445 -0.19991,0.09995 -1.34938,0.6497 -2.49884,0.09995 -0.89959,-0.449792 -1.19945,-1.349376 -1.34938,-1.849145 0,-0.399815 -0.19991,-1.049515 -0.05,-1.849145 l 0,0 z"
       class="st5"
       inkscape:connector-curvature="0"
       id="path4315" />
    <path
       style="fill:#f2cd14;stroke:#231f20;stroke-width:0.24988447;stroke-miterlimit:10"
       d="m 561.6994,13.309123 7.44656,-1.549284 -1.59926,2.648776 c 1.54928,0.149931 3.04859,0.299861 4.59788,0.449792 l 0,0 c 0.05,0.09995 0.14993,0.249884 0.14993,0.449792 0,0.349838 -0.19991,0.6497 -0.24989,0.699677 l -5.64739,-1.099492 0.79963,-1.749191 -5.49746,0.14993 0,0 z"
       class="st5"
       inkscape:connector-curvature="0"
       id="path4317" />
    <path
       style="fill:#f2cd14;stroke:#231f20;stroke-width:0.24988447;stroke-miterlimit:10"
       d="m 558.50088,113.16296 c 0.94956,-0.44979 0.74966,-0.44979 1.39936,-1.19945 0.49977,-1.09949 -0.54975,-1.74919 -0.79963,-1.99907 -0.69968,-0.74965 -2.5988,-0.05 -4.74781,-0.74965 -2.79871,-1.64924 -4.34799,-2.09903 -4.89773,-2.94864 -0.54975,-0.84961 -0.6497,-1.69922 -0.69968,-2.04905 -0.19991,-1.54929 0.24988,-2.5988 1.24942,-5.297556 0.74965,-1.999075 1.44933,-4.148082 1.44933,-4.148082 -0.94956,-3.748267 -1.2994,-5.197597 -1.2994,-5.447481 l 0,0 c -0.19991,-0.349839 -5.04766,2.448867 -5.04766,2.448867 -3.69829,9.295702 -5.64739,14.243412 -5.64739,14.243412 l 0,0 c 0,0 1.34937,1.14947 1.59926,1.44933 1.54928,1.34938 3.09856,2.3989 3.74826,2.84869 0.89959,0.6497 2.09903,1.34937 4.39797,2.7987 3.04859,0.14993 6.74688,-0.05 9.2957,0.05 z"
       class="st5"
       sodipodi:nodetypes="ccccccccccccccccc"
       inkscape:connector-curvature="0"
       id="path4319" />
    <path
       style="fill:#f2cd14;stroke:#231f20;stroke-width:0.24988447;stroke-miterlimit:10"
       d="m 525.51613,44.794567 -0.14993,5.897274 c 6.14716,1.099491 12.34429,2.198983 18.49145,3.298475 0.74966,-0.549746 1.49931,-1.149469 2.19899,-1.699215 -6.34707,-1.199445 -12.64416,-2.448868 -18.99122,-3.648313 l 0.05,-4.697828 c 0,0 -1.59926,0.849607 -1.59926,0.849607 z"
       class="st5"
       inkscape:connector-curvature="0"
       id="path4321" />
    <path
       id="path3135"
       inkscape:connector-curvature="0"
       class="st20"
       d="m 532.35265,62.149969 c 0,0 2.7,-0.1 4.8,-6.2"
       style="fill:none;stroke:#000000;stroke-width:0.5" />
    <path
       style="fill:none;stroke:#231f20;stroke-width:0.2499;stroke-miterlimit:10"
       d="M 468.303,18.944736"
       class="st27"
       inkscape:connector-curvature="0"
       id="path3191_1_" />
  </g>
  <polygon
     id="polygon3193_1_"
     class="st9"
     points="327,36.3 329.1,36.5 329.3,36.3 327.4,34.5 325.8,35.7 326,36 "
     style="fill:#ffffff;stroke:#231f20;stroke-width:0.5;stroke-miterlimit:10"
     transform="translate(139.103,-17.555264)" />
  <path
     id="path3195_1_"
     inkscape:connector-curvature="0"
     class="st26"
     d="m 465.503,10.444736 c -0.1,-0.4999997 0.7,-1.2999997 0.7,-1.2999997 l 3.4,1.2999997 c 0,0 -0.1,0.4 -0.3,0.6 -0.1,0.1 -0.3,0.3 -1.2,0.3 -0.9,0.1 -2.5,-0.3 -2.6,-0.9 z"
     style="fill:#fee1c7;stroke:#231f20;stroke-width:0.2499;stroke-miterlimit:10" />
  <path
     id="path3197_1_"
     inkscape:connector-curvature="0"
     class="st28"
     d="m 467.703,10.044736 c -0.1,0.1 -0.2,0.4 -0.1,0.6 0.1,0.2 0.3,0.3 0.5,0.3 0.2,-0.1 0.4,-0.2 0.4,-0.3 0,0 0.1,-0.3 0,-0.5 -0.1,-0.1 -0.1,-0.1 -0.3,-0.1 -0.2,-0.1 -0.4,-0.1 -0.5,0 l 0,0 z"
     style="fill:#72cde0;stroke:#231f20;stroke-width:0.1249;stroke-miterlimit:10" />
  <path
     id="path3199_1_"
     inkscape:connector-curvature="0"
     class="st29"
     d="m 468.303,10.244736 c 0,-0.1 -0.1,0.1 -0.2,0.1 0,0.1 0,0.2 0.1,0.2 0,0 0.1,-0.1 0.1,-0.1 0.1,-0.1 0.1,-0.2 0,-0.2 l 0,0 z"
     style="fill:#523014;stroke:#231f20;stroke-width:0.1249;stroke-miterlimit:10" />
  <path
     id="path3201_1_"
     inkscape:connector-curvature="0"
     class="st30"
     d="m 457.403,10.344736 c 0.2,-0.8999997 0.7,-1.3999997 0.9,-1.6999997 0.2,-0.2 0.6,-0.6 1.3,-0.7 0.8,-0.2 1.5,0.1 1.6,0.1 0.7,0.2 1.1,0.7 1.2,1 0.3,0.5 0.4,0.9999997 0.4,1.2999997 0.1,1.2 -0.4,2.1 -0.5,2.3 -0.1,0.2 -0.5,0.8 -1.2,1.2 -0.2,0.1 -1.3,0.6 -2.5,0.1 -0.9,-0.4 -1.2,-1.3 -1.3,-1.8 0.1,-0.4 -0.1,-1 0.1,-1.8 l 0,0 z"
     style="fill:#f2cd14;stroke:#231f20;stroke-width:0.3748;stroke-miterlimit:10" />
  <path
     id="path3203_1_"
     inkscape:connector-curvature="0"
     class="st30"
     d="m 450.403,9.1447363 7.4,-1.5 -1.6,2.5999997 c 1.5,0.1 3,0.3 4.6,0.4 l 0,0 c 0,0.1 0.1,0.2 0.1,0.4 0,0.3 -0.2,0.6 -0.2,0.7 l -5.6,-1.1 0.8,-1.6999997 -5.5,0.2 0,0 z"
     style="fill:#f2cd14;stroke:#231f20;stroke-width:0.3748;stroke-miterlimit:10" />
  <path
     id="path3211_1_"
     inkscape:connector-curvature="0"
     class="st22"
     d="m 414.203,40.644736 -0.1,5.9 c 6.1,1.1 12.3,2.2 18.5,3.3 0.7,-0.5 1.5,-1.1 2.2,-1.7 -6.3,-1.2 -12.6,-2.4 -19,-3.6 l 0.1,-4.7 -1.7,0.8 0,0 z"
     style="fill:#f2cd14;stroke:#231f20;stroke-width:0.4998;stroke-miterlimit:10" />
  <g
     id="g3779"
     transform="translate(13.200295,-4.0499737)">
    <path
       style="fill:#f1cc19;stroke:#221f1f;stroke-width:0.5;stroke-miterlimit:10"
       inkscape:connector-curvature="0"
       id="path264"
       d="m 158.15265,95.449969 c -1.4,1.3 -2.3,2.6 -2.8,3.6 -0.6,1.000001 -1.3,2.200001 -1.5,3.900001 -0.3,1.8 -0.2,4 -0.2,4 0,0 0,0 0,0 0,0 0,0 0,0 1.1,0.3 1.9,0.6 2.7,0.9 0.5,0.2 0.7,0.3 0.7,0.3 0.9,0.5 2,1.1 2.3,2.2 0,0.1 0.2,1.1 -0.4,1.8 -0.5,0.5 -1.2,0.4 -3.2,0.2 -2.9,-0.2 -2.9,0 -3.6,-0.2 -1,-0.5 -0.8,-0.9 -2.6,-3.2 -1,-1.2 -1.3,-1.4 -3.1,-3.5 -1.3,-1.6 -1.4,-1.8 -1.4,-2 -0.2,-1.2 0.9,-1.8 3.6,-5.000001 0.9,-1.1 1.7,-2.1 2.9,-3.7 0.7,-1 1.3,-1.8 1.8,-2.3 l 4.8,-1.6 0,4.6 z"
       class="st32" />
    <path
       style="fill:#a11e22;stroke:#221f1f;stroke-width:0.5;stroke-miterlimit:10"
       inkscape:connector-curvature="0"
       id="path266"
       d="m 153.55265,92.149969 c 0.8,-1.1 1.8,-2.7 2.6,-4.7 0.9,-1.9 0.8,-2.4 1.6,-4 0.6,-1.1 1.7,-2.8 3.3,-4.4 1.1,-1.1 1.8,-1.8 3.1,-2.3 1,-0.5 1.6,-0.5 2.2,-1.2 0.2,-0.2 0.4,-0.5 0.9,-2.4 0.4,-1.2 0.4,-0.9 0.8,-3 0.5,-2.2 0.4,-3.4 0.7,-3.4 0.2,0 0.4,0.7 0.7,1.4 0.7,1.7 1.8,3.1 4.1,6 0.5,0.6 1.2,1.5 2.2,2.5 -0.2,0.6 -0.5,1.5 -1.2,2.4 -0.6,0.9 -1.3,1.7 -3,3 -2,1.6 -2.1,1.4 -3.7,2.6 -1.3,1 -2.3,2.1 -4.3,4.2 -1.3,1.3 -2.2,2.4 -2.8,3.1 -1.1,1.3 -2.1,2.4 -2.8,3.4 0,-1.5 0,-3.1 0,-4.6 -1.3,0.4 -2.9,0.9 -4.4,1.4 z"
       class="st33" />
    <path
       style="fill:#f1cc19;stroke:#221f1f;stroke-width:0.5;stroke-miterlimit:10"
       inkscape:connector-curvature="0"
       id="path268"
       d="m 183.65265,97.949969 c -0.3,1.1 -0.7,2.700001 -0.6,4.800001 0.1,2 0.1,3.4 1.1,4.3 1.4,1.4 4.1,1.3 4.6,1.3 0.9,0 1.6,-0.2 2.7,0.1 0.5,0.2 1.4,0.4 1.8,1.2 0.3,0.6 0.2,1.3 -0.1,1.8 -0.4,0.7 -1.2,1 -4.3,1.2 -2.5,0.2 -4.5,0.2 -6.9,0 -2.8,-0.2 -3.5,-0.5 -3.9,-1.2 -0.4,-0.6 -0.3,-1.2 -0.2,-2.5 0.1,-1.4 -0.1,-0.2 -0.2,-6 0,-1.4 0,-3.200001 0,-5.200001 l 3.6,-4.5 2.4,4.7 z"
       class="st32" />
    <path
       style="fill:#a11e22;stroke:#221f1f;stroke-width:0.5;stroke-miterlimit:10"
       inkscape:connector-curvature="0"
       id="path270"
       d="m 183.55265,97.549969 c 0.2,-2.2 0.4,-4 0.6,-5.2 0.4,-2.4 0.6,-3 0.8,-5.2 0.3,-2.2 0.1,-2 0.4,-4.7 0.4,-3.3 0.6,-3.6 0.5,-5 -0.1,-1.3 -0.5,-1.9 -1.2,-4 -1.1,-3 -0.9,-3.1 -1.9,-6.3 -0.7,-2.2 -1.5,-3.9 -3,-7.5 -0.2,-0.5 -0.5,-1.1 -3.3,-7.4 -0.2,-0.4 -1.3,-2.9 -1.4,-3.3 -3.2,-1.5 -6.3,-3 -9.5,-4.5 -0.5,0.2 -1.5,0.7 -2.2,1.9 -0.7,1.1 -0.8,2.1 -0.8,2.8 -0.1,1.5 0.3,2.7 0.8,4.1 0.4,1.2 1,2.3 1.1,2.5 0.3,0.5 0.6,1 1.1,2.1 0.2,0.4 0.4,0.7 0.5,1.1 0.3,0.7 0.4,1 1,2.6 0.7,2 1.3,3.5 1.4,3.8 0.7,1.7 1.6,4.1 3.5,6.6 1.1,1.4 2.3,2.7 3.5,4.1 0.6,0.7 1.2,1.2 1.6,1.6 0,0 -0.6,1.9 -1,3.1 -0.4,1.4 -0.7,2.7 -0.7,4.4 0,1.3 0.3,2.4 0.9,4.7 0.6,2.2 0.9,2.6 1.2,4.2 0.2,1.4 0.3,2.5 0.2,3.3 1.2,-1.4 2.4,-2.7 3.6,-4.1 0.7,1.5 1.5,2.9 2.3,4.3 z"
       class="st33" />
    <path
       style="fill:#a11e22;stroke:#221f1f;stroke-width:0.5;stroke-miterlimit:10"
       inkscape:connector-curvature="0"
       id="path272"
       d="m 188.25265,49.949969 c -0.6,0.8 -1.2,1.6 -1.9,2.6 -0.6,1 -1.2,1.9 -1.7,2.8 -1.7,4 -3,7 -3.3,7.8 0,0 -0.1,0.1 -0.1,0.1 -0.5,0.1 -1.5,-3.2 -3.3,-7.5 -1.5,-3.5 -3.1,-6.6 -2.9,-6.7 0,0 0,0 0,0 4.5,0.3 8.9,0.6 13.2,0.9 z"
       class="st33" />
    <path
       style="fill:#a21d21;stroke:#231f20;stroke-width:0.4998;stroke-miterlimit:10"
       d="m 166.50265,43.744706 c 0.3,-0.2 0.5,-0.3 0.5,-0.3 0.7,-0.5 1.7,-1.1 3.6,-2.7 3.1,-2.5 4.6,-3.8 5.7,-5.1 1.7,-2.1 1.1,-2.3 2.7,-4.3 2.1,-2.7 4.7,-4.1 7.2,-5.5 2,-1.1 3.6,-1.7 5.9,-2.6 1.4,-0.5 3.4,-1.3 6,-2 1.1,-0.3 1.8,-0.4 5.9,-1.3 0.1,-0.6 0.3,-1.5 0.4,-2.6 0.3,-2.2 0.1,-2.4 0.4,-3.5 0.4,-2 1.3,-3.4 1.8,-4.2000001 0.7,-1.1 1.2,-1.9 2.2,-2.7 1.4,-1.1 2.8,-1.4 3.5,-1.5 0.9,-0.2 2.5,-0.5 4.5,0.1 0.5,0.2 2.4,0.8 3.7,2.7 1,1.5 1.1,3.0000001 1.2,3.5000001 0.1,0.8 -0.1,1 0,2.9 0,0.2 0.1,0.9 0.1,1.9 0,0.1 0,0.7 0,0.7 l -2.5,-0.1 -1.4,1 c 0,0 -0.8,-0.6 -1.7,-1 -0.5,-0.2 -1,-0.3 -1.4,-0.2 -0.3,0.1 -0.5,0.3 -0.8,0.7 -0.6,0.8 -0.9,1.3 -1.2,2 -0.2,0.6 -0.3,1.4 -0.5,2.8 -0.2,1.8 -0.1,2.1 0,2.4 0.3,0.6 1.1,1.2 1.5,1.3 0,0 0.1,0 0.1,0.1 0,0.1 -0.5,0 -0.8,0.1 -0.5,0.2 -0.6,0.8 -0.7,1.3 -0.2,0.9 -0.5,1.7 -0.7,2.6 -0.2,1.1 -0.5,3.1 -1.2,4.8 -0.4,1.1 -0.9,1.9 -1.2,2.4 -1.5,2.5 -3.3,4 -4.9,5.2 -0.5,0.4 -2.8,2.2 -6.4,3.9 -1.1,0.5 -1.4,0.6 -2.3,0.9 -0.8,0.3 -1.3,0.5 -2.2,0.8 -1.9,0.8 -2.9,1 -4.9,1.8 -1.8,0.7 -1.7,1 -1.8,1 -0.4,0.2 -0.5,0.3 -0.8,0.4 -0.7,0.2 -1.2,0.1 -1.8,0.1 -0.8,-0.1 -1.6,-0.1 -2.4,-0.2 -5.1,-0.7 -5.9,-0.4 -7.5,-1.2 -0.2,-0.1 -0.9,-0.5 -2.1,-1.1 -1,-0.5 -1.5,-0.8 -1.8,-0.9 -3.2,-1.8 -2.7,-1.9 -3.9,-2.4 -0.2,-0.1 -0.8,-0.4 -1.2,-1 -0.1,-0.1 -0.1,-0.2 -0.1,-0.3 0.1,-0.1 0.3,-0.2 0.4,-0.3 0.5,-0.2 0.7,-0.3 0.9,-0.4 z"
       class="st23"
       inkscape:connector-curvature="0"
       id="path3181_3_" />
    <path
       style="fill:#ffffff;stroke:#231f20;stroke-width:0.4998;stroke-miterlimit:10"
       d="m 200.20265,37.044706 c 0.1,-0.5 0.6,-2 2.2,-3.1 0.2,-0.1 1.9,-1.2 3.9,-0.8 0.6,0.1 1.4,0.3 1.8,0.9 0.8,1.1 0.1,2.8 -0.2,3.5 -0.5,1.3 -1.4,2.1 -1.8,2.4 -0.7,0.6 -1.6,1.3 -2.8,1.4 -1,0.1 -2.4,-0.3 -3.1,-1.4 -0.6,-1 -0.3,-2.1 0,-2.9 l 0,0 z"
       class="st24"
       inkscape:connector-curvature="0"
       id="path3183_3_" />
    <polygon
       transform="translate(123.50265,-13.155294)"
       style="fill:#f2cd14;stroke:#231f20;stroke-width:0.5;stroke-miterlimit:10"
       points="81.7,50.7 83,50.8 77.1,56.4 81.1,51.5 79.8,51.2 81.7,49.4 79.8,49 84.8,45.1 82.2,48.4 83.6,48.6 "
       class="st5"
       id="polygon3185_3_" />
    <path
       style="fill:none;stroke:#231f20;stroke-width:0.4998;stroke-miterlimit:10"
       d="m 212.30265,24.644706 c -0.6,-0.6 -1.3,-1.4 -1.9,-2.4 -0.7,-1.1 -1.2,-2.2 -1.5,-3"
       class="st25"
       inkscape:connector-curvature="0"
       id="path3187_3_" />
    <path
       style="fill:#fee1c7;stroke:#231f20;stroke-width:0.2499;stroke-miterlimit:10"
       d="m 214.10265,26.044706 c 1.2,0.8 1,0.8 1.4,1 0.3,0.1 1.3,0.5 2.2,0.1 0.4,-0.2 0.6,-0.8 1.2,-2.1 0.3,-0.8 0.4,-1.1 0.2,-1.4 -0.2,-0.4 -0.7,-0.5 -0.9,-0.6 -0.4,-0.1 -0.6,-0.1 -0.9,-0.1 -0.8,0.1 -1.8,-0.2 -1.8,-0.5 0,-0.1 0.1,-0.1 0.6,-0.5 0.7,-0.6 0.8,-0.7 1.1,-0.7 0.1,0 0.1,0.1 0.5,0.4 0.4,0.4 0.6,0.5 0.7,0.7 0.5,0.5 0.6,0.7 0.8,0.7 0.3,0 0.5,-0.3 0.5,-0.3 0.2,-0.2 0.1,-0.5 0.1,-1 0,-0.5 0,-0.9 0.2,-1.2 0.1,-0.1 0.3,-0.6 0.8,-0.6 0.3,-0.1 0.3,0.1 0.6,0.1 0.3,-0.1 0.4,-0.4 0.5,-0.6 0.1,-0.3 0.1,-0.6 0.1,-0.8 -0.1,-0.3 -0.1,-0.9 -0.5,-1.2 -0.1,-0.1 -0.2,-0.1 -0.6,-0.1 -0.5,-0.1 -0.7,-0.1 -1,-0.1 -0.1,0 -0.3,0.1 -0.8,0.4 -0.2,0.1 -0.6,0.3 -1,0.6 -0.6,-0.5 -1.2,-0.8 -1.6,-0.9 -0.6,-0.2 -1,-0.4 -1.4,-0.3 -0.1,0.1 -0.4,0.1 -1,1 -0.3,0.5 -0.8,1.1 -1.1,2.1 -0.1,0.3 -0.2,0.9 -0.4,2.1 -0.1,1 -0.2,1.4 -0.1,1.9 0.1,0.3 0.1,0.7 0.3,1.1 0.1,0.1 0.4,0.2 1.3,0.8 l 0,0 z"
       class="st26"
       inkscape:connector-curvature="0"
       id="path3189_3_" />
    <path
       style="fill:none;stroke:#231f20;stroke-width:0.2499;stroke-miterlimit:10"
       d="M 219.00265,23.144706"
       class="st27"
       inkscape:connector-curvature="0"
       id="path3191_3_" />
    <polygon
       transform="translate(123.50265,-13.155294)"
       style="fill:#ffffff;stroke:#231f20;stroke-width:0.5;stroke-miterlimit:10"
       points="95.4,36.3 95.5,36 93.7,34.3 92,35.5 92.3,35.8 93.3,36 "
       class="st9"
       id="polygon3193_3_" />
    <path
       style="fill:#fee1c7;stroke:#231f20;stroke-width:0.2499;stroke-miterlimit:10"
       d="m 216.10265,14.544706 c -0.1,-0.5 0.7,-1.3 0.7,-1.3 l 3.4,1.3 c 0,0 -0.1,0.4 -0.3,0.6 -0.1,0.1 -0.3,0.3 -1.2,0.3 -0.9,0.1 -2.5,-0.2 -2.6,-0.9 z"
       class="st26"
       inkscape:connector-curvature="0"
       id="path3195_3_" />
    <path
       style="fill:#72cde0;stroke:#231f20;stroke-width:0.1249;stroke-miterlimit:10"
       d="m 218.40265,14.144706 c -0.1,0.1 -0.2,0.4 -0.1,0.6 0.1,0.2 0.3,0.3 0.5,0.3 0.2,-0.1 0.4,-0.2 0.4,-0.3 0,0 0.1,-0.3 0,-0.5 -0.1,-0.1 -0.1,-0.1 -0.3,-0.1 -0.3,-0.1 -0.4,-0.1 -0.5,0 l 0,0 z"
       class="st28"
       inkscape:connector-curvature="0"
       id="path3197_3_" />
    <path
       style="fill:#523014;stroke:#231f20;stroke-width:0.1249;stroke-miterlimit:10"
       d="m 218.90265,14.344706 c -0.1,-0.1 -0.1,0.1 -0.2,0.1 -0.1,0.1 0,0.2 0.1,0.2 0.1,0 0.1,-0.1 0.1,-0.1 0.1,0 0.1,-0.1 0,-0.2 l 0,0 z"
       class="st29"
       inkscape:connector-curvature="0"
       id="path3199_3_" />
    <path
       style="fill:#f2cd14;stroke:#231f20;stroke-width:0.3748;stroke-miterlimit:10"
       d="m 208.00265,14.444706 c 0.2,-0.9 0.7,-1.4 0.9,-1.7 0.2,-0.2 0.6,-0.6 1.3,-0.7 0.8,-0.2 1.5,0.1 1.6,0.1 0.7,0.2 1.1,0.7 1.2,1 0.3,0.5 0.4,1 0.4,1.3 0.1,1.2 -0.4,2.1 -0.5,2.3 -0.1,0.2 -0.5,0.8 -1.2,1.2 -0.2,0.1 -1.3,0.6 -2.5,0.1 -0.9,-0.4 -1.2,-1.3 -1.3,-1.8 0.2,-0.3 0,-1 0.1,-1.8 l 0,0 z"
       class="st30"
       inkscape:connector-curvature="0"
       id="path3201_3_" />
    <path
       style="fill:#f2cd14;stroke:#231f20;stroke-width:0.3748;stroke-miterlimit:10"
       d="m 201.10265,13.244706 7.4,-1.5 -1.6,2.6 c 1.5,0.1 3,0.3 4.6,0.4 l 0,0 c 0.1,0.1 0.1,0.2 0.1,0.4 0,0.3 -0.2,0.6 -0.2,0.7 l -5.6,-1 0.8,-1.7 -5.5,0.1 0,0 z"
       class="st30"
       inkscape:connector-curvature="0"
       id="path3203_3_" />
    <path
       style="fill:#f2cd14;stroke:#231f20;stroke-width:0.4998;stroke-miterlimit:10"
       d="m 164.90265,44.744706 c 3.5,2.1 7.1,4.1 10.6,6.2 2.1,0.2 4.4,0.4 6.7,0.6 1.4,0.1 2.7,0.1 4,0.2 0.1,-0.1 0.2,-0.2 0.3,-0.3 0.4,-0.3 0.8,-0.7 1.3,-1 -1.7,-0.1 -3.5,-0.3 -5.2,-0.4 -2.2,-0.2 -4.4,-0.3 -6.5,-0.5 -3.2,-1.9 -6.4,-3.7 -9.6,-5.6 -0.5,0.2 -1.1,0.5 -1.6,0.8 z"
       class="st22"
       inkscape:connector-curvature="0"
       id="path3211_3_" />
  </g>
  <path
     class="st32"
     d="m 614.953,106.05 c 0.1,0.4 -0.1,0.7 -0.4,1.4 -0.2,0.5 -0.4,0.7 -0.5,0.9 -0.4,0.4 -1,0.4 -2.3,0.4 -1.7,0 -2.5,-0.1 -2.9,-0.2 -0.8,-0.3 -1.1,-0.9 -2.1,-2.3 -1.7,-2.5 -2.6,-3.8 -3.3,-4.6 -0.9,-1 -1.6,-1.800004 -2.1,-3.300004 -0.3,-0.9 -0.2,-1.4 -0.2,-1.5 0.1,-0.6 0.4,-1.3 2.1,-2.7 0.7,-0.6 1.1,-0.9 2.2,-1.7 1,-0.7 2.4,-1.8 3.5,-2.7 0.7,-0.6 1.7,-1.4 2.9,-2.6 0.9,-0.1 1.7,-0.1 2.7,-0.1 1,0 1.9,0 2.8,0 -0.1,0.9 -0.3,1.7 -0.5,2.6 -0.2,0.8 -0.3,1.6 -0.5,2.4 -0.1,0 -0.2,0.1 -0.4,0.2 -1.8,1 -2,1.3 -3.4,2.2 -1.2,0.7 -1.8,1 -2.5,1.9 -0.1,0.1 -0.1,0.2 -0.2,0.3 -0.5,1 -0.4,2 -0.3,2.9 0.1,1.000004 0.3,2.600004 1.4,3.700004 0.8,0.8 2.8,1.9 3.3,2.3 0.3,-0.1 0.6,0.1 0.7,0.5 z"
     id="path337"
     inkscape:connector-curvature="0"
     style="fill:#f1cc19;stroke:#221f1f;stroke-width:0.5;stroke-miterlimit:10" />
  <path
     class="st33"
     d="m 656.653,93.949996 c 3.3,-3.7 5.6,-6.3 7.3,-8.1 0,0 1.7,-1.9 5.2,-7.1 0.3,-0.5 1,-1.6 1.2,-3.1 0.1,-0.6 0,-1 0,-1.7 0,-1.3 0,-1.9 0.1,-4 0.2,-3 0.3,-6.1 0.3,-7.4 0.1,-3.6 0.2,-5.3 0.1,-6.8 -0.2,-2.7 -0.4,-3.4 -0.7,-6.5 -0.2,-2.8 -0.3,-5.1 -0.2,-6.6 -6.5,-0.6 -13.1,-1.2 -19.6,-1.8 -1.2,1.4 -2.5,3 -3.6,5 -0.2,0.4 -0.5,0.9 -0.7,1.3 -0.6,1.4 -0.3,1.4 -0.8,2.4 -1,1.9 -2.4,2.7 -4.1,3.9 -0.8,0.6 -3.5,2.8 -5.5,5.9 -0.5,0.8 -0.1,0.3 -2.9,5.6 -1.2,2.4 -1.3,2.5 -1.5,3 -0.4,1.1 -0.4,1.8 -1,2.4 -0.5,0.5 -1,0.4 -1.9,0.7 -0.5,0.1 -1,0.4 -2.8,1.8 -2.2,1.7 -3.7,3.2 -3.7,3.2 -1.9,1.9 -3.1,3.3 -4.3,4.7 -1.3,1.5 -3.1,3.6 -5.5,6.1 1.8,0 3.6,-0.1 5.4,-0.1 -0.2,1.6 -0.5,3.2 -0.7,4.8 2.2,-2 4,-3.7 5.5,-5 2.6,-2.4 3.7,-3.3 5,-4.3 2.4,-1.9 3.6,-2.8 4.5,-3.1 1.8,-0.6 3.3,-0.6 4.7,-2 0.6,-0.6 0.8,-1.1 1,-1.4 1.5,-2.9 4.3,-4.5 7.9,-8 3.5,-3.4 2.4,-3.2 6.2,-6.9 2.8,-2.8 3.9,-3.3 5.5,-5.5 2.1,-3 3,-6.2 2.9,-6.2 0,0 -1.2,2.1 -2,4.9 -0.3,1.1 -0.8,2.9 -0.8,5.4 0,2.4 0.5,4.2 1,6 0.5,1.8 0.7,2.2 1.7,5.1 0.6,1.8 1,3.3 1.3,4.2 0,0 -1.8,1.2 -3.1,2.3 -0.6,0.5 -2.1,1.9 -3.1,4 -0.7,1.5 -0.6,2.1 -1.3,4.6 -0.5,1.9 -1.1,3.4 -1.5,4.3 l 4.3,-1.3 0.2,5.3 z"
     id="path339"
     inkscape:connector-curvature="0"
     style="fill:#a11e22;stroke:#221f1f;stroke-width:0.5;stroke-miterlimit:10" />
  <path
     class="st32"
     d="m 656.553,93.949996 c -1.4,1.4 -2.2,2.8 -2.7,3.8 -0.8,1.4 -1.2,2.400004 -1.1,3.600004 0.2,1.3 1,2.3 1.4,2.7 0,0 3.1,0 5.3,0.5 0.1,0 0.3,0.1 0.6,0.2 0.7,0.4 1,1.3 1,2.1 0,1 -0.5,1.6 -0.7,1.8 -3,-0.2 -6,-0.3 -9,-0.5 -1.6,-1.6 -3.1,-2.7 -4.2,-3.3 -1.7,-1 -2.9,-1.3 -3.1,-2.4 -0.2,-0.6 0,-1.2 1,-2.800004 1.4,-2.3 2.7,-4 2.8,-4.1 1,-1.2 2.3,-3 3.8,-5.3 l 4.5,-1.5 c 0.1,1.8 0.3,3.5 0.4,5.2 z"
     id="path341"
     inkscape:connector-curvature="0"
     style="fill:#f1cc19;stroke:#221f1f;stroke-width:0.5;stroke-miterlimit:10" />
  <path
     id="path3181_5_"
     inkscape:connector-curvature="0"
     class="st23"
     d="m 652.003,39.644736 c 0.3,-0.2 0.5,-0.3 0.5,-0.3 0.7,-0.5 1.7,-1.1 3.6,-2.7 3.1,-2.5 4.6,-3.8 5.7,-5.1 1.7,-2.1 1.1,-2.3 2.7,-4.3 2.1,-2.7 4.7,-4.1 7.2,-5.5 2,-1.1 3.6,-1.7 5.9,-2.6 1.4,-0.5 3.4,-1.3 6,-2 1.1,-0.3 1.8,-0.4 5.9,-1.3 0.1,-0.6 0.3,-1.5 0.4,-2.6 0.3,-2.2 0.1,-2.4 0.4,-3.4999997 0.4,-2 1.3,-3.4 1.8,-4.2 0.69997,-1.1 1.19997,-1.9 2.19997,-2.7 1.4,-1.1 2.8,-1.4 3.5,-1.5 0.9,-0.2 2.5,-0.50000002 4.5,0.1 0.5,0.2 2.4,0.8 3.7,2.7 1,1.5 1.1,3 1.2,3.5 0.1,0.8 0,1 0,2.8999997 0,0.2 0.1,0.9 0.1,1.9 0,0.1 0,0.7 0,0.7 l -2.5,-0.1 -1.4,1 c 0,0 -0.8,-0.6 -1.7,-1 -0.5,-0.2 -1,-0.3 -1.4,-0.2 -0.3,0.1 -0.5,0.3 -0.8,0.7 -0.6,0.8 -0.9,1.3 -1.2,2 -0.2,0.6 -0.3,1.4 -0.5,2.8 -0.2,1.8 -0.1,2.1 0,2.4 0.3,0.6 1.1,1.2 1.5,1.3 0,0 0.1,0 0.1,0.1 0,0.1 -0.5,0 -0.8,0.1 -0.5,0.2 -0.6,0.8 -0.7,1.3 -0.2,0.9 -0.5,1.7 -0.7,2.6 -0.2,1.1 -0.5,3.1 -1.2,4.8 -0.4,1.1 -0.9,1.9 -1.2,2.4 -1.5,2.5 -3.29997,4 -4.89997,5.2 -0.5,0.4 -2.8,2.2 -6.4,3.9 -1.7,0.8 -1.4,0.4 -4.4,1.7 l 0,0 c -5.8,1.7 -8.3,4 -9.2,4.7 0,0.1 -0.3,0.3 -0.6,0.5 0,0 -14.7,-2.2 -16.4,-2.4 -0.6,-0.1 -1.2,-0.3 -1.8,-0.3 -0.2,0 -0.4,0 -0.6,-0.1 -0.3,-0.2 -0.1,-2.2 0,-3.5 0,-1.4 0.1,-2.2 0.6,-2.7 0,-0.2 0.5,-0.5 0.9,-0.7 l 0,0 z"
     style="fill:#a21d21;stroke:#231f20;stroke-width:0.4998;stroke-miterlimit:10" />
  <path
     id="path3183_5_"
     inkscape:connector-curvature="0"
     class="st24"
     d="m 685.703,32.944736 c 0.1,-0.5 0.6,-2 2.2,-3.1 0.2,-0.1 1.9,-1.2 3.9,-0.8 0.59997,0.1 1.39997,0.3 1.79997,0.9 0.8,1.1 0.1,2.8 -0.2,3.5 -0.5,1.3 -1.39997,2.1 -1.79997,2.4 -0.7,0.6 -1.6,1.3 -2.8,1.4 -1,0.1 -2.4,-0.3 -3.1,-1.4 -0.6,-1 -0.3,-2.1 0,-2.9 l 0,0 z"
     style="fill:#ffffff;stroke:#231f20;stroke-width:0.4998;stroke-miterlimit:10" />
  <polygon
     id="polygon3185_5_"
     class="st5"
     points="574.1,45.5 571.4,48.8 572.9,49 570.9,51.1 572.3,51.2 566.4,56.8 570.3,51.9 569,51.6 570.9,49.8 569,49.4 "
     style="fill:#f2cd14;stroke:#231f20;stroke-width:0.5;stroke-miterlimit:10"
     transform="translate(119.703,-17.655264)" />
  <path
     id="path3187_5_"
     inkscape:connector-curvature="0"
     class="st25"
     d="m 697.70297,20.544736 c -0.6,-0.6 -1.3,-1.4 -1.9,-2.4 -0.7,-1.1 -1.2,-2.2 -1.5,-3"
     style="fill:none;stroke:#231f20;stroke-width:0.4998;stroke-miterlimit:10" />
  <path
     id="path3189_5_"
     inkscape:connector-curvature="0"
     class="st26"
     d="m 699.60297,21.944736 c 1.2,0.8 1,0.8 1.4,1 0.3,0.1 1.3,0.5 2.2,0.1 0.4,-0.2 0.6,-0.8 1.2,-2.1 0.3,-0.8 0.4,-1.1 0.2,-1.4 -0.2,-0.4 -0.7,-0.5 -0.9,-0.6 -0.4,-0.1 -0.6,-0.1 -0.9,-0.1 -0.8,0.1 -1.8,-0.2 -1.8,-0.5 0,-0.1 0.1,-0.1 0.6,-0.5 0.7,-0.6 0.8,-0.7 1.1,-0.7 0,0 0.1,0.1 0.5,0.4 0.4,0.4 0.6,0.5 0.7,0.7 0.5,0.5 0.6,0.7 0.8,0.7 0.3,0 0.5,-0.3 0.5,-0.3 0.2,-0.2 0,-0.5 0,-1 0,-0.5 0,-0.9 0.2,-1.2 0,-0.1 0.3,-0.6 0.8,-0.6 0.3,-0.1 0.3,0.1 0.6,0.1 0.3,-0.1 0.4,-0.4 0.5,-0.6 0.1,-0.3 0.1,-0.6 0.1,-0.8 -0.1,-0.3 -0.1,-0.9 -0.5,-1.2 -0.1,-0.1 -0.2,-0.1 -0.6,-0.1 -0.5,-0.1 -0.7,-0.1 -1,-0.1 -0.1,0 -0.3,0.1 -0.8,0.4 -0.2,0.1 -0.6,0.3 -1,0.6 -0.6,-0.5 -1.2,-0.8 -1.6,-0.9 -0.6,-0.2 -1,-0.4 -1.4,-0.3 -0.1,0.1 -0.4,0.1 -1,1 -0.3,0.5 -0.8,1.1 -1.1,2.1 -0.1,0.3 -0.2,0.9 -0.4,2.1 -0.1,1 -0.2,1.4 -0.1,1.9 0,0.3 0.1,0.7 0.3,1.1 0.1,0.1 0.4,0.2 1.4,0.8 l 0,0 z"
     style="fill:#fee1c7;stroke:#231f20;stroke-width:0.2499;stroke-miterlimit:10" />
  <path
     id="path3191_5_"
     inkscape:connector-curvature="0"
     class="st27"
     d="M 704.40297,19.044736"
     style="fill:none;stroke:#231f20;stroke-width:0.2499;stroke-miterlimit:10" />
  <polygon
     id="polygon3193_5_"
     class="st9"
     points="581.3,35.9 581.5,36.2 582.5,36.4 584.6,36.7 584.8,36.4 582.9,34.7 "
     style="fill:#ffffff;stroke:#231f20;stroke-width:0.5;stroke-miterlimit:10"
     transform="translate(119.703,-17.655264)" />
  <path
     id="path3195_5_"
     inkscape:connector-curvature="0"
     class="st26"
     d="m 701.60297,10.444736 c -0.1,-0.4999997 0.7,-1.2999997 0.7,-1.2999997 l 3.4,1.2999997 c 0,0 -0.1,0.4 -0.3,0.6 0,0.1 -0.3,0.3 -1.2,0.3 -0.9,0.1 -2.5,-0.2 -2.6,-0.9 z"
     style="fill:#fee1c7;stroke:#231f20;stroke-width:0.2499;stroke-miterlimit:10" />
  <path
     id="path3197_5_"
     inkscape:connector-curvature="0"
     class="st28"
     d="m 703.80297,10.044736 c -0.1,0.1 -0.2,0.4 -0.1,0.6 0.1,0.2 0.3,0.3 0.5,0.3 0.2,-0.1 0.4,-0.2 0.4,-0.3 0,0 0.1,-0.3 0,-0.5 0,-0.1 -0.1,-0.1 -0.3,-0.1 -0.2,-0.1 -0.4,-0.1 -0.5,0 l 0,0 z"
     style="fill:#72cde0;stroke:#231f20;stroke-width:0.1249;stroke-miterlimit:10" />
  <path
     id="path3199_5_"
     inkscape:connector-curvature="0"
     class="st29"
     d="m 704.40297,10.244736 c -0.1,-0.1 -0.1,0.1 -0.2,0.1 0,0.1 0,0.2 0.1,0.2 0,0 0.1,-0.1 0.1,-0.1 0.1,0 0.1,-0.1 0,-0.2 l 0,0 z"
     style="fill:#523014;stroke:#231f20;stroke-width:0.1249;stroke-miterlimit:10" />
  <path
     id="path3201_5_"
     inkscape:connector-curvature="0"
     class="st30"
     d="m 693.50297,10.344736 c 0.2,-0.8999997 0.7,-1.3999997 0.9,-1.6999997 0.2,-0.2 0.6,-0.6 1.3,-0.7 0.8,-0.2 1.5,0.1 1.6,0.1 0.7,0.2 1.1,0.7 1.2,1 0.3,0.5 0.4,0.9999997 0.4,1.2999997 0.1,1.2 -0.4,2.1 -0.5,2.3 -0.1,0.2 -0.5,0.8 -1.2,1.2 -0.2,0.1 -1.3,0.6 -2.5,0.1 -0.9,-0.4 -1.2,-1.3 -1.3,-1.8 0.1,-0.3 -0.1,-1 0.1,-1.8 l 0,0 z"
     style="fill:#f2cd14;stroke:#231f20;stroke-width:0.3748;stroke-miterlimit:10" />
  <path
     id="path3203_5_"
     inkscape:connector-curvature="0"
     class="st30"
     d="m 686.603,9.1447363 7.39997,-1.5 -1.6,2.5999997 c 1.5,0.1 3,0.3 4.6,0.4 l 0,0 c 0,0.1 0.1,0.2 0.1,0.4 0,0.3 -0.2,0.6 -0.2,0.7 l -5.59997,-1.1 0.8,-1.6999997 -5.5,0.2 0,0 z"
     style="fill:#f2cd14;stroke:#231f20;stroke-width:0.3748;stroke-miterlimit:10" />
  <path
     id="path3211_5_"
     inkscape:connector-curvature="0"
     class="st22"
     d="m 650.403,40.644736 -0.1,5.9 c 6.1,1.1 12.3,2.2 18.5,3.3 0.7,-0.5 1.5,-1.1 2.2,-1.7 -6.3,-1.2 -12.6,-2.4 -19,-3.6 l 0,-4.7 -1.6,0.8 0,0 z"
     style="fill:#f2cd14;stroke:#231f20;stroke-width:0.4998;stroke-miterlimit:10" />
  <path
     id="path3181_6_"
     inkscape:connector-curvature="0"
     class="st23"
     d="m 769.85287,38.499996 c 0.3,-0.2 0.5,-0.3 0.5,-0.3 0.7,-0.5 1.7,-1.1 3.6,-2.7 3.1,-2.5 4.6,-3.8 5.7,-5.1 1.7,-2.1 1.1,-2.3 2.7,-4.3 2.1,-2.7 4.7,-4.1 7.2,-5.5 2,-1.1 3.6,-1.7 5.9,-2.6 1.4,-0.5 3.4,-1.3 6,-2 1.1,-0.3 1.8,-0.4 5.9,-1.3 0.1,-0.6 0.3,-1.5 0.4,-2.6 0.3,-2.1999997 0.1,-2.3999997 0.4,-3.4999997 0.4,-2 1.3,-3.4 1.8,-4.2 0.7,-1.1 1.2,-1.9 2.2,-2.7 1.4,-1.10000002 2.8,-1.40000002 3.5,-1.50000002 0.9,-0.1999999971322 2.5,-0.5 4.5,0.1 0.5,0.2 2.4,0.80000002 3.7,2.70000002 1,1.5 1.1,3 1.2,3.5 0,0.8 0,1 0,2.9 0,0.2 0,0.8999997 0,1.8999997 0,0.1 0,0.7 0,0.7 l -2.5,-0.1 -1.4,1 c 0,0 -0.8,-0.6 -1.7,-1 -0.5,-0.2 -1,-0.3 -1.4,-0.2 -0.3,0.1 -0.5,0.3 -0.8,0.7 -0.6,0.8 -0.9,1.3 -1.2,2 -0.2,0.6 -0.3,1.4 -0.5,2.8 -0.2,1.8 -0.1,2.1 0,2.4 0.3,0.6 1.1,1.2 1.5,1.3 0,0 0.1,0 0.1,0.1 0,0.1 -0.5,0 -0.8,0.1 -0.5,0.2 -0.6,0.8 -0.7,1.3 -0.2,0.9 -0.5,1.7 -0.7,2.6 -0.2,1.1 -0.5,3.1 -1.2,4.8 -0.4,1.1 -0.9,1.9 -1.2,2.4 -1.5,2.5 -3.3,4 -4.9,5.2 -0.5,0.4 -2.8,2.2 -6.4,3.9 -1.7,0.8 -1.4,0.4 -4.4,1.7 l 0,0 c -5.8,1.7 -8.3,4 -9.2,4.7 0,0.1 -0.3,0.3 -0.6,0.5 0,0 -14.7,-2.2 -16.4,-2.4 -0.6,-0.1 -1.2,-0.3 -1.8,-0.3 -0.2,0 -0.4,0 -0.6,-0.1 -0.3,-0.2 -0.1,-2.2 -0.1,-3.5 0.1,-1.4 0.1,-2.2 0.6,-2.7 0.2,-0.1 0.7,-0.4 1.1,-0.7 l 0,0 z"
     style="fill:#a21d21;stroke:#231f20;stroke-width:0.4998;stroke-miterlimit:10" />
  <g
     id="g362"
     transform="translate(12.952895,-3.2000037)">
    <g
       id="g364">
      <path
         class="st33"
         d="m 782.2,96 c 0.2,-2.3 0.4,-4.2 0.6,-5.4 0.4,-2.5 0.6,-3.1 0.9,-5.4 0.3,-2.3 0.1,-2.1 0.4,-4.8 0.4,-3.4 0.6,-3.7 0.5,-5.2 -0.1,-1.4 -0.5,-2 -1.3,-4.2 -1.1,-3.1 -0.9,-3.2 -2,-6.5 -0.8,-2.3 -1.5,-4.1 -3.1,-7.8 -0.1,-0.1 -0.1,-0.1 -0.1,-0.2 -2.3,-5.4 -1.9,-6.5 -1.7,-7 0.1,-0.3 0.4,-0.7 0.8,-1.1 -5.3,-1 -10.6,-2.1 -15.9,-3.1 0,0 0,0 0,0.1 -0.1,0.7 -0.2,1.9 0,3.6 0.2,1.7 0.7,3.1 1,3.9 0.1,0.4 0.2,0.6 1.6,3.7 1.1,2.4 1.1,2.5 1.3,2.9 0.8,2 0.9,2.7 1.3,4 0.9,2.4 2.1,4 3.5,5.9 1.2,1.6 2.4,2.9 3.7,4.2 0.6,0.7 1.2,1.2 1.6,1.7 0,0 -0.7,2 -1,3.3 -0.4,1.4 -0.8,2.8 -0.8,4.5 0,1.4 0.3,2.5 1,4.8 0.6,2.3 0.9,2.8 1.2,4.4 0.2,1.4 0.3,2.6 0.2,3.4 1.2,-1.4 2.5,-2.9 3.7,-4.3 0.9,1.6 1.7,3.1 2.6,4.6 z"
         id="path366"
         inkscape:connector-curvature="0"
         style="fill:#a11e22;stroke:#221f1f;stroke-width:0.5;stroke-miterlimit:10" />
      <path
         class="st32"
         d="m 782.3,96.4 c -0.3,1.1 -0.7,2.9 -0.6,5 0.1,2.1 0.1,3.5 1.2,4.5 1.5,1.5 4.3,1.3 4.8,1.3 1,0 1.7,-0.2 2.8,0.1 0.5,0.2 1.4,0.4 1.8,1.3 0.3,0.6 0.2,1.4 -0.1,1.9 -0.4,0.7 -1.3,1 -4.5,1.3 -2.6,0.2 -4.7,0.2 -7.2,0 -2.9,-0.3 -3.7,-0.6 -4.1,-1.2 -0.4,-0.6 -0.3,-1.3 -0.2,-2.6 0.1,-1.5 -0.1,-0.2 -0.2,-6.2 0,-1.4 0,-3.3 0,-5.4 l 3.7,-4.7 2.6,4.7 z"
         id="path368"
         inkscape:connector-curvature="0"
         style="fill:#f1cc19;stroke:#221f1f;stroke-width:0.5;stroke-miterlimit:10" />
    </g>
    <g
       id="g370">
      <path
         class="st32"
         d="m 738,93.7 c -1.4,1.4 -2.3,2.8 -2.9,3.7 -0.6,1.1 -1.3,2.3 -1.6,4 -0.3,1.8 -0.2,4.1 -0.2,4.1 0,0 0,0 0,0 0,0 0,0 0,0 1.2,0.3 2,0.6 2.8,0.9 0.5,0.2 0.7,0.3 0.7,0.3 1,0.5 2.1,1.1 2.3,2.3 0,0.1 0.2,1.2 -0.4,1.8 -0.5,0.5 -1.2,0.4 -3.3,0.2 -3.1,-0.2 -3.1,0.1 -3.7,-0.2 -1,-0.5 -0.8,-1 -2.7,-3.3 -1,-1.3 -1.4,-1.5 -3.2,-3.7 -1.4,-1.6 -1.4,-1.8 -1.4,-2 -0.2,-1.2 0.9,-1.8 3.7,-5.2 1,-1.1 1.7,-2.2 3,-3.8 0.8,-1 1.4,-1.8 1.8,-2.4 l 5,-1.6 0.1,4.9 z"
         id="path372"
         inkscape:connector-curvature="0"
         style="fill:#f1cc19;stroke:#221f1f;stroke-width:0.5;stroke-miterlimit:10" />
      <path
         class="st33"
         d="m 733.2,90.3 c 0.8,-1.2 1.8,-2.8 2.7,-4.8 0.9,-2 0.8,-2.5 1.7,-4.2 0.6,-1.2 1.7,-2.9 3.4,-4.5 1.2,-1.1 1.9,-1.8 3.2,-2.4 1,-0.5 1.7,-0.6 2.3,-1.3 0,0 0,-0.1 0.1,-0.1 0.9,-1.1 1.4,-2.3 1.5,-2.4 0.1,-0.2 0.5,-1.1 1,-3 0.5,-1.7 0.7,-3.2 0.8,-4.1 0.3,-2.1 0.3,-3.2 0.5,-5 0.1,-1.5 0.3,-3.6 0.8,-6.3 0.3,-1.6 0.6,-2.8 0.9,-3.7 0.2,-0.6 0.4,-1 0.5,-1.4 0.9,-2.1 1.4,-3.4 2.4,-4.4 0.8,-0.9 2.4,-2 3.1,-1.6 0.7,0.4 -0.4,2.1 0.5,3.3 0.6,0.8 1.6,0.7 4,1.2 1.7,0.3 3,0.7 3.9,1 -0.3,1.1 -0.8,2.7 -1.4,4.8 -1.6,5 -1.9,5.3 -2.8,8.6 -1.1,3.8 -0.9,4.3 -2,7.2 -0.8,2.3 -1.2,3.4 -2.1,4.9 -0.9,1.6 -1.7,2.5 -2.6,4.5 -0.2,0.4 -0.3,0.6 -0.5,1 -0.7,1 -1.3,1 -3.1,2.3 -0.7,0.5 -0.8,0.6 -1.5,1.1 -0.8,0.6 -1.2,0.7 -2.3,1.6 -1.4,1.1 -2.4,2.2 -4.5,4.3 -1.3,1.4 -2.3,2.5 -2.9,3.2 -1.2,1.3 -2.2,2.5 -2.9,3.5 0,-1.6 0,-3.2 0,-4.8 -1.5,0.5 -3.1,1 -4.7,1.5 z"
         id="path374"
         inkscape:connector-curvature="0"
         style="fill:#a11e22;stroke:#221f1f;stroke-width:0.5;stroke-miterlimit:10" />
    </g>
  </g>
  <path
     style="fill:#ffffff;stroke:#231f20;stroke-width:0.4998;stroke-miterlimit:10"
     d="m 803.55287,31.799996 c 0.1,-0.5 0.6,-2 2.2,-3.1 0.2,-0.1 1.9,-1.2 3.9,-0.8 0.6,0.1 1.4,0.3 1.8,0.9 0.8,1.1 0.1,2.8 -0.2,3.5 -0.5,1.3 -1.4,2.1 -1.8,2.4 -0.7,0.6 -1.6,1.3 -2.8,1.4 -1,0.1 -2.4,-0.3 -3.1,-1.4 -0.5,-1 -0.2,-2 0,-2.9 l 0,0 z"
     class="st24"
     inkscape:connector-curvature="0"
     id="path3183_6_" />
  <polygon
     style="fill:#f2cd14;stroke:#231f20;stroke-width:0.5;stroke-miterlimit:10"
     points="798.8,30 796.1,33.3 797.6,33.5 795.6,35.5 797,35.6 791,41.3 795,36.3 793.7,36.1 795.6,34.2 793.7,33.9 "
     class="st5"
     id="polygon3185_6_"
     transform="translate(12.952895,-3.2000037)" />
  <path
     style="fill:none;stroke:#231f20;stroke-width:0.4998;stroke-miterlimit:10"
     d="m 815.65287,19.399996 c -0.6,-0.6 -1.3,-1.4 -1.9,-2.4 -0.7,-1.1 -1.2,-2.2 -1.5,-3"
     class="st25"
     inkscape:connector-curvature="0"
     id="path3187_6_" />
  <path
     style="fill:#fee1c7;stroke:#231f20;stroke-width:0.2499;stroke-miterlimit:10"
     d="m 817.55287,20.899996 c 1.2,0.8 1,0.8 1.4,1 0.3,0.1 1.3,0.5 2.2,0.1 0.4,-0.2 0.6,-0.8 1.2,-2.1 0.3,-0.8 0.4,-1.1 0.2,-1.4 -0.2,-0.4 -0.7,-0.5 -0.9,-0.6 -0.4,-0.1 -0.6,-0.1 -0.9,-0.1 -0.8,0.1 -1.8,-0.2 -1.8,-0.5 0,-0.1 0.1,-0.1 0.6,-0.5 0.7,-0.6 0.8,-0.7 1.1,-0.7 0,0 0.1,0.1 0.5,0.4 0.4,0.4 0.6,0.5 0.7,0.7 0.5,0.5 0.6,0.7 0.8,0.7 0.3,0 0.5,-0.3 0.5,-0.3 0.2,-0.2 0,-0.5 0,-1 0,-0.5 0,-0.9 0.2,-1.2 0,-0.1 0.3,-0.6 0.8,-0.6 0.3,-0.1 0.3,0.1 0.6,0.1 0.3,-0.1 0.4,-0.4 0.5,-0.6 0.1,-0.3 0.1,-0.6 0.1,-0.8 0,-0.3 -0.1,-0.9 -0.5,-1.2 -0.1,-0.1 -0.2,-0.1 -0.6,-0.1 -0.5,-0.1 -0.7,-0.1 -1,-0.1 -0.1,0 -0.3,0.1 -0.8,0.4 -0.2,0.1 -0.6,0.3 -1,0.6 -0.6,-0.5 -1.2,-0.8 -1.6,-0.9 -0.6,-0.2 -1,-0.4 -1.4,-0.3 -0.1,0.1 -0.4,0.1 -1,1 -0.3,0.5 -0.8,1.1 -1.1,2.1 -0.1,0.3 -0.2,0.9 -0.4,2.1 -0.1,1 -0.2,1.4 -0.1,1.9 0,0.3 0.1,0.7 0.3,1.1 0.1,0.1 0.4,0.2 1.4,0.8 l 0,0 z"
     class="st26"
     inkscape:connector-curvature="0"
     id="path3189_6_" />
  <path
     style="fill:none;stroke:#231f20;stroke-width:0.2499;stroke-miterlimit:10"
     d="M 822.35287,17.899996"
     class="st27"
     inkscape:connector-curvature="0"
     id="path3191_6_" />
  <polygon
     style="fill:#ffffff;stroke:#231f20;stroke-width:0.5;stroke-miterlimit:10"
     points="809.4,20.9 807.6,19.1 806,20.3 806.2,20.6 807.2,20.9 809.3,21.1 "
     class="st9"
     id="polygon3193_6_"
     transform="translate(12.952895,-3.2000037)" />
  <path
     style="fill:#fee1c7;stroke:#231f20;stroke-width:0.2499;stroke-miterlimit:10"
     d="m 819.55287,9.3999963 c -0.1,-0.5 0.7,-1.3 0.7,-1.3 l 3.4,1.3 c 0,0 -0.1,0.4 -0.3,0.6 -0.1,0.1 -0.3,0.2999997 -1.2,0.2999997 -0.9,0 -2.5,-0.2 -2.6,-0.8999997 z"
     class="st26"
     inkscape:connector-curvature="0"
     id="path3195_6_" />
  <path
     style="fill:#72cde0;stroke:#231f20;stroke-width:0.1249;stroke-miterlimit:10"
     d="m 821.75287,8.9999963 c -0.1,0.1 -0.2,0.4 -0.1,0.6 0.1,0.2 0.3,0.3 0.5,0.3 0.2,-0.1 0.4,-0.2 0.4,-0.3 0,0 0.1,-0.3 0,-0.5 0,-0.1 -0.1,-0.1 -0.3,-0.1 -0.2,-0.1 -0.4,-0.1 -0.5,0 l 0,0 z"
     class="st28"
     inkscape:connector-curvature="0"
     id="path3197_6_" />
  <path
     style="fill:#523014;stroke:#231f20;stroke-width:0.1249;stroke-miterlimit:10"
     d="m 822.25287,9.1999963 c 0,-0.1 -0.1,0.1 -0.2,0.1 0,0.1 0,0.2 0,0.2 0,0 0.1,-0.1 0.1,-0.1 0.2,0 0.2,-0.1 0.1,-0.2 l 0,0 z"
     class="st29"
     inkscape:connector-curvature="0"
     id="path3199_6_" />
  <path
     style="fill:#f2cd14;stroke:#231f20;stroke-width:0.3748;stroke-miterlimit:10"
     d="m 811.45287,9.2999963 c 0.2,-0.9 0.7,-1.4 0.9,-1.7 0.2,-0.2 0.6,-0.6 1.3,-0.7 0.8,-0.2 1.5,0.1 1.6,0.1 0.7,0.2 1.1,0.7 1.2,1 0.3,0.5 0.4,1 0.4,1.3 0.1,1.1999997 -0.4,2.0999997 -0.5,2.2999997 -0.1,0.2 -0.5,0.8 -1.2,1.2 -0.2,0.1 -1.3,0.6 -2.5,0.1 -0.9,-0.4 -1.2,-1.3 -1.3,-1.8 0.1,-0.3 -0.1,-1 0.1,-1.7999997 l 0,0 z"
     class="st30"
     inkscape:connector-curvature="0"
     id="path3201_6_" />
  <path
     style="fill:#f2cd14;stroke:#231f20;stroke-width:0.3748;stroke-miterlimit:10"
     d="m 804.45287,8.0999963 7.4,-1.5 -1.6,2.6 c 1.5,0.1 3,0.3 4.6,0.4 l 0,0 c 0,0.1 0.1,0.2 0.1,0.4 0,0.2999997 -0.2,0.5999997 -0.2,0.6999997 l -5.6,-1.0999997 0.8,-1.7 -5.5,0.2 0,0 z"
     class="st30"
     inkscape:connector-curvature="0"
     id="path3203_6_" />
  <path
     style="fill:#f2cd14;stroke:#231f20;stroke-width:0.4998;stroke-miterlimit:10"
     d="m 770.85287,37.599996 -0.1,5.9 c 6.1,1.1 12.3,2.2 18.5,3.3 0.7,-0.5 1.5,-1.1 2.2,-1.7 -6.3,-1.2 -12.6,-2.4 -19,-3.6 l 0,-4.7 -1.6,0.8 0,0 z"
     class="st22"
     inkscape:connector-curvature="0"
     id="path3211_6_" />
  <path
     class="st32"
     d="m 879.65297,91.399996 c -1.4,1.3 -2.3,2.6 -2.8,3.6 -0.6,1 -1.3,2.2 -1.5,3.9 -0.3,1.800004 -0.2,4.000004 -0.2,4.000004 0,0 0,0 0,0 0,0 0,0 0,0 1.1,0.3 1.9,0.6 2.7,0.9 0.5,0.2 0.7,0.3 0.7,0.3 0.9,0.5 2,1.1 2.3,2.2 0,0.1 0.2,1.1 -0.4,1.8 -0.5,0.5 -1.2,0.4 -3.2,0.2 -2.9,-0.2 -2.9,0 -3.6,-0.2 -1,-0.5 -0.8,-0.9 -2.6,-3.2 -1,-1.2 -1.3,-1.4 -3.1,-3.5 -1.3,-1.600004 -1.4,-1.800004 -1.4,-2.000004 -0.2,-1.2 0.9,-1.8 3.6,-5 0.9,-1.1 1.7,-2.1 2.9,-3.7 0.7,-1 1.3,-1.8 1.8,-2.3 l 4.8,-1.6 0,4.6 z"
     id="path392"
     inkscape:connector-curvature="0"
     style="fill:#f1cc19;stroke:#221f1f;stroke-width:0.5;stroke-miterlimit:10" />
  <path
     class="st33"
     d="m 875.05297,88.099996 c 0.8,-1.1 1.8,-2.7 2.6,-4.7 0.9,-1.9 0.8,-2.4 1.6,-4 0.6,-1.1 1.7,-2.8 3.3,-4.4 1.1,-1.1 1.8,-1.8 3.1,-2.3 1,-0.5 1.6,-0.5 2.2,-1.2 0.2,-0.2 0.4,-0.5 0.9,-2.4 0.4,-1.2 0.4,-0.9 0.8,-3 0.5,-2.2 0.4,-3.4 0.7,-3.4 0.2,0 0.4,0.7 0.7,1.4 0.7,1.7 1.8,3.1 4.1,6 0.5,0.6 1.2,1.5 2.2,2.5 -0.2,0.6 -0.5,1.5 -1.2,2.4 -0.6,0.9 -1.3,1.7 -3,3 -2,1.6 -2.1,1.4 -3.7,2.6 -1.3,1 -2.3,2.1 -4.3,4.2 -1.3,1.3 -2.2,2.4 -2.8,3.1 -1.1,1.3 -2.1,2.4 -2.8,3.4 0,-1.5 0,-3.1 0,-4.6 -1.3,0.4 -2.9,0.9 -4.4,1.4 z"
     id="path394"
     inkscape:connector-curvature="0"
     style="fill:#a11e22;stroke:#221f1f;stroke-width:0.5;stroke-miterlimit:10" />
  <path
     class="st32"
     d="m 905.15297,93.899996 c -0.3,1.1 -0.7,2.7 -0.6,4.8 0.1,2.000004 0.1,3.400004 1.1,4.300004 1.4,1.4 4.1,1.3 4.6,1.3 0.9,0 1.6,-0.2 2.7,0.1 0.5,0.2 1.4,0.4 1.8,1.2 0.3,0.6 0.2,1.3 -0.1,1.8 -0.4,0.7 -1.2,1 -4.3,1.2 -2.5,0.2 -4.5,0.2 -6.9,0 -2.8,-0.2 -3.5,-0.5 -3.9,-1.2 -0.4,-0.6 -0.3,-1.2 -0.2,-2.5 0.1,-1.4 -0.1,-0.2 -0.2,-6.000004 0,-1.4 0,-3.2 0,-5.2 l 3.6,-4.5 2.4,4.7 z"
     id="path396"
     inkscape:connector-curvature="0"
     style="fill:#f1cc19;stroke:#221f1f;stroke-width:0.5;stroke-miterlimit:10" />
  <path
     class="st33"
     d="m 905.05297,93.499996 c 0.2,-2.2 0.4,-4 0.6,-5.2 0.4,-2.4 0.6,-3 0.8,-5.2 0.3,-2.2 0.1,-2 0.4,-4.7 0.4,-3.3 0.6,-3.6 0.5,-5 -0.1,-1.3 -0.5,-1.9 -1.2,-4 -1.1,-3 -0.9,-3.1 -1.9,-6.3 -0.7,-2.2 -1.5,-3.9 -3,-7.5 -0.2,-0.5 -0.5,-1.1 -3.3,-7.4 -0.2,-0.4 -1.3,-2.9 -1.4,-3.3 -3.2,-1.5 -6.3,-3 -9.5,-4.5 -0.5,0.2 -1.5,0.7 -2.2,1.9 -0.7,1.1 -0.8,2.1 -0.8,2.8 -0.1,1.5 0.3,2.7 0.8,4.1 0.4,1.2 1,2.3 1.1,2.5 0.3,0.5 0.6,1 1.1,2.1 0.2,0.4 0.4,0.7 0.5,1.1 0.3,0.7 0.4,1 1,2.6 0.7,2 1.3,3.5 1.4,3.8 0.7,1.7 1.6,4.1 3.5,6.6 1.1,1.4 2.3,2.7 3.5,4.1 0.6,0.7 1.2,1.2 1.6,1.6 0,0 -0.6,1.9 -1,3.1 -0.4,1.4 -0.7,2.7 -0.7,4.4 0,1.3 0.3,2.4 0.9,4.7 0.6,2.2 0.9,2.6 1.2,4.2 0.2,1.4 0.3,2.5 0.2,3.3 1.2,-1.4 2.4,-2.7 3.6,-4.1 0.7,1.4 1.5,2.9 2.3,4.3 z"
     id="path398"
     inkscape:connector-curvature="0"
     style="fill:#a11e22;stroke:#221f1f;stroke-width:0.5;stroke-miterlimit:10" />
  <path
     class="st33"
     d="m 909.75297,45.899996 c -0.6,0.8 -1.2,1.6 -1.9,2.6 -0.6,1 -1.2,1.9 -1.7,2.8 -1.7,4 -3,7 -3.3,7.8 0,0 -0.1,0.1 -0.1,0.1 -0.5,0.1 -1.5,-3.2 -3.3,-7.5 -1.5,-3.5 -3.1,-6.6 -2.9,-6.7 0,0 0,0 0,0 4.5,0.3 8.9,0.6 13.2,0.9 z"
     id="path400"
     inkscape:connector-curvature="0"
     style="fill:#a11e22;stroke:#221f1f;stroke-width:0.5;stroke-miterlimit:10" />
  <path
     id="path3181_7_"
     inkscape:connector-curvature="0"
     class="st23"
     d="m 888.00297,39.594736 c 0.3,-0.2 0.5,-0.3 0.5,-0.3 0.7,-0.5 1.7,-1.1 3.6,-2.7 3.1,-2.5 4.6,-3.8 5.7,-5.1 1.7,-2.1 1.1,-2.3 2.7,-4.3 2.1,-2.7 4.7,-4.1 7.2,-5.5 2,-1.1 3.6,-1.7 5.9,-2.6 1.4,-0.5 3.4,-1.3 6,-2 1.1,-0.3 1.8,-0.4 5.9,-1.3 0.1,-0.6 0.3,-1.5 0.4,-2.6 0.3,-2.2 0.1,-2.4 0.4,-3.4999997 0.4,-2 1.3,-3.4 1.8,-4.2 0.7,-1.1 1.2,-1.9 2.2,-2.7 1.4,-1.1 2.8,-1.4 3.5,-1.5 0.9,-0.2 2.5,-0.50000002 4.5,0.1 0.5,0.2 2.4,0.8 3.7,2.7 1,1.5 1.1,3 1.2,3.5 0,0.8 0,1 0,2.8999997 0,0.2 0,0.9 0,1.9 0,0.1 0,0.7 0,0.7 l -2.5,-0.1 -1.4,1 c 0,0 -0.8,-0.6 -1.7,-1 -0.5,-0.2 -1,-0.3 -1.4,-0.2 -0.3,0.1 -0.5,0.3 -0.8,0.7 -0.6,0.8 -0.9,1.3 -1.2,2 -0.2,0.6 -0.3,1.4 -0.5,2.8 -0.2,1.8 -0.1,2.1 0,2.4 0.3,0.6 1.1,1.2 1.5,1.3 0,0 0.1,0 0.1,0.1 0,0.1 -0.5,0 -0.8,0.1 -0.5,0.2 -0.6,0.8 -0.7,1.3 -0.2,0.9 -0.5,1.7 -0.7,2.6 -0.2,1.1 -0.5,3.1 -1.2,4.8 -0.4,1.1 -0.9,1.9 -1.2,2.4 -1.5,2.5 -3.3,4 -4.9,5.2 -0.5,0.4 -2.8,2.2 -6.4,3.9 -1.1,0.5 -1.4,0.6 -2.3,0.9 -0.8,0.3 -1.3,0.5 -2.2,0.8 -1.9,0.8 -2.9,1 -4.9,1.8 -1.8,0.7 -1.7,1 -1.8,1 -0.4,0.2 -0.5,0.3 -0.8,0.4 -0.7,0.2 -1.2,0.1 -1.8,0.1 -0.8,-0.1 -1.6,-0.1 -2.4,-0.2 -5.1,-0.7 -5.9,-0.4 -7.5,-1.2 -0.2,-0.1 -0.9,-0.5 -2.1,-1.1 -1,-0.5 -1.5,-0.8 -1.8,-0.9 -3.2,-1.8 -2.7,-1.9 -3.9,-2.4 -0.2,-0.1 -0.8,-0.4 -1.2,-1 -0.1,-0.1 -0.1,-0.2 -0.1,-0.3 0.1,-0.1 0.3,-0.2 0.4,-0.3 0.6,-0.1 0.8,-0.2 1,-0.4 z"
     style="fill:#a21d21;stroke:#231f20;stroke-width:0.4998;stroke-miterlimit:10" />
  <path
     id="path3183_7_"
     inkscape:connector-curvature="0"
     class="st24"
     d="m 921.70297,32.894736 c 0.1,-0.5 0.6,-2 2.2,-3.1 0.2,-0.1 1.9,-1.2 3.9,-0.8 0.6,0.1 1.4,0.3 1.8,0.9 0.8,1.1 0.1,2.8 -0.2,3.5 -0.5,1.3 -1.4,2.1 -1.8,2.4 -0.7,0.6 -1.6,1.3 -2.8,1.4 -1,0.1 -2.4,-0.3 -3.1,-1.4 -0.5,-1 -0.2,-2 0,-2.9 l 0,0 z"
     style="fill:#ffffff;stroke:#231f20;stroke-width:0.4998;stroke-miterlimit:10" />
  <polygon
     id="polygon3185_7_"
     class="st5"
     points="781.9,49 787,45.1 784.3,48.4 785.8,48.6 783.8,50.6 785.2,50.7 779.2,56.4 783.2,51.4 781.9,51.2 783.8,49.3 "
     style="fill:#f2cd14;stroke:#231f20;stroke-width:0.5;stroke-miterlimit:10"
     transform="translate(142.90294,-17.205264)" />
  <path
     id="path3187_7_"
     inkscape:connector-curvature="0"
     class="st25"
     d="m 933.80297,20.494736 c -0.6,-0.6 -1.3,-1.4 -1.9,-2.4 -0.7,-1.1 -1.2,-2.2 -1.5,-3"
     style="fill:none;stroke:#231f20;stroke-width:0.4998;stroke-miterlimit:10" />
  <path
     id="path3189_7_"
     inkscape:connector-curvature="0"
     class="st26"
     d="m 935.70297,21.994736 c 1.2,0.8 1,0.8 1.4,1 0.3,0.1 1.3,0.5 2.2,0.1 0.4,-0.2 0.6,-0.8 1.2,-2.1 0.3,-0.8 0.4,-1.1 0.2,-1.4 -0.2,-0.4 -0.7,-0.5 -0.9,-0.6 -0.4,-0.1 -0.6,-0.1 -0.9,-0.1 -0.8,0.1 -1.8,-0.2 -1.8,-0.5 0,-0.1 0.1,-0.1 0.6,-0.5 0.7,-0.6 0.8,-0.7 1.1,-0.7 0.1,0 0.1,0.1 0.5,0.4 0.4,0.4 0.6,0.5 0.7,0.7 0.5,0.5 0.6,0.7 0.8,0.7 0.3,0 0.5,-0.3 0.5,-0.3 0.2,-0.2 0.1,-0.5 0.1,-1 0,-0.5 0,-0.9 0.2,-1.2 0,-0.1 0.3,-0.6 0.8,-0.6 0.3,-0.1 0.3,0.1 0.6,0.1 0.3,-0.1 0.4,-0.4 0.5,-0.6 0.1,-0.3 0.1,-0.6 0.1,-0.8 0,-0.3 -0.1,-0.9 -0.5,-1.2 -0.1,-0.1 -0.2,-0.1 -0.6,-0.1 -0.5,-0.1 -0.7,-0.1 -1,-0.1 -0.1,0 -0.3,0.1 -0.8,0.4 -0.2,0.1 -0.6,0.3 -1,0.6 -0.6,-0.5 -1.2,-0.8 -1.6,-0.9 -0.6,-0.2 -1,-0.4 -1.4,-0.3 -0.1,0.1 -0.4,0.1 -1,1 -0.3,0.5 -0.8,1.1 -1.1,2.1 -0.1,0.3 -0.2,0.9 -0.4,2.1 -0.1,1 -0.2,1.4 -0.1,1.9 0,0.3 0.1,0.7 0.3,1.1 0,0.1 0.3,0.2 1.3,0.8 l 0,0 z"
     style="fill:#fee1c7;stroke:#231f20;stroke-width:0.2499;stroke-miterlimit:10" />
  <path
     id="path3191_7_"
     inkscape:connector-curvature="0"
     class="st27"
     d="M 940.50297,18.994736"
     style="fill:none;stroke:#231f20;stroke-width:0.2499;stroke-miterlimit:10" />
  <polygon
     id="polygon3193_7_"
     class="st9"
     points="797.5,36.2 797.7,36 795.8,34.2 794.2,35.4 794.4,35.7 795.4,36 "
     style="fill:#ffffff;stroke:#231f20;stroke-width:0.5;stroke-miterlimit:10"
     transform="translate(142.90294,-17.205264)" />
  <path
     id="path3195_7_"
     inkscape:connector-curvature="0"
     class="st26"
     d="m 937.70297,10.494736 c -0.1,-0.4999997 0.7,-1.2999997 0.7,-1.2999997 l 3.4,1.2999997 c 0,0 -0.1,0.4 -0.3,0.6 0,0.1 -0.3,0.3 -1.2,0.3 -0.9,0 -2.5,-0.3 -2.6,-0.9 z"
     style="fill:#fee1c7;stroke:#231f20;stroke-width:0.2499;stroke-miterlimit:10" />
  <path
     id="path3197_7_"
     inkscape:connector-curvature="0"
     class="st28"
     d="m 939.90297,10.094736 c -0.1,0.1 -0.2,0.4 -0.1,0.6 0.1,0.2 0.3,0.3 0.5,0.3 0.2,-0.1 0.4,-0.2 0.4,-0.3 0,0 0.1,-0.3 0,-0.5 -0.1,-0.1 -0.1,-0.1 -0.3,-0.1 -0.2,-0.1 -0.4,-0.1 -0.5,0 l 0,0 z"
     style="fill:#72cde0;stroke:#231f20;stroke-width:0.1249;stroke-miterlimit:10" />
  <path
     id="path3199_7_"
     inkscape:connector-curvature="0"
     class="st29"
     d="m 940.50297,10.294736 c 0,-0.1 -0.1,0.1 -0.2,0.1 0,0.1 0,0.2 0,0.2 0.1,0 0.1,-0.1 0.1,-0.1 0.2,-0.1 0.2,-0.2 0.1,-0.2 l 0,0 z"
     style="fill:#523014;stroke:#231f20;stroke-width:0.1249;stroke-miterlimit:10" />
  <path
     id="path3201_7_"
     inkscape:connector-curvature="0"
     class="st30"
     d="m 929.60297,10.394736 c 0.2,-0.8999997 0.7,-1.3999997 0.9,-1.6999997 0.2,-0.2 0.6,-0.6 1.3,-0.7 0.8,-0.2 1.5,0.1 1.6,0.1 0.7,0.2 1.1,0.7 1.2,1 0.3,0.5 0.4,0.9999997 0.4,1.2999997 0.1,1.2 -0.4,2.1 -0.5,2.3 -0.1,0.2 -0.5,0.8 -1.2,1.2 -0.2,0.1 -1.3,0.6 -2.5,0.1 -0.9,-0.4 -1.2,-1.3 -1.3,-1.8 0.1,-0.4 -0.1,-1 0.1,-1.8 l 0,0 z"
     style="fill:#f2cd14;stroke:#231f20;stroke-width:0.3748;stroke-miterlimit:10" />
  <path
     id="path3203_7_"
     inkscape:connector-curvature="0"
     class="st30"
     d="m 922.60297,9.1947363 7.4,-1.5 -1.6,2.5999997 c 1.5,0.1 3,0.3 4.6,0.4 l 0,0 c 0,0.1 0.1,0.2 0.1,0.4 0,0.3 -0.2,0.6 -0.2,0.7 l -5.6,-1.1 0.8,-1.6999997 -5.5,0.2 0,0 z"
     style="fill:#f2cd14;stroke:#231f20;stroke-width:0.3748;stroke-miterlimit:10" />
  <path
     id="path3211_7_"
     inkscape:connector-curvature="0"
     class="st22"
     d="m 886.40297,40.694736 c 3.5,2.1 7.1,4.1 10.6,6.2 2.1,0.2 4.4,0.4 6.7,0.6 1.4,0.1 2.7,0.1 4,0.2 0.1,-0.1 0.2,-0.2 0.3,-0.3 0.4,-0.3 0.8,-0.7 1.3,-1 -1.7,-0.1 -3.5,-0.3 -5.2,-0.4 -2.2,-0.2 -4.4,-0.3 -6.5,-0.5 -3.2,-1.9 -6.4,-3.7 -9.6,-5.6 -0.5,0.2 -1,0.5 -1.6,0.8 z"
     style="fill:#f2cd14;stroke:#231f20;stroke-width:0.4998;stroke-miterlimit:10" />
  <g
     id="g3809"
     transform="translate(24.399655,-3.7171322e-6)">
    <path
       style="fill:#a21d21;stroke:#231f20;stroke-width:0.4998;stroke-miterlimit:10"
       d="m 272.95265,39.8421 c 0.3,-0.2 0.5,-0.3 0.5,-0.3 0.7,-0.5 1.7,-1.1 3.6,-2.7 3.1,-2.5 4.6,-3.8 5.7,-5.1 1.7,-2.1 1.1,-2.3 2.7,-4.3 2.1,-2.7 4.7,-4.1 7.2,-5.5 2,-1.1 3.6,-1.7 5.9,-2.6 1.4,-0.5 3.4,-1.3 6,-2 1.1,-0.3 1.8,-0.4 5.9,-1.3 0.1,-0.6 0.3,-1.5 0.4,-2.6 0.3,-2.2 0.1,-2.4 0.4,-3.4999999 0.4,-2 1.3,-3.4 1.8,-4.2000001 0.7,-1.1 1.2,-1.9 2.2,-2.7 1.4,-1.1 2.8,-1.4 3.5,-1.5 0.9,-0.2 2.5,-0.5 4.5,0.1 0.5,0.2 2.4,0.8 3.7,2.7 1,1.5 1.1,3.0000001 1.2,3.5000001 0,0.8 -0.1,1 0,2.8999999 0,0.2 0,0.9 0,1.9 0,0.1 0,0.7 0,0.7 l -2.5,-0.1 -1.4,1 c 0,0 -0.8,-0.6 -1.7,-1 -0.5,-0.2 -1,-0.3 -1.4,-0.2 -0.3,0.1 -0.5,0.3 -0.8,0.7 -0.6,0.8 -0.9,1.3 -1.2,2 -0.2,0.6 -0.3,1.4 -0.5,2.8 -0.2,1.8 -0.1,2.1 0,2.4 0.3,0.6 1.1,1.2 1.5,1.3 0,0 0.1,0 0.1,0.1 0,0.1 -0.5,0 -0.8,0.1 -0.5,0.2 -0.6,0.8 -0.7,1.3 -0.2,0.9 -0.5,1.7 -0.7,2.6 -0.2,1.1 -0.5,3.1 -1.2,4.8 -0.4,1.1 -0.9,1.9 -1.2,2.4 -1.5,2.5 -3.3,4 -4.9,5.2 -0.5,0.4 -2.8,2.2 -6.4,3.9 -1.7,0.8 -1.4,0.4 -4.4,1.7 l 0,0 c -5.8,1.7 -8.3,4 -9.2,4.7 0,0.1 -0.3,0.3 -0.6,0.5 0,0 -14.7,-2.2 -16.4,-2.4 -0.6,-0.1 -1.2,-0.3 -1.8,-0.3 -0.2,0 -0.4,0 -0.6,-0.1 -0.3,-0.2 -0.1,-2.2 0,-3.5 0,-1.4 0.1,-2.2 0.6,-2.7 0.1,-0.2 0.6,-0.5 1,-0.7 l 0,0 z"
       class="st23"
       inkscape:connector-curvature="0"
       id="path3181_4_" />
    <path
       style="fill:#a11e22;stroke:#221f1f;stroke-width:0.5;stroke-miterlimit:10"
       inkscape:connector-curvature="0"
       id="path311"
       d="m 298.40792,93.886837 c 0.2,-2.3 0.4,-4.2 0.6,-5.4 0.4,-2.5 0.6,-3.1 0.9,-5.4 0.3,-2.3 0.1,-2.1 0.4,-4.8 0.4,-3.4 0.6,-3.7 0.5,-5.2 -0.1,-1.4 -0.5,-2 -1.3,-4.2 -1.1,-3.1 -0.9,-3.2 -2,-6.5 -0.8,-2.3 -1.5,-4.1 -3.1,-7.8 -0.1,-0.1 -0.1,-0.1 -0.1,-0.2 -2.3,-5.4 -1.9,-6.5 -1.7,-7 0.1,-0.3 0.4,-0.7 0.8,-1.1 -5.3,-1 -10.6,-2.1 -15.9,-3.1 0,0 0,0 0,0.1 -0.1,0.7 -0.2,1.9 0,3.6 0.2,1.7 0.7,3.1 1,3.9 0.1,0.4 0.2,0.6 1.6,3.7 1.1,2.4 1.1,2.5 1.3,2.9 0.8,2 0.9,2.7 1.3,4 0.9,2.4 2.1,4 3.5,5.9 1.2,1.6 2.4,2.9 3.7,4.2 0.6,0.7 1.2,1.2 1.6,1.7 0,0 -0.7,2 -1,3.3 -0.4,1.4 -0.8,2.8 -0.8,4.5 0,1.4 0.3,2.5 1,4.8 0.6,2.3 0.9,2.8 1.2,4.4 0.2,1.4 0.3,2.6 0.2,3.4 1.2,-1.4 2.5,-2.9 3.7,-4.3 0.9,1.6 1.8,3.1 2.6,4.6 z"
       class="st33" />
    <path
       style="fill:#f1cc19;stroke:#221f1f;stroke-width:0.5;stroke-miterlimit:10"
       inkscape:connector-curvature="0"
       id="path313"
       d="m 298.50792,93.199995 c -0.3,1.1 -0.7,2.9 -0.6,5 0.1,2.100005 0.1,3.500005 1.2,4.500005 1.5,1.5 4.3,1.3 4.8,1.3 1,0 1.7,-0.2 2.8,0.1 0.5,0.2 1.4,0.4 1.8,1.3 0.3,0.6 0.2,1.4 -0.1,1.9 -0.4,0.7 -1.3,1 -4.5,1.3 -2.6,0.2 -4.7,0.2 -7.2,0 -2.9,-0.3 -3.7,-0.6 -4.1,-1.2 -0.4,-0.6 -0.3,-1.3 -0.2,-2.6 0.1,-1.5 -0.1,-0.2 -0.2,-6.200005 0,-1.4 0,-3.3 0,-5.4 l 3.7,-4.7 2.6,4.7 z"
       class="st32" />
    <path
       style="fill:#a11e22;stroke:#221f1f;stroke-width:0.5;stroke-miterlimit:10"
       inkscape:connector-curvature="0"
       id="path319"
       d="m 249.40792,88.186837 c 0.8,-1.2 1.8,-2.8 2.7,-4.8 0.9,-2 0.8,-2.5 1.7,-4.2 0.6,-1.2 1.7,-2.9 3.4,-4.5 1.2,-1.1 1.9,-1.8 3.2,-2.4 1,-0.5 1.7,-0.6 2.3,-1.3 0,0 0,-0.1 0.1,-0.1 0.9,-1.1 1.4,-2.3 1.5,-2.4 0.1,-0.2 0.5,-1.1 1,-3 0.5,-1.7 0.7,-3.2 0.8,-4.1 0.3,-2.1 0.3,-3.2 0.5,-5 0.1,-1.5 0.3,-3.6 0.8,-6.3 0.3,-1.6 0.6,-2.8 0.9,-3.7 0.2,-0.6 0.4,-1 0.5,-1.4 0.9,-2.1 1.4,-3.4 2.4,-4.4 0.8,-0.9 2.4,-2 3.1,-1.6 0.7,0.4 -0.4,2.1 0.5,3.3 0.6,0.8 1.6,0.7 4,1.2 1.7,0.3 3,0.7 3.9,1 -0.3,1.1 -0.8,2.7 -1.4,4.8 -1.6,5 -1.9,5.3 -2.8,8.6 -1.1,3.8 -0.9,4.3 -2,7.2 -0.8,2.3 -1.2,3.4 -2.1,4.9 -0.9,1.6 -1.7,2.5 -2.6,4.5 -0.2,0.4 -0.3,0.6 -0.5,1 -0.7,1 -1.3,1 -3.1,2.3 -0.7,0.5 -0.8,0.6 -1.5,1.1 -0.8,0.6 -1.2,0.7 -2.3,1.6 -1.4,1.1 -2.4,2.2 -4.5,4.3 -1.3,1.4 -2.3,2.5 -2.9,3.2 -1.2,1.3 -2.2,2.5 -2.9,3.5 0,-1.6 0,-3.2 0,-4.8 -1.5,0.5 -3.1,1 -4.7,1.5 z"
       class="st33" />
    <path
       id="path3183_4_"
       inkscape:connector-curvature="0"
       class="st24"
       d="m 306.65265,33.1421 c 0.1,-0.5 0.6,-2 2.2,-3.1 0.2,-0.1 1.9,-1.2 3.9,-0.8 0.6,0.1 1.4,0.3 1.8,0.9 0.8,1.1 0.1,2.8 -0.2,3.5 -0.5,1.3 -1.4,2.1 -1.8,2.4 -0.7,0.6 -1.6,1.3 -2.8,1.4 -1,0.1 -2.4,-0.3 -3.1,-1.4 -0.5,-1 -0.2,-2.1 0,-2.9 l 0,0 z"
       style="fill:#ffffff;stroke:#231f20;stroke-width:0.4998;stroke-miterlimit:10" />
    <polygon
       transform="translate(8.4526534,-2.0579)"
       id="polygon3185_4_"
       class="st5"
       points="303.2,35.7 304.6,35.8 298.6,41.4 302.6,36.5 301.3,36.2 303.2,34.4 301.3,34 306.4,30.1 303.7,33.4 305.2,33.6 "
       style="fill:#f2cd14;stroke:#231f20;stroke-width:0.5;stroke-miterlimit:10" />
    <path
       id="path3187_4_"
       inkscape:connector-curvature="0"
       class="st25"
       d="m 318.75265,20.7421 c -0.6,-0.6 -1.3,-1.4 -1.9,-2.4 -0.7,-1.1 -1.2,-2.2 -1.5,-3"
       style="fill:none;stroke:#231f20;stroke-width:0.4998;stroke-miterlimit:10" />
    <path
       id="path3189_4_"
       inkscape:connector-curvature="0"
       class="st26"
       d="m 320.65265,22.1421 c 1.2,0.8 1,0.8 1.4,1 0.3,0.1 1.3,0.5 2.2,0.1 0.4,-0.2 0.6,-0.8 1.2,-2.1 0.3,-0.8 0.4,-1.1 0.2,-1.4 -0.2,-0.4 -0.7,-0.5 -0.9,-0.6 -0.4,-0.1 -0.6,-0.1 -0.9,-0.1 -0.8,0.1 -1.8,-0.2 -1.8,-0.5 0,-0.1 0.1,-0.1 0.6,-0.5 0.7,-0.6 0.8,-0.7 1.1,-0.7 0.1,0 0.1,0.1 0.5,0.4 0.4,0.4 0.6,0.5 0.7,0.7 0.5,0.5 0.6,0.7 0.8,0.7 0.3,0 0.5,-0.3 0.5,-0.3 0.2,-0.2 0.1,-0.5 0.1,-1 0,-0.5 0,-0.9 0.2,-1.2 0.1,-0.1 0.3,-0.6 0.8,-0.6 0.3,-0.1 0.3,0.1 0.6,0.1 0.3,-0.1 0.4,-0.4 0.5,-0.6 0.1,-0.3 0.1,-0.6 0.1,-0.8 0,-0.3 -0.1,-0.9 -0.5,-1.2 -0.1,-0.1 -0.2,-0.1 -0.6,-0.1 -0.5,-0.1 -0.7,-0.1 -1,-0.1 -0.1,0 -0.3,0.1 -0.8,0.4 -0.2,0.1 -0.6,0.3 -1,0.6 -0.6,-0.5 -1.2,-0.8 -1.6,-0.9 -0.6,-0.2 -1,-0.4 -1.4,-0.3 -0.1,0.1 -0.4,0.1 -1,1 -0.3,0.5 -0.8,1.1 -1.1,2.1 -0.1,0.3 -0.2,0.9 -0.4,2.1 -0.1,1 -0.2,1.4 -0.1,1.9 0.1,0.3 0.1,0.7 0.3,1.1 0,0.1 0.3,0.2 1.3,0.8 l 0,0 z"
       style="fill:#fee1c7;stroke:#231f20;stroke-width:0.2499;stroke-miterlimit:10" />
    <path
       id="path3191_4_"
       inkscape:connector-curvature="0"
       class="st27"
       d="M 325.45265,19.2421"
       style="fill:none;stroke:#231f20;stroke-width:0.2499;stroke-miterlimit:10" />
    <polygon
       transform="translate(8.4526534,-2.0579)"
       id="polygon3193_4_"
       class="st9"
       points="316.9,21.3 317.1,21 315.2,19.3 313.6,20.5 313.8,20.8 314.8,21 "
       style="fill:#ffffff;stroke:#231f20;stroke-width:0.5;stroke-miterlimit:10" />
    <path
       id="path3195_4_"
       inkscape:connector-curvature="0"
       class="st26"
       d="m 322.65265,10.6421 c -0.1,-0.5 0.7,-1.2999999 0.7,-1.2999999 l 3.4,1.2999999 c 0,0 -0.1,0.4 -0.3,0.6 0,0.1 -0.3,0.3 -1.2,0.3 -0.9,0.1 -2.5,-0.2 -2.6,-0.9 z"
       style="fill:#fee1c7;stroke:#231f20;stroke-width:0.2499;stroke-miterlimit:10" />
    <path
       id="path3197_4_"
       inkscape:connector-curvature="0"
       class="st28"
       d="m 324.85265,10.2421 c -0.1,0.1 -0.2,0.4 -0.1,0.6 0.1,0.2 0.3,0.3 0.5,0.3 0.2,-0.1 0.4,-0.2 0.4,-0.3 0,0 0.1,-0.3 0,-0.5 -0.1,-0.1 -0.1,-0.1 -0.3,-0.1 -0.2,-0.1 -0.4,-0.1 -0.5,0 l 0,0 z"
       style="fill:#72cde0;stroke:#231f20;stroke-width:0.1249;stroke-miterlimit:10" />
    <path
       id="path3199_4_"
       inkscape:connector-curvature="0"
       class="st29"
       d="m 325.45265,10.4421 c 0,-0.1 -0.1,0.1 -0.2,0.1 -0.1,0.1 0,0.2 0,0.2 0.1,0 0.1,-0.1 0.1,-0.1 0.2,0 0.2,-0.1 0.1,-0.2 l 0,0 z"
       style="fill:#523014;stroke:#231f20;stroke-width:0.1249;stroke-miterlimit:10" />
    <path
       id="path3201_4_"
       inkscape:connector-curvature="0"
       class="st30"
       d="m 314.55265,10.5421 c 0.2,-0.8999999 0.7,-1.3999999 0.9,-1.6999999 0.2,-0.2 0.6,-0.6 1.3,-0.7 0.8,-0.2 1.5,0.1 1.6,0.1 0.7,0.2 1.1,0.7 1.2,1 0.3,0.5 0.4,0.9999999 0.4,1.2999999 0.1,1.2 -0.4,2.1 -0.5,2.3 -0.1,0.2 -0.5,0.8 -1.2,1.2 -0.2,0.1 -1.3,0.6 -2.5,0.1 -0.9,-0.4 -1.2,-1.3 -1.3,-1.8 0.1,-0.3 -0.1,-1 0.1,-1.8 l 0,0 z"
       style="fill:#f2cd14;stroke:#231f20;stroke-width:0.3748;stroke-miterlimit:10" />
    <path
       id="path3203_4_"
       inkscape:connector-curvature="0"
       class="st30"
       d="m 307.55265,9.3421001 7.4,-1.5 -1.6,2.5999999 c 1.5,0.1 3,0.3 4.6,0.4 l 0,0 c 0.1,0.1 0.1,0.2 0.1,0.4 0,0.3 -0.2,0.6 -0.2,0.7 l -5.6,-1.1 0.8,-1.6999999 -5.5,0.2 0,0 z"
       style="fill:#f2cd14;stroke:#231f20;stroke-width:0.3748;stroke-miterlimit:10" />
    <path
       id="path3211_4_"
       inkscape:connector-curvature="0"
       class="st22"
       d="m 273.95265,38.9421 -0.1,5.9 c 6.1,1.1 12.3,2.2 18.5,3.3 0.7,-0.5 1.5,-1.1 2.2,-1.7 -6.3,-1.2 -12.6,-2.4 -19,-3.6 l 0.1,-4.7 -1.7,0.8 0,0 z"
       style="fill:#f2cd14;stroke:#231f20;stroke-width:0.4998;stroke-miterlimit:10" />
    <path
       style="fill:#f1cc19;stroke:#221f1f;stroke-width:0.5;stroke-miterlimit:10"
       inkscape:connector-curvature="0"
       id="path317"
       d="m 254.98424,90.499995 c -1.4,1.4 -2.3,2.8 -2.9,3.7 -0.6,1.1 -1.3,2.3 -1.6,4 -0.3,1.8 -0.2,4.100005 -0.2,4.100005 0,0 0,0 0,0 0,0 0,0 0,0 1.2,0.3 2,0.6 2.8,0.9 0.5,0.2 0.7,0.3 0.7,0.3 1,0.5 2.1,1.1 2.3,2.3 0,0.1 0.2,1.2 -0.4,1.8 -0.5,0.5 -1.2,0.4 -3.3,0.2 -3.1,-0.2 -3.1,0.1 -3.7,-0.2 -1,-0.5 -0.8,-1 -2.7,-3.3 -1,-1.3 -1.4,-1.5 -3.2,-3.7 -1.4,-1.600005 -1.4,-1.800005 -1.4,-2.000005 -0.2,-1.2 0.9,-1.8 3.7,-5.2 1,-1.1 1.7,-2.2 3,-3.8 0.8,-1 1.4,-1.8 1.8,-2.4 l 5,-1.6 0.1,4.9 z"
       class="st32" />
  </g>
  <g
     transform="matrix(1,0,0,0.99671239,997.05359,-1.9838253)"
     id="g3078">
    <path
       style="fill:#f2cd1a;stroke:#231f20;stroke-width:0.4998;stroke-miterlimit:10"
       inkscape:connector-curvature="0"
       id="path9"
       d="m 20.5,80.1 c -1.6,0.9 -2.9,1.5 -3.8,2 -1.6,0.8 -2.3,1.1 -3.6,1.9 -1,0.6 -2.4,1.5 -3.1,2.4 -0.1,0.1 -0.8,1 -0.8,1 2.2,4.4 4.3,8.8 6.5,13.2 0.2,0.1 0.6,0.3 1.1,0.3 0.8,0 1.3,-0.6 1.4,-0.7 0.5,-0.5 0.6,-1.1 0.6,-1.4 0,-0.3 0,-0.6 0,-0.8 -0.1,-0.6 -0.2,-1 -0.3,-1.1 -0.5,-1.1 -0.7,-2.4 -1.1,-3.5 -0.8,-2.4 -0.9,-2.8 -0.7,-3.3 0.2,-1 0.9,-1.6 1.2,-1.9 0.4,-0.4 0.9,-0.7 2.9,-1.5 0.7,-0.3 1.7,-0.6 2.8,-1 l 3.1,-4.9 -6.2,-0.7 z"
       class="st0" />
    <path
       style="fill:#f2cd1a;stroke:#231f20;stroke-width:0.4998;stroke-miterlimit:10"
       inkscape:connector-curvature="0"
       id="path11"
       d="m 18.8,98.1 c 0,0.3 0,0.6 0,0.8 -0.1,0.5 -0.5,1.5 -1.1,1.8 -0.1,0 -0.2,0.1 -0.2,0.2 0,0.1 0.1,0.2 0.2,0.4 0.1,0.1 0.1,0.3 0.2,0.4 0.1,0.2 1.6,2.7 5.3,9.2 1.9,0.1 3.8,0.1 5.6,0.2 0.4,-0.8 0.8,-1.6 1.2,-2.4 -0.2,-0.4 -0.6,-0.8 -1.1,-0.9 -0.5,-0.1 -0.7,0.1 -1.3,0.1 -0.9,-0.1 -1.5,-0.8 -1.7,-0.9 -0.2,-0.2 -0.3,-0.4 -0.8,-1.8 -0.4,-1.1 -0.5,-1.6 -0.7,-2.4 -0.2,-0.8 -0.7,-3.2 -0.5,-2.4 0,0 1.7,-1.7 5,-5 l 1,-5 -6.2,2 c -1.6,1.8 -3.3,3.8 -4.9,5.7 z"
       class="st0" />
    <path
       style="fill:#a31e23;stroke:#231f20;stroke-width:0.5;stroke-miterlimit:10"
       inkscape:connector-curvature="0"
       id="path13"
       d="m 28.9,95.2 c 1.8,-1.5 3.3,-2.7 4.3,-3.5 5.3,-4.4 4.5,-4.1 6.1,-5.2 0.6,-0.5 1.9,-1.3 3.3,-2.8 1.1,-1.2 1.5,-1.8 1.7,-2.5 0.4,-1.3 0.2,-2.5 0.1,-2.9 -0.2,-0.7 -0.6,-1.8 -0.7,-1.7 0,0 0,0 0,0 -0.4,0.8 -3.5,2.3 -3.5,2.3 -2.5,1.2 -3.7,1.8 -4.9,2.3 -1.9,0.7 -2.9,1.1 -3.1,1.1 -0.4,0.1 -0.9,0.2 -1.6,0.6 -0.3,0.1 -0.9,0.5 -1.4,1.1 -0.6,0.7 -0.8,1.3 -1.3,2.3 -0.5,1.1 -1.2,2.3 -2.1,3.5 -0.6,0.8 -1.1,1.5 -1.7,2.2 2,-0.5 3.9,-1.1 5.9,-1.6 -0.4,1.5 -0.8,3.1 -1.1,4.8 z"
       class="st1" />
    <path
       style="fill:#a31e23;stroke:#231f20;stroke-width:0.5;stroke-miterlimit:10"
       inkscape:connector-curvature="0"
       id="path15"
       d="m 20.5,80 c 0.5,-0.7 1.2,-1.6 2.3,-2.5 1.2,-1.1 2.4,-1.8 3.6,-2.5 1.8,-1.1 2.8,-1.6 4.1,-2.1 0,0 3.4,-1.2 7,-0.9 0,0 0.1,0 0.1,0 0,0 -1.6,0 -1.9,0 -2.3,0 -4.1,0.7 -5.4,0.9 -1.1,0.2 -3.1,-0.6 -7.1,-2.1 -4.4,-1.7 -6.6,-2.6 -8.8,-4 -1.9,-1.2 -3.3,-2.4 -4,-3 -1.2,-1 -2.3,-2 -3.5,-3.5 C 6.1,59.3 5.6,58.5 4.4,56.7 3.7,55.6 3.6,55.3 3.5,55.1 2.7,53.5 2.7,52 2.7,51.2 c 0,-0.5 0,-2 0.6,-3.7 0.1,-0.3 0.2,-0.5 0.3,-0.7 0,0 0.3,-0.6 0.6,-1.3 0.4,-0.7 1.4,-2.1 3.1,-3.8 6.2,2.2 12.3,4.3 18.5,6.5 0.6,1.8 1.3,3.2 1.8,4.1 1,1.8 1.5,2 3.1,4.7 2,3.3 2.4,4.6 2.8,5.1 0,0 0,0 0,0.1 -0.1,0.1 -2.2,-1.4 -4.1,-2.4 -1.2,-0.7 -2.7,-1.3 -5.9,-2.7 -1.1,-0.4 -2.7,-1.1 -6,-2.4 0,0 -0.1,-0.1 -0.1,-0.1 0,0 3.7,1.4 7.7,3.2 2.2,1 3.3,1.4 4.6,2.1 1.5,0.9 2.6,1.6 4.3,2.8 0.5,0.3 2.9,2 5.1,3.8 0.4,0.3 1,0.8 1.9,1.5 1.1,0.7 1.1,0.7 1.7,1.2 0.5,0.4 1.4,1.1 2,2.2 0.5,0.8 0.9,1.4 0.8,2.2 0,1.2 -0.9,2 -1.7,2.8 -1.2,1.1 -2.3,1.8 -3.3,2.3 -2.8,1.5 -5.1,2.4 -5.6,2.6 -2.8,1.1 -3.4,1.2 -5.9,2.1 -2.3,0.9 -4.2,1.7 -5.3,2.3 1,-1.6 2,-3.2 3,-4.8 -2.1,-0.4 -4.1,-0.6 -6.2,-0.9 z"
       class="st1" />
    <path
       style="fill:#a31e23;stroke:#231f20;stroke-width:0.4998;stroke-miterlimit:10"
       inkscape:connector-curvature="0"
       d="m 8.55,40.794737 c 0.3,-0.2 0.5,-0.3 0.5,-0.3 0.7,-0.5 1.7,-1.1 3.6,-2.7 3.1,-2.5 4.6,-3.8 5.7,-5.1 1.7,-2.1 1.1,-2.3 2.7,-4.3 2.1,-2.7 4.7,-4.1 7.2,-5.5 2,-1.1 3.6,-1.7 5.9,-2.6 1.4,-0.5 3.4,-1.3 6,-2 1.1,-0.3 1.8,-0.4 5.9,-1.3 0.1,-0.6 0.3,-1.5 0.4,-2.6 0.3,-2.2 0.1,-2.4 0.4,-3.5 0.4,-2 1.3,-3.4 1.8,-4.2 0.7,-1.1 1.2,-1.9 2.2,-2.7 1.4,-1.1 2.8,-1.4 3.5,-1.5 0.9,-0.2 2.5,-0.5 4.5,0.1 0.5,0.2 2.4,0.8 3.7,2.7 1,1.5 1.1,3 1.2,3.5 0.1,0.8 -0.1,1 0,2.9 0,0.2 0.1,0.9 0.1,1.9 0,0.1 0,0.7 0,0.7 l -2.5,-0.1 -1.4,1 c 0,0 -0.8,-0.6 -1.7,-1 -0.5,-0.2 -1,-0.3 -1.4,-0.2 -0.3,0.1 -0.5,0.3 -0.8,0.7 -0.6,0.8 -0.9,1.3 -1.2,2 -0.2,0.6 -0.3,1.4 -0.5,2.8 -0.2,1.8 -0.1,2.1 0,2.4 0.3,0.6 1.1,1.2 1.5,1.3 0,0 0.1,0 0.1,0.1 0,0.1 -0.5,0 -0.8,0.1 -0.5,0.2 -0.6,0.8 -0.7,1.3 -0.2,0.9 -0.5,1.7 -0.7,2.6 -0.2,1.1 -0.5,3.1 -1.2,4.8 -0.4,1.1 -0.9,1.9 -1.2,2.4 -1.5,2.5 -3.3,4 -4.9,5.2 -0.5,0.4 -2.8,2.2 -6.4,3.9 -1.7,0.8 -1.4,0.4 -4.4,1.7 l 0,0 c -5.8,1.7 -8.3,4 -9.2,4.7 0,0.1 -0.3,0.3 -0.6,0.5 0,0 -14.7,-2.2 -16.4,-2.4 -0.6,-0.1 -1.2,-0.3 -1.8,-0.3 -0.2,0 -0.4,0 -0.6,-0.1 -0.3,-0.2 -0.1,-2.2 0,-3.5 0,-1.4 0.1,-2.2 0.6,-2.7 0,-0.1 0.5,-0.4 0.9,-0.7 l 0,0 z"
       class="st2"
       connector-curvature="0"
       id="path3181_2_" />
    <path
       style="fill:#ffffff;stroke:#231f20;stroke-width:0.4998;stroke-miterlimit:10"
       inkscape:connector-curvature="0"
       d="m 42.25,34.094737 c 0.1,-0.5 0.6,-2 2.2,-3.1 0.2,-0.1 1.9,-1.2 3.9,-0.8 0.6,0.1 1.4,0.3 1.8,0.9 0.8,1.1 0.1,2.8 -0.2,3.5 -0.5,1.3 -1.4,2.1 -1.8,2.4 -0.7,0.6 -1.6,1.3 -2.8,1.4 -1,0.1 -2.4,-0.3 -3.1,-1.4 -0.5,-1 -0.2,-2 0,-2.9 l 0,0 z"
       class="st3"
       connector-curvature="0"
       id="path3183_2_" />
    <polygon
       transform="translate(115.05,-14.905263)"
       style="fill:#f2cd1a;stroke:#231f20;stroke-width:0.5;stroke-miterlimit:10"
       points="-67.3,47.3 -65.8,47.5 -67.8,49.5 -66.4,49.6 -72.4,55.3 -68.4,50.3 -69.7,50.1 -67.8,48.2 -69.7,47.9 -64.6,44 "
       class="st4"
       id="polygon3185_2_" />
    <path
       style="fill:none;stroke:#231f20;stroke-width:0.4998;stroke-miterlimit:10"
       inkscape:connector-curvature="0"
       d="m 54.35,21.694737 c -0.6,-0.6 -1.3,-1.4 -1.9,-2.4 -0.7,-1.1 -1.2,-2.2 -1.5,-3"
       class="st5"
       connector-curvature="0"
       id="path3187_2_" />
    <path
       style="fill:#fee1c7;stroke:#231f20;stroke-width:0.2499;stroke-miterlimit:10"
       inkscape:connector-curvature="0"
       d="m 56.25,23.194737 c 1.2,0.8 1,0.8 1.4,1 0.3,0.1 1.3,0.5 2.2,0.1 0.4,-0.2 0.6,-0.8 1.2,-2.1 0.3,-0.8 0.4,-1.1 0.2,-1.4 -0.2,-0.4 -0.7,-0.5 -0.9,-0.6 -0.4,-0.1 -0.6,-0.1 -0.9,-0.1 -0.8,0.1 -1.8,-0.2 -1.8,-0.5 0,-0.1 0.1,-0.1 0.6,-0.5 0.7,-0.6 0.8,-0.7 1.1,-0.7 0.1,0 0.1,0.1 0.5,0.4 0.4,0.2 0.6,0.4 0.8,0.5 0.5,0.5 0.6,0.7 0.8,0.7 0.3,0 0.5,-0.3 0.5,-0.3 0.2,-0.2 0.1,-0.5 0.1,-1 0,-0.5 0,-0.9 0.2,-1.2 0,-0.2 0.3,-0.7 0.8,-0.7 0.3,-0.1 0.3,0.1 0.6,0.1 0.3,-0.1 0.4,-0.4 0.5,-0.6 0.1,-0.3 0.1,-0.6 0.1,-0.8 -0.1,-0.3 -0.1,-0.9 -0.5,-1.2 -0.1,-0.1 -0.2,-0.1 -0.6,-0.1 -0.5,-0.1 -0.7,-0.1 -1,-0.1 -0.1,0 -0.3,0.1 -0.8,0.4 -0.2,0.1 -0.6,0.3 -1,0.6 -0.6,-0.5 -1.2,-0.8 -1.6,-0.9 -0.6,-0.2 -1,-0.4 -1.4,-0.3 -0.1,0.1 -0.4,0.1 -1,1 -0.7,0.4 -1.1,1 -1.5,2 -0.1,0.3 -0.2,0.9 -0.4,2.1 -0.1,1 -0.2,1.4 -0.1,1.9 0.1,0.3 0.1,0.7 0.3,1.1 0.3,0.5 0.6,0.6 1.6,1.2 l 0,0 z"
       class="st6"
       connector-curvature="0"
       id="path3189_2_" />
    <path
       style="fill:none;stroke:#231f20;stroke-width:0.2499;stroke-miterlimit:10"
       inkscape:connector-curvature="0"
       d="M 61.05,20.194737"
       class="st7"
       connector-curvature="0"
       id="path3191_2_" />
    <polygon
       transform="translate(115.05,-14.905263)"
       style="fill:#ffffff;stroke:#231f20;stroke-width:0.5;stroke-miterlimit:10"
       points="-57.2,34.6 -56.2,34.9 -54.1,35.1 -53.9,34.9 -55.8,33.1 -57.4,34.3 "
       class="st8"
       id="polygon3193_2_" />
    <path
       style="fill:#fee1c7;stroke:#231f20;stroke-width:0.2499;stroke-miterlimit:10"
       inkscape:connector-curvature="0"
       d="m 58.25,11.694737 c -0.1,-0.5 0.7,-1.3 0.7,-1.3 l 3.4,1.3 c 0,0 -0.1,0.4 -0.3,0.6 -0.1,0.1 -0.3,0.3 -1.2,0.3 -0.9,0.1 -2.5,-0.3 -2.6,-0.9 z"
       class="st6"
       connector-curvature="0"
       id="path3195_2_" />
    <path
       style="fill:#73cee0;stroke:#231f20;stroke-width:0.1249;stroke-miterlimit:10"
       inkscape:connector-curvature="0"
       d="m 60.45,11.294737 c -0.1,0.1 -0.2,0.4 -0.1,0.6 0.1,0.2 0.3,0.3 0.5,0.3 0.2,-0.1 0.4,-0.2 0.4,-0.3 0,0 0.1,-0.3 0,-0.5 0,-0.1 -0.1,-0.1 -0.3,-0.1 -0.2,-0.1 -0.4,-0.1 -0.5,0 l 0,0 z"
       class="st9"
       connector-curvature="0"
       id="path3197_2_" />
    <path
       style="fill:#523117;stroke:#231f20;stroke-width:0.1249;stroke-miterlimit:10"
       inkscape:connector-curvature="0"
       d="m 61.05,11.494737 c -0.1,-0.1 -0.1,0.1 -0.2,0.1 -0.1,0.1 0,0.2 0.1,0.2 0.1,0 0.1,-0.1 0.1,-0.1 0.1,-0.1 0.1,-0.2 0,-0.2 l 0,0 z"
       class="st10"
       connector-curvature="0"
       id="path3199_2_" />
    <path
       style="fill:#f2cd1a;stroke:#231f20;stroke-width:0.3748;stroke-miterlimit:10"
       inkscape:connector-curvature="0"
       d="m 50.15,11.594737 c 0.2,-0.9 0.7,-1.4 0.9,-1.7 0.2,-0.2 0.6,-0.6 1.3,-0.7 0.8,-0.2 1.5,0.1 1.6,0.1 0.7,0.2 1.1,0.7 1.2,1 0.3,0.5 0.4,1 0.4,1.3 0.1,1.2 -0.4,2.1 -0.5,2.3 -0.1,0.2 -0.5,0.8 -1.2,1.2 0,0.2 -1.2,0.7 -2.3,0.2 -0.9,-0.4 -1.2,-1.3 -1.3,-1.8 -0.1,-0.5 -0.3,-1.1 -0.1,-1.9 l 0,0 z"
       class="st11"
       connector-curvature="0"
       id="path3201_2_" />
    <path
       style="fill:#f2cd1a;stroke:#231f20;stroke-width:0.3748;stroke-miterlimit:10"
       inkscape:connector-curvature="0"
       d="m 43.15,10.394737 7.4,-1.5 -1.6,2.6 c 1.5,0.1 3,0.3 4.6,0.4 l 0,0 c 0.1,0.1 0.1,0.2 0.1,0.4 0,0.3 -0.2,0.6 -0.2,0.7 l -5.6,-1.1 0.8,-1.7 -5.5,0.2 0,0 z"
       class="st11"
       connector-curvature="0"
       id="path3203_2_" />
    <path
       style="fill:#f2cd1a;stroke:#231f20;stroke-width:0.4998;stroke-miterlimit:10"
       inkscape:connector-curvature="0"
       d="m 6.95,41.894737 -0.1,5.9 c 6.1,1.1 12.3,2.2 18.5,3.3 0.7,-0.5 1.5,-1.1 2.2,-1.7 -6.3,-1.2 -12.6,-2.4 -19,-3.6 v -4.7 l -1.6,0.8 0,0 z"
       class="st0"
       connector-curvature="0"
       id="path3211_2_" />
  </g>
</svg>
