<?xml version="1.0" encoding="UTF-8" standalone="no"?>
<!-- Created with Inkscape (http://www.inkscape.org/) -->

<svg
   xmlns:dc="http://purl.org/dc/elements/1.1/"
   xmlns:cc="http://creativecommons.org/ns#"
   xmlns:rdf="http://www.w3.org/1999/02/22-rdf-syntax-ns#"
   xmlns:svg="http://www.w3.org/2000/svg"
   xmlns="http://www.w3.org/2000/svg"
   xmlns:sodipodi="http://sodipodi.sourceforge.net/DTD/sodipodi-0.dtd"
   xmlns:inkscape="http://www.inkscape.org/namespaces/inkscape"
   id="svg2"
   version="1.1"
   inkscape:version="0.48.3.1 r9886"
   width="60"
   height="30"
   sodipodi:docname="flash.png">
  <metadata
     id="metadata8">
    <rdf:RDF>
      <cc:Work
         rdf:about="">
        <dc:format>image/svg+xml</dc:format>
        <dc:type
           rdf:resource="http://purl.org/dc/dcmitype/StillImage" />
        <dc:title></dc:title>
      </cc:Work>
    </rdf:RDF>
  </metadata>
  <defs
     id="defs6" />
  <sodipodi:namedview
     pagecolor="#ffffff"
     bordercolor="#666666"
     borderopacity="1"
     objecttolerance="10"
     gridtolerance="10"
     guidetolerance="10"
     inkscape:pageopacity="0"
     inkscape:pageshadow="2"
     inkscape:window-width="1304"
     inkscape:window-height="745"
     id="namedview4"
     showgrid="false"
     inkscape:zoom="6.3333333"
     inkscape:cx="29.994541"
     inkscape:cy="15.017144"
     inkscape:window-x="54"
     inkscape:window-y="-8"
     inkscape:window-maximized="1"
     inkscape:current-layer="svg2" />
  <g
     transform="matrix(0.98563748,0,0,0.98563748,-554.85363,66.408503)"
     id="g3315">
    <path
       id="path3256"
       d="m 616.77126,-65.776921 c -1.95941,-0.349893 -3.88382,-0.594818 -5.86071,-0.997195 -1.48705,-0.297409 -2.02938,-0.384883 -2.92161,-0.349893 -0.9797,0.05248 -2.11685,0.297409 -3.06156,0.507345 -0.9797,0.192441 -1.03219,0.297409 -1.43457,0.297409 -1.13715,0.03499 -1.46955,-0.297409 -2.65918,-0.454861 -0.94471,-0.139957 -1.03219,0.05248 -2.86912,0.104968 -0.9797,0.05248 -1.38208,0 -2.9566,-0.05248 -3.00908,-0.104968 -4.60109,-0.139958 -6.5255,0 -1.9769,0.157452 -2.9566,0.244925 -3.79634,0.647302 -1.38208,0.682291 -2.16934,1.679486 -3.25401,3.149037 -2.46674,3.358972 -3.70886,5.038459 -4.14623,5.738245 -2.67668,4.093747 -3.11405,5.335867 -5.19591,8.239979 -0.3324,0.437366 -2.11685,2.921607 -2.11685,2.921607 -1.24212,0.192441 -1.627,0.297409 -1.627,0.297409 -0.24493,0.03499 -0.83975,0.192441 -1.53953,0.542334 -1.08467,0.48985 -1.67949,1.172141 -2.90411,2.466746 -0.19245,0.244925 -0.54234,0.542334 -0.64731,1.084668 -0.0525,0.192441 -0.13995,0.629807 0.15746,0.9797 0.2974,0.402377 0.78725,0.244925 0.92721,0.594818 0.15745,0.349893 -0.19244,0.594818 -0.0525,0.839743 0.15745,0.244925 0.59482,-0.05248 0.94471,0.192441 0.34989,0.244926 0.10497,0.594818 0.43737,0.892227 0.2974,0.244925 0.6473,0.104968 0.94471,0.402377 0.15745,0.192442 0.10496,0.297409 0.19244,0.437367 0.24492,0.244925 0.75227,0.05248 1.53953,-0.244925 0.78726,-0.29741 1.38207,-0.542335 1.76696,-0.734776 1.04967,-0.454861 1.18963,-0.507344 1.83693,-0.787259 0.73478,-0.349893 1.13716,-0.559829 1.38208,-0.75227 0.59482,-0.542334 0.6473,-1.189636 0.83974,-2.064369 0,0 0.29741,-1.137152 1.22463,-2.97409 0.59482,-1.084668 1.18964,-1.627002 3.16653,-3.254004 4.60109,-3.953792 4.2512,-3.656382 4.60109,-3.953792 2.11686,-1.627002 3.88382,-2.659186 5.37086,-4.041263 0.10497,-0.104968 1.43456,-1.382078 1.43456,-1.382078 0,0 1.73197,0.542335 2.65919,0.839744 0,0 1.88942,0.594818 3.9013,1.084668 1.34709,0.349893 3.56891,0.892227 6.36806,1.137152 1.04968,0.08747 4.54861,0.384882 8.93976,-0.157452 2.76415,-0.332398 2.32679,-0.594818 5.33587,-0.9797 2.02938,-0.244925 2.81664,-0.192442 3.65638,-0.892227 1.43456,-1.137152 1.52203,-3.114048 1.57452,-4.041264 0.0525,-0.944711 0.19244,-3.061564 -1.13715,-4.356168 -0.62981,-0.297409 -1.03219,-0.332398 -4.49612,-0.927216 z"
       style="fill:#a21d21;fill-opacity:1;fill-rule:nonzero;stroke:#231f20;stroke-width:0.48985013px;stroke-linecap:butt;stroke-linejoin:miter;stroke-miterlimit:4;stroke-opacity:1;stroke-dasharray:none"
       inkscape:connector-curvature="0" />
    <path
       id="path3258"
       d="m 563.70998,-42.036683 c 0,0 0.43737,-0.139956 1.3296,-0.734775 0.9797,-0.594818 0.9797,-1.539529 1.627,-1.539529 0.0525,0 0.29741,0 0.43737,0.157452 0.0525,0.05248 0.10496,0.192441 0.0525,0.48985 -0.10497,0.489851 -0.38488,0.839743 -0.43737,0.892227 -0.48985,0.48985 -1.97689,2.02938 -2.08186,1.924412 -0.0875,-0.104968 1.38208,-1.24212 2.46675,-2.116853 0.20993,-0.157452 0.59481,-0.454861 0.99719,-0.402377 0.19244,0.05248 0.48985,0.192442 0.54234,0.437367 0.0875,0.297409 -0.19245,0.647301 -0.3499,0.839743 -0.40237,0.402377 -2.32679,2.624197 -2.46674,2.466745 -0.10497,-0.08747 1.57452,-1.661992 2.71167,-2.309293 0.29741,-0.157452 0.69978,-0.349894 0.89222,-0.192442 0.13996,0.08747 0.13996,0.332399 0.13996,0.384882 0.0525,1.137153 -2.30929,3.114048 -2.25681,3.219016 0,0 0.3324,-0.157452 0.87473,-0.594818 1.24212,-1.084668 1.34709,-1.836938 2.27431,-2.326788 0.34989,-0.192441 1.03218,-0.437367 1.24212,-0.244925 0.43737,0.542334 -2.13435,3.498929 -2.13435,3.498929 l 0,0 c 0,0 -1.08467,0.75227 -2.25681,0.997195 -0.20993,0.05248 -0.40237,0.08747 -0.59482,0 -0.24492,-0.157452 -0.20993,-0.454861 -0.45486,-0.647302 -0.24492,-0.192441 -0.38488,-0.05248 -0.68229,-0.244925 -0.40238,-0.244925 -0.24492,-0.647302 -0.59482,-0.892227 -0.34989,-0.244925 -0.73477,-0.05248 -0.89222,-0.244925 -0.0875,-0.192441 0.24492,-0.437366 0.15745,-0.734775 -0.10497,-0.297409 -0.54234,-0.209936 -0.89223,-0.542334 -0.34989,-0.402377 -0.40238,-1.049679 -0.10497,-1.347088 0.19244,-0.08747 0.3499,-0.139958 0.45486,-0.192442 z"
       style="fill:none;stroke:#231f20;stroke-width:0.24492507px;stroke-linecap:butt;stroke-linejoin:miter;stroke-miterlimit:4;stroke-opacity:1;stroke-dasharray:none"
       inkscape:connector-curvature="0" />
    <path
       id="path3260"
       d="m 573.76941,-42.334091 c -0.83975,0.647302 -1.57452,0.944711 -2.06437,1.084668 -0.9972,0.297409 -1.78446,0.349893 -1.78446,0.349893 -0.48985,0.05248 -1.03218,0 -1.627,0.349893 -0.43736,0.244925 -0.43736,0.384882 -0.43736,0.437366 0,0.209936 0.33239,0.402377 0.87473,0.647302 1.18963,0.542334 1.78445,0.787259 2.02938,0.787259 0.78726,0 1.38208,-0.437366 1.97689,-0.839743 0.3499,-0.244925 0.48985,-0.349893 0.69979,-0.647302 0.0875,-0.139957 0.13996,-0.244925 0.48985,-1.522034 0.13996,-0.594819 0.19244,-0.699786 0.29741,-0.892228 0.0525,-0.05248 0.0875,-0.139956 0.0525,-0.192441 0,0 -0.26242,0.244925 -0.50734,0.437367 z"
       style="fill:#a21d21;fill-opacity:1;fill-rule:nonzero;stroke:#231f20;stroke-width:0.48985013px;stroke-linecap:butt;stroke-linejoin:miter;stroke-miterlimit:4;stroke-opacity:1;stroke-dasharray:none"
       inkscape:connector-curvature="0" />
    <path
       id="path3262"
       d="m 581.02969,-62.277991 2.51923,5.930686 4.74105,0.384882 c 0.48985,-0.437366 1.03218,-0.927216 1.53952,-1.382077 -1.67948,-0.139958 -3.35897,-0.332399 -5.00346,-0.489851 -0.73478,-2.169336 -1.46956,-4.286189 -2.16934,-6.47302 l -1.627,2.02938 z"
       style="fill:#f2cd14;fill-opacity:1;fill-rule:nonzero;stroke:#231f20;stroke-width:0.48985013px;stroke-linecap:butt;stroke-linejoin:miter;stroke-miterlimit:4;stroke-opacity:1;stroke-dasharray:none"
       inkscape:connector-curvature="0" />
  </g>
</svg>
