<?xml version="1.0" encoding="UTF-8" standalone="no"?>
<!-- Created with Inkscape (http://www.inkscape.org/) -->

<svg
   xmlns:dc="http://purl.org/dc/elements/1.1/"
   xmlns:cc="http://creativecommons.org/ns#"
   xmlns:rdf="http://www.w3.org/1999/02/22-rdf-syntax-ns#"
   xmlns:svg="http://www.w3.org/2000/svg"
   xmlns="http://www.w3.org/2000/svg"
   xmlns:sodipodi="http://sodipodi.sourceforge.net/DTD/sodipodi-0.dtd"
   xmlns:inkscape="http://www.inkscape.org/namespaces/inkscape"
   id="svg2"
   version="1.1"
   inkscape:version="0.48.3.1 r9886"
   width="60"
   height="33"
   sodipodi:docname="Новый точечный рисунок.png">
  <metadata
     id="metadata8">
    <rdf:RDF>
      <cc:Work
         rdf:about="">
        <dc:format>image/svg+xml</dc:format>
        <dc:type
           rdf:resource="http://purl.org/dc/dcmitype/StillImage" />
        <dc:title></dc:title>
      </cc:Work>
    </rdf:RDF>
  </metadata>
  <defs
     id="defs6" />
  <sodipodi:namedview
     pagecolor="#ffffff"
     bordercolor="#666666"
     borderopacity="1"
     objecttolerance="10"
     gridtolerance="10"
     guidetolerance="10"
     inkscape:pageopacity="0"
     inkscape:pageshadow="2"
     inkscape:window-width="640"
     inkscape:window-height="480"
     id="namedview4"
     showgrid="false"
     inkscape:zoom="6.3333333"
     inkscape:cx="30"
     inkscape:cy="16.5"
     inkscape:window-x="276"
     inkscape:window-y="19"
     inkscape:window-maximized="0"
     inkscape:current-layer="svg2" />
  <g
     transform="translate(-679.89041,67.376195)"
     id="g3311">
    <path
       id="path3264"
       d="m 682.95351,-55.472573 c 1.27711,1.836938 2.46674,3.061564 3.35897,3.953791 3.46394,3.551413 5.17842,5.335868 6.22809,6.123127 0.9797,0.734775 0.3324,0.139957 5.82572,3.446446 4.23371,2.571713 6.36806,3.866317 7.15532,4.601092 0.78726,0.78726 1.76695,1.27711 2.6067,1.976896 0.50734,0.384882 1.08467,0.839743 1.73197,0.734775 0.48984,-0.104968 0.78726,-0.437366 0.94471,-0.647302 0.83974,-0.9797 2.16934,-1.46955 3.20152,-2.22182 3.9013,-2.764155 3.55141,-2.606703 4.68856,-3.358973 1.88943,-1.277109 1.78446,-1.032184 4.40865,-2.711671 2.36178,-1.522034 3.55142,-2.309293 4.5836,-3.149036 1.92441,-1.627003 2.11686,-2.221821 3.6039,-2.869123 0.94471,-0.402377 1.57452,-0.437366 2.65919,-1.137152 0.94471,-0.594818 1.53953,-1.189636 2.02938,-1.627003 1.627,-1.627002 1.92441,-2.71167 2.71167,-3.254004 0.0525,-0.05248 0.29741,-0.209936 0.34989,-0.507345 0.0525,-0.244925 -0.0525,-0.542334 -0.19244,-0.734775 -0.29741,-0.297409 -0.83974,-0.297409 -0.83974,-0.297409 0,0 -1.78446,2.274304 -1.73198,2.326788 0.0525,0.05248 1.3296,-1.836938 1.87193,-2.676681 0.10497,-0.08747 0.29741,-0.489851 0.24493,-0.979701 0,-0.157451 -0.035,-0.437366 -0.24493,-0.594818 -0.24492,-0.192441 -0.59481,-0.139957 -0.83974,-0.05248 -0.24493,0.157451 -0.3324,0.45486 -0.38488,0.542334 -0.40238,1.24212 -1.67949,2.869122 -1.62701,2.921606 0.035,0.05248 0.87474,-2.02938 1.76696,-3.603898 0.0525,-0.104968 0.24493,-0.454861 0.15746,-0.787259 -0.0525,-0.297409 -0.29741,-0.594818 -0.6473,-0.699786 -0.24493,-0.05248 -0.59482,-0.05248 -0.78726,0.157452 -0.15746,0.139957 -0.10497,0.332398 -0.10497,0.384882 0,0.944711 -1.62701,3.219015 -1.57452,3.254005 0,0 2.2743,-3.061564 1.57452,-3.796339 -0.0875,-0.104968 -0.34989,-0.297409 -0.68229,-0.384882 -0.15746,-0.05248 -0.45486,-0.157452 -0.75227,-0.104968 -0.0875,0 -0.3324,0.05248 -0.62981,0.192441 -0.29741,0.192441 -0.45486,0.402377 -0.6473,0.647302 -0.10497,0.192441 -0.24493,0.437366 -0.43737,0.892227 -0.26242,0.542334 -0.29741,0.682292 -0.26242,0.839743 0,0.139957 0.10497,0.437366 0.10497,0.437366 0,0 0.29741,-0.139957 0.45486,-0.244925 0.0875,-0.05248 0.19244,-0.157451 0.62981,-1.189636 0,0 0.10497,-0.244925 0.29741,-0.594818 0.0525,-0.03499 0.0525,-0.139957 0.0525,-0.139957 0,0 -0.78726,1.137152 -1.24212,2.659187 -0.0875,0.349893 -0.13996,0.699786 -0.43736,1.049679 -0.0525,0.08747 -0.64731,0.839743 -1.18964,0.682291 -0.24493,-0.05248 -0.43737,-0.244925 -0.43737,-0.437366 0,-0.157452 0.13996,-0.244925 0.34989,-0.454861 0.0875,-0.08747 0.73478,-0.682291 0.73478,-1.329594 0,-0.05248 0,-0.437366 -0.19244,-0.542334 -0.15745,-0.05248 -0.29741,0.05248 -0.40238,0.104968 -0.43736,0.244925 -0.89223,0.437366 -1.32959,0.734775 -0.78726,0.48985 -0.89223,0.542335 -1.08467,0.734776 -0.15745,0.157452 -0.29741,0.349893 -0.45486,0.647302 -0.19244,0.402377 -0.19244,0.699786 -0.19244,1.189636 -0.0525,0.9797 -0.0525,1.469551 -0.24493,1.871928 -0.19244,0.402376 -0.54233,0.699785 -1.03218,0.9797 -1.59201,0.892227 -3.35897,0.997195 -4.05876,1.049679 -1.57452,0.139957 -2.65918,0.48985 -4.77604,1.172141 0,0 -5.68576,1.784454 -9.39462,5.440836 l 0,0 c -0.0875,0.05248 -1.52204,-1.679486 -2.85163,-3.254004 -0.75227,-0.839744 -1.92441,-2.221821 -3.35897,-3.76135 -0.10497,-0.104968 -1.13716,-1.137152 -3.11405,-3.254005 0,0 -1.67949,-1.784454 -3.00908,-3.603898 -0.15745,-0.192441 -0.45486,-0.647302 -0.78726,-1.294604 -0.29741,-0.577323 -0.45486,-1.032184 -0.50734,-1.224625 -0.0875,-0.349893 -0.13996,-0.594818 -0.19245,-0.787259 -0.29741,-1.592013 -1.627,-2.571714 -2.57171,-3.358973 -0.48985,-0.402377 -2.36178,-1.784454 -5.07345,-1.73197 -0.6473,0 -3.21901,0.104968 -5.14342,2.116852 -0.43737,0.454861 -1.73198,1.784455 -1.67949,3.603898 0,0.892227 0.40237,1.644497 1.18963,3.114048 0.64731,1.434561 1.3296,2.379272 1.62701,2.816638 z"
       style="fill:#a21d21;fill-opacity:1;fill-rule:nonzero;stroke:#231f20;stroke-width:0.48985013px;stroke-linecap:butt;stroke-linejoin:miter;stroke-miterlimit:4;stroke-opacity:1;stroke-dasharray:none"
       inkscape:connector-curvature="0" />
    <path
       id="path3266"
       d="m 709.21298,-45.448139 5.98317,3.306489 -0.89223,4.251199 1.83694,-1.24212 0.73477,-3.691371 c -2.11685,-1.189636 -4.30369,-2.379272 -6.42054,-3.568908 -0.40237,0.297409 -0.78725,0.594818 -1.24211,0.944711 z"
       style="fill:#f2cd14;fill-opacity:1;fill-rule:nonzero;stroke:#231f20;stroke-width:0.48985013px;stroke-linecap:butt;stroke-linejoin:miter;stroke-miterlimit:4;stroke-opacity:1;stroke-dasharray:none"
       inkscape:connector-curvature="0" />
  </g>
</svg>
