<?xml version="1.0" encoding="UTF-8" standalone="no"?>
<!-- Created with Inkscape (http://www.inkscape.org/) -->

<svg
   xmlns:dc="http://purl.org/dc/elements/1.1/"
   xmlns:cc="http://creativecommons.org/ns#"
   xmlns:rdf="http://www.w3.org/1999/02/22-rdf-syntax-ns#"
   xmlns:svg="http://www.w3.org/2000/svg"
   xmlns="http://www.w3.org/2000/svg"
   xmlns:sodipodi="http://sodipodi.sourceforge.net/DTD/sodipodi-0.dtd"
   xmlns:inkscape="http://www.inkscape.org/namespaces/inkscape"
   id="svg2"
   version="1.1"
   inkscape:version="0.48.3.1 r9886"
   width="60"
   height="33"
   sodipodi:docname="right_hand.svg">
  <metadata
     id="metadata8">
    <rdf:RDF>
      <cc:Work
         rdf:about="">
        <dc:format>image/svg+xml</dc:format>
        <dc:type
           rdf:resource="http://purl.org/dc/dcmitype/StillImage" />
        <dc:title />
      </cc:Work>
    </rdf:RDF>
  </metadata>
  <defs
     id="defs6" />
  <sodipodi:namedview
     pagecolor="#ffffff"
     bordercolor="#666666"
     borderopacity="1"
     objecttolerance="10"
     gridtolerance="10"
     guidetolerance="10"
     inkscape:pageopacity="0"
     inkscape:pageshadow="2"
     inkscape:window-width="1304"
     inkscape:window-height="745"
     id="namedview4"
     showgrid="false"
     inkscape:zoom="6.3333333"
     inkscape:cx="30"
     inkscape:cy="16.5"
     inkscape:window-x="54"
     inkscape:window-y="-8"
     inkscape:window-maximized="1"
     inkscape:current-layer="svg2" />
  <g
     transform="translate(-60.329643,-41.97134)"
     id="g3249">
    <path
       class="st7"
       d="m 106.2,49.3 c 0.8,-0.7 0.6,-1.2 1.3,-1.8 0.3,-0.3 0.2,-0.1 1.3,-0.8 1,-0.6 1.3,-0.9 1.5,-0.8 0.2,0.1 0.3,0.7 0.1,1 -0.1,0.2 -0.2,0.3 -0.4,0.7 -0.1,0.1 -0.2,0.4 -0.1,0.4 0,0 0.1,0 1.3,-1.2 0.5,-0.5 0.9,-1 1.6,-1.3 0.2,-0.1 0.5,-0.2 0.6,-0.1 0.1,0.1 0.1,0.3 0.1,0.4 -0.1,0.6 -0.6,0.9 -1.1,1.4 -0.8,0.7 -1.2,1.3 -1.2,1.3 0,0 0.7,-0.6 1.5,-1.3 0.4,-0.4 0.8,-0.7 1.2,-1 0.4,-0.4 0.7,-0.6 1,-0.6 0.2,0 0.5,0.2 0.5,0.5 0.1,0.4 -0.4,0.8 -0.6,1 -2.2,2 -2.5,2.4 -2.5,2.3 -0.1,-0.1 1.6,-1.3 2.5,-1.9 0.2,-0.2 0.7,-0.5 1,-0.3 0.1,0.1 0.1,0.3 0.1,0.3 0,0.4 -0.4,0.8 -0.7,1.1 -1.2,1 -1.8,1.5 -1.8,1.5 0,0 1.1,-0.8 1.8,-1.1 0.1,-0.1 0.4,-0.2 0.6,-0.1 0.1,0.1 0.1,0.2 0.1,0.3 0,0.6 -2.2,1.9 -3.7,2.9 -1.1,0.8 -2.3,1.4 -3.5,2.1 -0.2,0.1 -0.4,0.3 -0.8,0.3 -1.5,0 -3.2,-3.3 -2.3,-4.5 -0.1,-0.4 0.1,-0.3 0.6,-0.7 z"
       id="path209"
       inkscape:connector-curvature="0"
       style="fill:#fee1c8;stroke:#231f20;stroke-width:0.25;stroke-miterlimit:10" />
    <path
       class="st0"
       d="m 61.4,51.1 c 1.9,1.2 3.4,2.8 5.2,4.1 7.8,5.3 8.2,5.6 10,6.6 0,0 3.9,2.3 8.3,3.4 0.1,0 0.2,0.1 0.4,0.1 1.2,0.2 2.2,-0.3 2.7,-0.5 1.9,-0.8 0.6,0.1 3.3,-1.1 4.9,-2.1 7.3,-3.2 15.6,-7.6 l 0,0 1.3,-1.2 0,0 c 0,0 -3.2,-6.4 -3.2,-6.4 l 0,0 c 0,0 -3.3,0.4 -5.5,0.9 -1.3,0.3 -3.5,1.4 -7.9,3.6 0,0 -1.5,0.8 -6.2,3.1 l 0,0 c 0,0 -3.5,-2.7 -6.7,-5.8 -2.5,-2.4 -2.6,-2.9 -5,-4.9 -2.6,-2.2 -3.9,-2.8 -5.3,-3 -1.8,-0.2 -3.3,0.4 -3.8,0.7 -2.3,1.1 -3.3,3.1 -3.5,3.7 -0.3,0.7 -1.1,2.5 -0.3,3.7 0.2,0.3 0.5,0.5 0.6,0.6 z"
       id="path211"
       inkscape:connector-curvature="0"
       style="fill:#4a82c3;stroke:#231f20;stroke-width:0.25;stroke-miterlimit:10" />
  </g>
</svg>
