<?xml version="1.0" encoding="utf-8"?>
<!-- Generator: Adobe Illustrator 19.2.1, SVG Export Plug-In . SVG Version: 6.00 Build 0)  -->
<svg version="1.1" id="Слой_1" xmlns="http://www.w3.org/2000/svg" xmlns:xlink="http://www.w3.org/1999/xlink" x="0px" y="0px"
	 viewBox="0 0 104.4 90.5" style="enable-background:new 0 0 104.4 90.5;" xml:space="preserve">
<style type="text/css">
	.st0{fill:#50441B;stroke:#231F20;stroke-width:0.25;stroke-miterlimit:10;}
	.st1{fill:#231F20;stroke:#231F20;stroke-width:0.25;stroke-miterlimit:10;}
	.st2{fill:#FFFFFF;stroke:#231F20;stroke-width:0.25;stroke-miterlimit:10;}
	.st3{fill:#232114;stroke:#231F20;stroke-width:0.25;stroke-miterlimit:10;}
	.st4{fill:#F16024;}
	.st5{font-family:'MyriadPro-Regular';}
	.st6{font-size:1.0215px;}
	.st7{fill:#CDECF9;stroke:#231F20;stroke-width:0.25;stroke-miterlimit:10;}
	.st8{fill:none;stroke:#231F20;stroke-width:0.25;stroke-miterlimit:10;}
</style>
<g>
	<rect x="18.2" y="43.4" class="st0" width="14.9" height="32.8"/>
	<rect x="81.8" y="43.4" class="st0" width="14.9" height="32.8"/>
	<polygon class="st0" points="20.8,34.9 104.4,34.9 89.9,49.4 0,49.4 	"/>
	<rect y="49.4" class="st0" width="90" height="8.4"/>
	<polygon class="st0" points="90,57.7 104.4,43.3 104.4,35 90,49.4 	"/>
	<rect x="4.8" y="57.7" class="st0" width="14.9" height="32.8"/>
	<rect x="69.6" y="57.7" class="st0" width="14.9" height="32.8"/>
	<g>
		<path class="st1" d="M76.2,41.4c0.1,0.3,0.7,0.4,1,0.1c0.1-0.1,0.2-0.3,0.1-0.5c-0.1-0.3-0.5-0.4-0.8-0.3
			C76.3,40.9,76.2,41.2,76.2,41.4z"/>
		<g>
			<polygon class="st2" points="41.5,2.9 39.4,28.2 74.6,30.7 76.1,0 			"/>
			<polygon class="st3" points="42.5,4 40.7,26.8 73.2,29.1 74.6,1.8 			"/>
			<path class="st1" d="M39.4,28.2c-0.1,0.2-0.3,0.4-0.3,0.8c-0.1,0.6,0.1,1.1,0.2,1.3c23.7,2,34.8,3,34.9,3c0,0,0,0,0,0
				c0,0-0.3-0.3-0.5-0.5c-0.1-0.1-0.4-0.6-0.3-1.1c0.1-0.4,0.4-0.6,0.4-0.7c0.3-0.3,0.7-0.3,0.8-0.3L39.4,28.2z"/>
			
				<ellipse transform="matrix(6.721084e-002 -0.9977 0.9977 6.721084e-002 37.4114 104.0272)" class="st1" cx="74.3" cy="32" rx="1.3" ry="0.9"/>
			<ellipse class="st2" cx="57.6" cy="36.5" rx="9.8" ry="1.7"/>
			<polygon class="st1" points="76.1,0 77,0 75.3,31.9 74.6,30.7 			"/>
			<text transform="matrix(0.9979 6.486433e-002 -6.486433e-002 0.9979 54.9611 28.8761)" class="st4 st5 st6">Jew’s Fire</text>
			<polygon class="st1" points="53.5,35.9 53.8,31.5 60.3,32.1 60.6,36.5 			"/>
			<polygon class="st1" points="61.9,36.5 61.2,32.2 60.3,32.1 60.6,36.5 			"/>
		</g>
		<path class="st7" d="M72.2,43.6l0.4,1.2c0.9,0.3,3.7,1.3,6.3,1.6c0.5,0.1,1.1,0.1,2.3,0.2c1.4,0.1,1.9,0,2.4-0.3
			c0.1-0.1,0.5-0.4,0.7-0.9c0.4-1.2-0.7-2.3-1-2.7c-1-1.1-2.3-1.4-3-1.6c-1.7-0.4-3.1-0.1-3.7,0.1c-1.2,0.3-2.1,0.8-2.9,1.2
			c-0.5,0.3-0.9,0.5-1.2,0.7L72.2,43.6z"/>
		<path class="st1" d="M72.3,43.7c0.3-0.1,0.7-0.3,1.3-0.4c0.3,0,1.6-0.3,3.2,0.4c0.8,0.3,0.7,0.5,1.9,1c0.5,0.2,1.1,0.5,1.9,0.7
			c1.1,0.3,2.3,0.6,3.2,0.1c0.3-0.2,0.6-0.6,0.7-0.6c0.1,0.1,0,0.4-0.2,0.7c-0.3,0.5-0.7,0.7-0.8,0.8c-0.4,0.2-0.8,0.2-1.3,0.2
			c-1.9-0.1-1.4,0-2.2-0.1c-0.9-0.1-1.7-0.2-2.9-0.5c-1.1-0.3-2.5-0.6-4.2-1.2C72.5,44.4,72.4,44.1,72.3,43.7z"/>
		<path class="st2" d="M75.3,42.2c0,0.1,0.7,0.1,1.9,0.4c1.3,0.4,2.4,0.9,2.4,0.9c0.6,0.3,1,0.5,1.7,0.6c0.2,0,0.8,0.1,1-0.2
			c0.2-0.3-0.3-0.9-0.6-1.2c-0.1-0.1-0.5-0.4-2.2-0.6c-1.1-0.1-1.9-0.1-2.6-0.1C76.3,42,75.3,42.1,75.3,42.2z"/>
		<polygon class="st2" points="69.5,40.3 33.8,36.4 23.7,39.8 61.7,44.3 		"/>
		<path class="st1" d="M23.7,39.8c0,0-0.4,0.2-0.5,0.7c-0.1,0.4,0.1,0.8,0.4,1c12.2,1.7,24.4,3.4,36.6,5.1l0,0c0.2,0,1,0.1,1.6-0.4
			c0.2-0.1,0.8-0.6,0.6-1.1c-0.1-0.5-0.7-0.7-0.8-0.7L23.7,39.8z"/>
		<polygon class="st2" points="61.8,44.2 67.7,41.2 66.9,40.6 31.7,36.8 25.3,38.8 25,39.6 		"/>
		<polygon class="st8" points="66.8,40.6 61.7,43.2 25.3,38.8 31.7,36.8 		"/>
		<path class="st1" d="M61.8,44.2l0.1,1.9l7.7-4.2c0.4-0.2,0.6-0.7,0.5-1c-0.1-0.4-0.5-0.5-0.6-0.6l-1.9,0.9L61.8,44.2l-0.1-1.1"/>
		<line class="st8" x1="68.3" y1="42.6" x2="72.2" y2="43.3"/>
		<line class="st2" x1="27.5" y1="39.1" x2="33.8" y2="37.1"/>
		<line class="st2" x1="30.1" y1="39.3" x2="36.5" y2="37.3"/>
		<line class="st2" x1="32.6" y1="39.6" x2="39" y2="37.6"/>
		<line class="st2" x1="35.3" y1="40" x2="41.6" y2="37.9"/>
		<line class="st2" x1="38.3" y1="40.4" x2="44.6" y2="38.3"/>
		<line class="st2" x1="41.4" y1="40.6" x2="47.8" y2="38.6"/>
		<line class="st2" x1="44.6" y1="41.1" x2="51.1" y2="39"/>
		<line class="st2" x1="47.4" y1="41.3" x2="53.7" y2="39.3"/>
		<line class="st2" x1="50.3" y1="41.8" x2="56.7" y2="39.8"/>
		<line class="st2" x1="53.1" y1="42.1" x2="59.4" y2="40.1"/>
		<line class="st2" x1="56.7" y1="42.3" x2="63.1" y2="40.3"/>
		<line class="st2" x1="30.3" y1="37.3" x2="60.8" y2="40.9"/>
		<line class="st2" x1="28" y1="37.9" x2="58.6" y2="41.7"/>
		<polyline class="st2" points="59.1,42.8 61.5,41.7 62.5,41.8 60.3,42.9 58,42.7 59.5,41.9 62.5,42.4 61.4,43.1 		"/>
	</g>
</g>
</svg>
