<?xml version="1.0" encoding="utf-8"?>
<!-- Generator: Adobe Illustrator 19.2.1, SVG Export Plug-In . SVG Version: 6.00 Build 0)  -->
<svg version="1.1" id="Слой_1" xmlns="http://www.w3.org/2000/svg" xmlns:xlink="http://www.w3.org/1999/xlink" x="0px" y="0px"
	 viewBox="0 0 88.7 64.3" style="enable-background:new 0 0 88.7 64.3;" xml:space="preserve">
<style type="text/css">
	.st0{fill:#857F76;stroke:#000000;stroke-width:0.5;stroke-miterlimit:10;}
	.st1{fill:#E7EDAA;stroke:#000000;stroke-miterlimit:10;}
	.st2{fill:none;stroke:#000000;stroke-miterlimit:10;}
	.st3{fill:none;stroke:#000000;stroke-width:0.5;stroke-miterlimit:10;}
	.st4{fill:none;stroke:#000000;stroke-width:5;stroke-miterlimit:10;}
	.st5{fill:none;stroke:#000000;stroke-width:3;stroke-miterlimit:10;}
	.st6{fill:#F04E66;stroke:#000000;stroke-width:0.5;stroke-miterlimit:10;}
	.st7{fill:#FCDD7B;stroke:#000000;stroke-width:0.5;stroke-miterlimit:10;}
	.st8{fill:#9B9896;stroke:#000000;stroke-width:0.5;stroke-miterlimit:10;}
</style>
<g>
	<g>
		<path class="st0" d="M53.6,53c3.1-0.5,6-0.6,7.3-0.7c1.9-0.1,3.6-0.1,4.8-0.1c0.2-0.2,0.4-0.4,0.6-0.6c1.2,0,2.1,0,2.7,0
			c0.9,0,2.1,0.1,2.2,0.1c-0.1,0.2-0.1,0.4-0.2,0.6c1.1,0.1,2.7,0.2,4.4,0.4c1.5,0.2,4.3,0.6,6.8,1.3c0.8,0.2,2.9,0.9,3.8,1.9
			c0.2,0.2,0.9,1.1-0.5,2.2c-0.5,0.4-1.6,1.3-5,2.1c-0.9,0.2-3.4,0.8-7.3,1.1c-3,0.2-6.8,0.3-7.8,0.3l-0.3,0
			c-0.2,0.2-0.4,0.5-0.6,0.7c-1,0-1.9,0-2.5,0c-1.7-0.1-2.8-0.2-2.8-0.2l0,0l0.2-0.7l0,0c0,0-3.6-0.3-4.7-0.5
			c-5.2-0.6-7.9-1.8-8.4-2.1c-0.5-0.2-2.1-1.1-1.9-2.2c0.2-0.9,1.3-1.5,1.9-1.8C48.6,53.7,52.6,53.1,53.6,53z"/>
		<g>
			<path class="st0" d="M53.4,19.6c3.2-2.1,6.1-2.8,7.5-3c2-0.4,3.7-0.5,4.9-0.5c0.2-0.9,0.4-1.9,0.6-2.8c1.2-0.1,2.1,0,2.8,0.1
				c0.9,0.2,2.2,0.6,2.2,0.6c-0.1,0.9-0.1,1.8-0.2,2.7c1.2,0.4,2.7,1,4.5,2c1.5,0.9,4.4,2.5,7,5.8c0.8,1,3,4.1,3.9,8.8
				c0.2,1,0.9,5.1-0.5,10.2c-0.5,1.7-1.6,5.7-5.2,9.3c-0.9,0.9-3.5,3.5-7.5,4.8c-3.1,1-7,1.4-8,1.4l-0.3,0C65,60,64.7,61,64.5,62
				c-1.1,0.2-1.9,0.1-2.6,0.1c-1.8-0.4-2.9-0.7-2.9-0.7l0,0l0.2-3.2l0,0c0,0-3.7-1.6-4.8-2.1c-5.3-2.6-8.1-8.2-8.6-9.5
				c-0.5-1.1-2.1-4.8-1.9-9.9c0.2-3.9,1.3-6.9,2-8.2C48.4,23.1,52.4,20.3,53.4,19.6z"/>
			<path class="st1" d="M58.7,33.3c1.4-2.3,3.6-3,4.4-3.3c0.8-0.3,3.2-1,5.7,0.1c2.2,1,3.2,2.7,3.5,3.2c0.3,0.5,1.7,3.1,0.7,6.3
				c-0.8,2.3-2.4,3.6-2.9,3.9c-0.4,0.3-3.6,2.5-7.3,1.1c-0.3-0.1-3.9-1.5-4.9-5.3C56.9,36.2,58.5,33.7,58.7,33.3z"/>
			<path class="st2" d="M61.7,32.6"/>
			<polyline class="st2" points="67.5,31 63.3,37.1 68.2,37.1 63.3,42.6 			"/>
			<path class="st2" d="M64.2,45.9"/>
			<g>
				<path class="st3" d="M62.5,17.8c4.2-0.6,7.5,0.2,8.7,0.6c7.3,2.2,10.8,8,11.4,9c3.3,5.6,2.7,11,2.6,12.5c-0.6,5-2.8,8.4-3.3,9.1
					c-3.2,4.6-7.5,6.4-9,7c-1.7,0.7-8.2,3.1-15.4,0.1c-1-0.4-8-3.5-10.8-11.4c-2.1-5.9-0.7-10.9-0.1-12.8c0.5-1.6,1.7-5.4,5.2-8.8
					C55.6,19.3,60.2,18.2,62.5,17.8z"/>
				<path class="st3" d="M60.9,20.7c0.9-0.3,4-1,7.8-0.3c1.1,0.2,3.9,0.8,6.9,2.9c3.7,2.6,5.3,5.8,5.7,6.5c2.1,4.2,1.7,8,1.6,9.7
					c-0.1,1.4-0.4,4.2-2.2,7.2c-0.4,0.7-2.1,3.5-5.7,5.7c-4.1,2.6-8.1,2.7-9.8,2.7c-1.4,0-6.7-0.2-11.4-4.4
					c-5.1-4.5-5.7-10.4-5.8-11.9c-0.1-1.7-0.1-5.2,1.8-9c2-3.9,4.9-6,6-6.7C58.2,21.4,60.4,20.8,60.9,20.7z"/>
				<path class="st3" d="M62,22.7c3.8-0.9,6.8-0.1,7.6,0.2c0.7,0.2,3.2,1,5.8,3.2c1,0.8,3.2,2.8,4.5,6.3c1.5,4.1,0.6,7.7,0.3,8.8
					c-0.2,0.9-1.3,4.7-4.9,7.8c-1.1,0.9-4.9,4.1-10.4,3.9c-6.4-0.2-10.2-4.7-11.2-5.9c-1.1-1.4-4.1-5.6-3.4-11.4
					c0.6-5.3,4-8.5,5-9.4C55.9,25.5,58.3,23.6,62,22.7z"/>
				<path class="st3" d="M63.7,24.7c2.9-0.4,5.2,0.3,6.3,0.8c1,0.4,4.4,1.7,6.6,5.4c0.4,0.6,2,3.6,1.7,7.6c-0.1,1.1-0.5,4.2-2.9,7.1
					c-0.7,0.9-3,3.4-6.9,4.4c-6.3,1.6-11.1-2.4-11.4-2.6c-4.9-4.1-4.6-10.1-4.6-10.9c0.1-1.5,0.6-5.2,3.7-8.3
					C59.2,25.3,62.7,24.9,63.7,24.7z"/>
				<path class="st3" d="M59.3,29c0.6-0.4,3.4-2.4,7.2-2c0.5,0.1,2.7,0.3,4.9,1.8c0.8,0.5,3.8,2.7,4.5,6.7c0.5,3-0.5,5.4-0.9,6.3
					c-1.7,3.5-4.9,4.8-5.8,5.1c-0.4,0.2-5.9,2.1-10.4-1.6c-4-3.3-3.8-8.3-3.8-8.7C55.3,32,58.7,29.4,59.3,29z"/>
				<line class="st3" x1="57.1" y1="18.8" x2="62.2" y2="29.8"/>
				<line class="st3" x1="62.2" y1="17.3" x2="64.2" y2="29.3"/>
				<line class="st3" x1="66.3" y1="29.3" x2="67.7" y2="17.3"/>
				<line class="st3" x1="68.2" y1="29.6" x2="72.7" y2="18.5"/>
				<line class="st3" x1="70.5" y1="30.5" x2="77.4" y2="21"/>
				<line class="st3" x1="71.9" y1="32" x2="81.1" y2="24.6"/>
				<line class="st3" x1="73.1" y1="33.9" x2="84.1" y2="29"/>
				<line class="st3" x1="73.9" y1="36" x2="85.3" y2="34.2"/>
				<line class="st3" x1="73.7" y1="38.1" x2="85.7" y2="39.7"/>
				<line class="st3" x1="73.3" y1="40.3" x2="84.4" y2="44.6"/>
				<line class="st3" x1="72.4" y1="42.5" x2="82.2" y2="48.9"/>
				<line class="st3" x1="70.9" y1="44" x2="78.9" y2="52.9"/>
				<line class="st3" x1="69" y1="45.1" x2="73.7" y2="56"/>
				<line class="st3" x1="66.8" y1="45.7" x2="68.7" y2="57.6"/>
				<line class="st3" x1="64.5" y1="45.7" x2="63.2" y2="57.6"/>
				<line class="st3" x1="62.2" y1="45.1" x2="58" y2="56.9"/>
				<line class="st3" x1="60.4" y1="44" x2="53.4" y2="53.8"/>
				<line class="st3" x1="59" y1="42.5" x2="49.5" y2="50.4"/>
				<line class="st3" x1="58" y1="40.3" x2="46.6" y2="45.9"/>
				<line class="st3" x1="57.5" y1="38.5" x2="45.3" y2="40.3"/>
				<line class="st3" x1="57.5" y1="36.4" x2="45.5" y2="35.1"/>
				<line class="st3" x1="58" y1="34.2" x2="46.6" y2="29.8"/>
				<line class="st3" x1="59" y1="32.6" x2="49" y2="25.3"/>
				<line class="st3" x1="60.4" y1="31" x2="52.9" y2="21.4"/>
			</g>
		</g>
	</g>
	<g>
		<polyline class="st4" points="80.5,62.9 79.7,51.3 76.7,12 14.9,4.1 19.8,49.1 		"/>
		<line class="st4" x1="19" y1="35.5" x2="79.7" y2="51.3"/>
		<line class="st5" x1="33.6" y1="7.1" x2="36.5" y2="40.1"/>
		<line class="st5" x1="53.6" y1="9.1" x2="55.8" y2="45.1"/>
		<polygon class="st5" points="35.1,23.6 43.5,8.6 54.7,27.5 45.8,42.5 		"/>
		<polygon class="st5" points="55.1,27 63.8,10.8 76.8,31.5 67,47.2 		"/>
		<polygon class="st5" points="16.5,18.6 24.2,5.8 30,15.6 34.6,23.6 26.6,36.5 21.3,27.1 		"/>
		<line class="st5" x1="21.8" y1="26.9" x2="30" y2="15.6"/>
		<line class="st5" x1="20.6" y1="12.7" x2="31.3" y2="29"/>
		<line class="st5" x1="39.6" y1="16.3" x2="50.8" y2="34.2"/>
		<line class="st5" x1="40.8" y1="32.8" x2="49.1" y2="18"/>
		<line class="st5" x1="59.2" y1="19.4" x2="71.5" y2="39.4"/>
		<line class="st5" x1="61.4" y1="37.1" x2="70.2" y2="21.7"/>
	</g>
	<g>
		<path class="st6" d="M2.3,50.2c2.8-3.2,19.5-31.7,20.6-36.6c0,0,0.5-1.2,1.5-3.5c0,0,0.5-1.1,1.1-1.2c0.2,0,0.3,0,0.3,0
			s0.3,0,0.6,0.3c1.4,1.1,2.1,5.2,2.1,5.2c0.3,1.6,0.8,3.2,1,4.8c0.4,2.8,0-1.1,3.9,20.7C35.2,51,37,61.6,37,61.6l0,0
			c0.2-0.6-0.3,1.3-0.8,1.7c-0.7,0.7-1.9,0.5-2.5,0.5c-4.1-0.6-13-3.7-18.6-4.9c0,0-3.4-0.7-13-4.2c-0.1,0-0.4-0.1-0.6-0.4
			c-0.7-0.8-0.3-2.2-0.2-2.4C1.7,50.9,2.3,50.2,2.3,50.2z"/>
		<polygon class="st7" points="25.1,16.4 32.8,58.6 5.6,51 		"/>
		<g>
			<path class="st8" d="M14.2,51.6c-0.1-0.4,0.1-0.8,1.8-2.9c0.6-0.8,1.5-1.8,1.5-1.8l0,0c-0.1-4.5,0.2-4.5,0.2-4.5
				c0.4-0.1,1.4,2,1.4,2v0c0,0,0.1,1.7-0.3,3.1c-0.3,1.1-0.7,0.9-2.1,3.1c-0.8,1.3-1.1,2-1.6,2C14.7,52.6,14.3,52.1,14.2,51.6z"/>
			<path class="st8" d="M21.4,45.8c0,0.1,0,0.2-0.1,0.7c-0.2,1.9-0.7,5.5-1,6.6c0,0,0,0.1,0,0.2c0,0-0.1,0.8,0.4,1.2
				c0.2,0.1,0.4,0.3,0.6,0.2c0,0,0,0,0,0c0.2-0.3,1.2-8.6,1.2-8.6l0,0l1-0.6l0,0c0,0-4.5-6.1-4.7-6.6c0,0,0,0,0,0
				c-0.1,0-0.8,1-0.8,1.9c0,0.3,0.1,0.6,1.1,1.7C20.5,44.2,21.3,44.7,21.4,45.8z"/>
			<path class="st8" d="M23.8,53.6c0-0.2,0.1-1,0.7-1.3C24.9,52,25.2,52,26,52c1.2,0,1.5,0.3,2,0.1c0.3-0.2,0.5-0.5,0.8-1
				c0.3-0.7,0.6-1.5,0.8-1.9c0-0.1,0.2-0.3,0.3-0.5c0.1-0.1,0.1-0.1,0.1-0.1c0.3,0,0.7,3.9,1,6.2c0.2,1.4,0.3,2,0.3,2c0,0,0,0,0,0
				c-0.1,0.3-4.3-1.1-6.4-1.5c-0.1,0-0.3-0.1-0.6-0.3C23.7,54.7,23.8,53.7,23.8,53.6z"/>
			<path class="st8" d="M24.4,45.5c1.2,1.7,2.4,3.4,3.6,5.1"/>
			<path class="st8" d="M23.6,43.4c0.9-0.2-0.2-7.8-0.2-7.8l0,0c0,0-0.2-1.1-0.4-1.9c-0.3-0.9-0.6-1.7-1.3-2.2
				c-0.7-0.5-1.9-0.6-2.5-0.1c-0.5,0.4-0.2,0.7-0.9,1.7c-0.6,0.9-1.1,1.2-1,1.7c0.1,0.4,0.4,0.7,0.6,0.7c0.1,0,0.2-0.2,0.4-0.5
				c0.2-0.4,0.6-1,1.1-1.2c0.5-0.2,1-0.1,1.2,0c0.3,0.1,0.3,0.2,0.3,0.2c0.1,0.3-0.2,0.7-0.4,0.9c-0.4,0.5-1.2,1.6-1.1,2.6
				c0,0.2,0.2,0.6,0.7,1.3c0.6,0.9,0.7,0.9,0.8,1.2c0,0,0,0.1,0.1,0.1c0.2,0.1,0.9-1.1,1.3-2.3c0-0.1,0.1-0.3,0.1-0.3
				c0.1,0-0.6,2.4,0.3,4.6C22.8,42.6,23.3,43.5,23.6,43.4z"/>
			<path class="st8" d="M23.3,29.5c0.1-0.8,0.2-1.5,0.7-1.8c0.3-0.1,0.7-0.1,1,0.1c0.1,0.1,0.4,0.3,0.4,1.7c0,0.1,0,1.8-0.6,3.1
				c-0.2,0.5-0.4,0.6-0.5,0.6c-0.1,0-0.2-0.1-0.2-0.2C23.1,31.3,23.3,29.5,23.3,29.5z"/>
			<path class="st8" d="M16.7,35.8c-0.3,0.1-0.4,0.7-0.3,1.1c0,0.1,0.2,0.5,0.5,0.6c0.3,0,0.5-0.2,0.6-0.4
				C17.7,36.6,17,35.8,16.7,35.8z"/>
		</g>
	</g>
</g>
</svg>
