<?xml version="1.0" encoding="utf-8"?>
<!-- Generator: Adobe Illustrator 19.2.1, SVG Export Plug-In . SVG Version: 6.00 Build 0)  -->
<svg version="1.1" id="Слой_1" xmlns="http://www.w3.org/2000/svg" xmlns:xlink="http://www.w3.org/1999/xlink" x="0px" y="0px"
	 viewBox="0 0 37.8 68" style="enable-background:new 0 0 37.8 68;" xml:space="preserve">
<style type="text/css">
	.st0{fill:#EE3624;stroke:#000000;stroke-width:0.25;stroke-miterlimit:10;}
	.st1{fill:#231F20;stroke:#000000;stroke-width:0.25;stroke-miterlimit:10;}
</style>
<g>
	<path class="st0" d="M37.8,3.7c-0.2,19.7-0.4,39.5-0.7,59.2c-1.3,0.9-3.2,2.1-5.8,3.1c-4.4,1.7-8.1,1.8-11.5,2
		C18.2,68,15,68,11,67.4c-4.9-0.8-7-1.9-7.8-2.4c-1.5-0.9-2.5-1.9-3.2-2.6C0,42.8,0,23.3,0,3.7L37.8,3.7z"/>
	<path class="st1" d="M0,20.3c3.6,1.3,6.7,1.9,9,2.3c4.4,0.6,8.1,0.5,10.9,0.3c0.7,0,2.3-0.1,4.4-0.4c3.6-0.4,8.1-1.2,13.3-2.7
		c0,1.4,0,2.8,0,4.3c-0.9,0.3-2.1,0.6-3.6,1c-1.1,0.2-2,0.4-2.6,0.5c-1.5,0.3-4.7,0.8-7.1,1.1c-8.3,0.9-15.5-0.2-15.5-0.2
		c-2.1-0.4-5.2-1-8.7-2.3C0,22.8,0,21.6,0,20.3z"/>
	<path class="st1" d="M0,40.3c2.3,0.8,5.5,1.6,9.3,2.2c3.9,0.5,6.9,0.5,9.7,0.4c2.6-0.1,6.3-0.2,11-1.1c3-0.6,5.5-1.3,7.4-1.9
		c0,1.4-0.1,2.8-0.1,4.2c-1.5,0.5-3.6,1-6,1.5c-1.2,0.3-4,0.8-7,1.2c-7.8,0.9-14-0.1-15.5-0.3C6.6,46,3.5,45.3,0,44.1
		C0,42.8,0,41.6,0,40.3z"/>
	<ellipse class="st1" cx="18.9" cy="3.7" rx="18.9" ry="3"/>
	<path class="st1" d="M0.1,61.7c2.2,1,5.1,2.2,8.7,3.1c4.8,1.2,8.6,1.2,9.9,1.2c5.9,0,10.3-1.2,11.3-1.5c3.1-0.9,5.6-2.1,7.3-3
		c0.1,0.3,0.2,0.9-0.1,1.4c-0.2,0.4-0.5,0.6-1.2,0.9c-1.2,0.6-1.8,0.9-2,1c-1.8,0.8-2,0.9-2.8,1.2c-2.6,1.1-6,1.5-6.9,1.6
		c-4.5,0.6-7.9,0.3-9.9,0.1c-2.2-0.2-3.7-0.5-5-0.8c-2-0.4-3.5-0.8-5.1-1.4c0,0-1.3-0.5-3.3-2.1c-0.2-0.2-0.6-0.5-0.7-1
		C0,62.1,0,61.8,0.1,61.7z"/>
</g>
</svg>
