<?xml version="1.0" encoding="utf-8"?>
<!-- Generator: Adobe Illustrator 19.2.1, SVG Export Plug-In . SVG Version: 6.00 Build 0)  -->
<svg version="1.1" id="Слой_1" xmlns="http://www.w3.org/2000/svg" xmlns:xlink="http://www.w3.org/1999/xlink" x="0px" y="0px"
	 viewBox="0 0 340 98.2" style="enable-background:new 0 0 340 98.2;" xml:space="preserve">
<style type="text/css">
	.st0{fill:#466EB5;stroke:#231F20;stroke-miterlimit:10;}
	.st1{fill:none;stroke:#010101;stroke-miterlimit:10;}
	.st2{fill:#333434;stroke:#231F20;stroke-miterlimit:10;}
	.st3{fill:#2D4499;stroke:#231F20;stroke-miterlimit:10;}
	.st4{fill:#333434;}
	.st5{fill:none;stroke:#231F20;stroke-miterlimit:10;}
	.st6{fill:#CEECF7;stroke:#231F20;stroke-miterlimit:10;}
	.st7{fill:#E42B27;stroke:#231F20;stroke-miterlimit:10;}
	.st8{fill:#EAE716;stroke:#231F20;stroke-miterlimit:10;}
	.st9{fill:#CEECF7;stroke:#231F20;stroke-width:0.25;stroke-miterlimit:10;}
	.st10{fill:#DBDEDB;stroke:#231F20;stroke-miterlimit:10;}
	.st11{fill:#333434;stroke:#231F20;stroke-width:0.25;stroke-miterlimit:10;}
	.st12{fill:#2D4499;}
</style>
<g>
	<path class="st0" d="M79.8,87.7c3.1-0.2,173.2-0.2,173.9,0c0,0,0.1,0,0.1,0c0.1-0.1-0.9-1.1-1-1.3c-1.1-1.2-1.6-3.2-2.1-5.7
		c-0.5-2.3-0.7-4.3-0.9-5.9c-0.1-1.5-0.3-3.5-0.1-5.7c0.1-1.6,0.5-5.5,2.6-10c0.6-1.4,2.4-5.1,6.1-8.8c1.6-1.6,6-5.9,13.3-7.9
		c1.4-0.4,6.8-1.7,13.6-0.3c7,1.4,11.6,4.9,13.3,6.3c2.6,2.2,6.5,6,8.8,11.9c0.6,1.5,2.2,5.8,2.1,11.4c0,0,0,5.6-1.9,10.4
		c-0.5,1.4-1.6,3.9-2.3,4.5c0,0-0.1,0.1-0.1,0.1c0,0.5,5,0.9,7.9,1c5.7,0.2,10.2-0.5,11.6-0.7c0,0,2-0.3,11.9-2.9c1.9-2,2.6-3.9,3-5
		c0.5-1.4,0.3-2,0.1-2.4c-0.6-1-2.6-1.4-2.6-1.4c0-3.5,0-7,0-10.5c0.3-0.2,0.6-0.7,0.8-1.2c0.4-1,0.1-2-0.2-2.7
		c-1.3-3.8-3.1-5.7-3.1-5.7c-3.1-3.5-7-5.4-9.2-6.5c-10.9-5.6-8.5-5.2-13.4-7.3c-7-3-12.6-4.1-19.4-5.4c-2-0.4-0.2,0-13.7-2.2
		c-8.9-1.4-13.1-2.2-18.2-2.6c-0.9-0.1-6.6-0.6-6.6-0.6c-3.9-2.3-9.6-5.5-16.6-9.1c-7.8-4-11.9-6.2-17.9-8.5c-4-1.5-10.6-4-19.5-5.6
		c-7.4-1.3-13-1.4-24.1-1.5c-8.6-0.1-15,0.3-17.3,0.5c-2.8,0.2-6.5,0.5-16,1.6c-9.6,1.2-16.6,2-25.9,3.5c-7.3,1.2-13.9,2.5-27.1,5.1
		c-10.8,2.1-16.3,3.2-23.2,4.9c-5.9,1.4-16.3,4-16.3,4c-5.1,0-7.4,0-7.6,0c0,0,0,0-0.1,0c-0.2-0.1,0-0.8-0.2-1.1
		c-0.3-0.6-1.5-0.5-2-0.5c0,0-2.6,0.1-8.9,0l0,0c-0.2,0-0.3-1.1-0.4-1.4c-0.6-2-13.1-0.6-13.1-0.6c-0.5,0.1-1.1,0.4-1.6,0.9
		c-0.5,0.6-0.5,1.2-0.6,1.6c-0.1,0.5-0.6,1.6-1.6,3.8c-1.1,2.5-2.7,4.6-4.3,7.2c-1.5,2.4-3.1,5-4.4,8.7c-1.5,3.9-1.7,6.3-1.7,7.8
		c0,1,0.2,1.3,0.3,3.5c0.2,4.3-0.2,4.9,0,5.6c0,0,0,0.1,0,0.1c0,0-0.2,0.3-3.4-0.8c-0.3,0.7-0.5,1.3-0.6,1.7c0,0-0.6,3,0.9,6
		c0,0.1,0.5,1,0.5,1l0,0c0,0,1.3,0.5,1.3,0.5l0,0l0,5.1l0,0l7.4,8.7l0,0c0,0,9.5,0.3,10.6,0.6c0,0,0.1,0,0.2,0
		c0.1-0.2-1.4-1.6-1.7-1.8c-2.8-2.6-2.1-10.4-1.8-12.9c0.2-2.5,0.5-5.4,1.8-9.1c1.7-5,4.3-8.5,5.7-10.3c4.2-5.2,8.8-7.7,10-8.3
		c1.2-0.6,6-3,12.8-3.5c7.4-0.5,12.9,1.6,14.4,2.3c1.9,0.8,6.8,3,11.4,8c1,1.1,4.7,5.2,7,11.8c0.6,1.8,2,6.3,2,12.2
		c-0.1,4.9-1.2,11.6-2.7,13.7c-0.2,0.2-1,1.3-0.6,1.8C79.2,87.7,79.7,87.7,79.8,87.7z"/>
	<path class="st1" d="M44.1,64.4c1.6-2.3,4.1-2.9,4.7-3c0.9-0.2,3.9-0.6,6.3,1.5c2.9,2.6,2.3,6.5,2.3,6.7c-0.5,2.7-2.5,4.8-5,5.6
		c-2.9,0.9-6.3,0-8.2-2.6C42.5,70.1,42.5,66.7,44.1,64.4z"/>
	<g>
		<path class="st2" d="M21.9,59.1c2.3-6.8,6.8-10.7,8.9-12.4c3.9-3.3,7.6-4.8,8.7-5.2c2.4-0.9,6.6-2.1,11.8-1.8
			c8.6,0.6,14.4,5,16.4,6.6c2.4,1.9,6.8,5.5,9.2,11.9c2.4,6.3,1.4,11.8,0.9,14.7c-0.3,1.9-1.6,7.7-6,13.5c-1.8,2.3-4,5.2-8,7.2
			c-3.3,1.6-6,1.7-11.3,1.9c-6.9,0.3-10.4,0.4-14.6-1.2c-6.6-2.5-10.3-7.3-11.6-9c-0.9-1.2-4.3-5.9-5.3-13
			C20.5,70.1,19.8,65,21.9,59.1z"/>
		<path class="st3" d="M38.4,47.1c1.6-0.8,4.5-2.2,8.6-2.6c5.4-0.5,9.4,1.1,11.1,1.8c1.8,0.8,6,2.5,9.5,6.8
			c3.7,4.6,4.6,9.3,4.9,11.2c0.9,5.4-0.3,9.8-1,11.9c-0.7,2-2.3,6.6-6.8,10.4c-4.5,3.8-9.2,4.7-11.4,5c-2.4,0.4-8.3,1.3-14.7-1.8
			c-6.9-3.4-9.9-9.5-10.9-11.8c-1-2.2-3.4-7.6-2.1-14.5c0.3-1.4,1.4-6.9,6-11.7C34.2,49.2,36.9,47.9,38.4,47.1z"/>
		<polygon class="st1" points="29.6,55.2 43.2,61.7 36.4,48.7 		"/>
		<polygon class="st1" points="38.9,48 48.1,45.6 48.1,59.9 		"/>
		<polygon class="st1" points="50.6,45.9 51.5,59.9 59.1,48.4 		"/>
		<polygon class="st1" points="61.5,50.2 55.1,61.7 67.5,56 		"/>
		<polygon class="st1" points="57.7,65.3 69.1,58.5 70.7,66.7 		"/>
		<path class="st1" d="M57.7,69.8l13-0.3c-0.9,2.7-1.9,5.5-2.8,8.2C64.5,75,61.1,72.4,57.7,69.8z"/>
		<polygon class="st1" points="56.1,73.6 67.5,80.4 61.3,86.4 		"/>
		<polygon class="st1" points="51.5,76.2 51.1,89.7 59.1,87.8 		"/>
		<polygon class="st1" points="47.6,75.9 47.6,90 39.5,87.2 		"/>
		<polygon class="st1" points="43.5,74.2 37.9,86.4 31.5,80 		"/>
		<polygon class="st1" points="27.5,69.5 30.2,77.9 41.5,70.7 		"/>
		<polygon class="st1" points="28.6,58.5 26.7,66.7 40.5,66 		"/>
		<path class="st4" d="M46.2,65.9c1.1-1.8,3.3-1.9,3.6-1.9c0.5,0,2.7,0,3.9,1.8c1,1.5,0.9,3.6-0.3,5c-1.5,1.7-3.7,1.3-4.1,1.2
			c-0.5-0.1-2.5-0.4-3.3-2.2C45,67.9,46.1,66,46.2,65.9z"/>
		<path class="st3" d="M48.1,66.9c0.7-0.9,1.9-1.2,2.9-0.8c0.7,0.3,1.4,0.9,1.5,1.9c0.1,1.1-0.7,1.8-0.7,1.9c-0.9,0.9-2.8,1-3.7-0.1
			C47.4,69,47.4,67.8,48.1,66.9z"/>
	</g>
	<path class="st5" d="M7.4,70.1C7.2,67.3,7,63.6,7.3,59.3c0.2-2.3,0.4-5.6,1.4-9.7c1.4-5.6,3.5-10.2,4-10.7c0,0,0.1-0.1,0-0.1
		c-0.1-0.2-3.3,0.9-4.1,1.8c-0.1,0.1-0.2,0.3-0.2,0.4c0,0.3,0.5,0.6,2.4,0.8"/>
	<path class="st6" d="M8.6,38.1c0.3,0.2,0.7,0.3,1,0.5c5.7-3,11.4-6,17.1-9.1c0-0.5,0.2-2.1,1.4-3.6c1.2-1.4,3.2-1.7,3.1-1.9
		c0-0.1-0.3-0.1-0.6,0c-2.2,0.4-4,3.1-4,3.1l0,0c-1.1,0.2-2.9,0.3-4.9-0.2c-3.2-0.8-5.3-2.6-5.5-2.8c0,0,0,0-0.1,0
		c-0.1,0-0.2,0.7-0.4,1.4c-0.1,0.5-0.3,0.8-0.6,1.3c-1.2,2.3-1.5,3.3-3.2,6.1c-0.8,1.3-1.8,2.9-3.1,4.6L8.6,38.1z"/>
	<path class="st7" d="M23.2,31.5c-1.8-0.1-3.6-0.2-5.5-0.3c-1,1.6-2,3.1-3,4.7L23.2,31.5z"/>
	<path class="st5" d="M16.1,23.4c0.8,0.6,1.7,1.3,2.9,1.8c3.5,1.6,6.8,1.4,8.5,1.2"/>
	<path class="st5" d="M4.8,55.1c0.8,0.4,1.6,0.8,2.4,1.2"/>
	<path class="st5" d="M7.1,70.2c2.9,0.7,5.7,1.3,8.6,2"/>
	<path class="st5" d="M4.1,61.6c0,0.8,0.1,4.7,0.2,6.6c0,0.1,0,0.3,0.2,0.6c0.5,1.1,2.1,1.4,3.1,1.5"/>
	<path class="st3" d="M14.9,83.1c-3.1-3.4-6.3-6.9-9.4-10.3l-0.3-0.3c0.7,0.4,1.5,0.8,2.3,1.2c3.4,1.5,6.6,2.2,9.3,2.5l0.5,2.7
		l0.7,2.1l2.4,2.5L14.9,83.1z"/>
	<path class="st5" d="M7.5,70.6c0.1,1,0.2,1.9,0.3,2.9"/>
	<path class="st5" d="M7.9,54.2c4.2,0.5,8.4,0.9,12.7,1.4"/>
	<path class="st3" d="M34.4,34.1v-4.6c7,0,12.8,0.6,17,1.3c8.2,1.3,13.1,2.1,18.7,5.6c5.2,3.3,8.2,7.2,10.4,10
		c5.2,6.9,7.2,13.3,7.7,14.9c1.5,5.2,1.6,9.5,1.7,11.6c0,2.9-0.3,5.3-0.6,7.1c1.2,0.4,2.4,0.8,3.5,1.2c0.4,1.1,0.7,2.1,1.1,3.2
		l-9.5,2.1l0.4-0.8c1.3-4.4,2.7-11.2,1.5-19.3c-0.4-2.6-1.1-7.4-4-12.9c-3.7-7.1-8.8-11.1-10.4-12.4c-1.5-1.2-6.5-4.7-13.8-6.3
		c-3.8-0.9-6.7-0.9-8.6-0.9c-12.2-0.1-26,0.8-32.1,1.2"/>
	<path class="st5" d="M53.9,25.9c2.8-0.2,6.9-0.1,11.6,1.1c1.8,0.5,5.3,1.4,9.2,3.9c3.1,1.9,6.6,4.2,8.7,8.4c1.4,2.8,1,4.3,3.6,9.9
		c0.6,1.3,0.9,1.8,1.5,3.3c0.6,1.5,1.7,4.1,2.6,7.4c0.2,1,0.8,3.2,1.2,7.4c0.3,3.3,0.6,7.9,0.4,13.6l86.9,2.1l71.4,0.7"/>
	<path class="st2" d="M125.8,77.1c0.1-2.7,0.3-5.9,0.7-9.5c0.2-1.9,0.5-4.4,1.2-7.7c0.6-3.2,3.1-12.8,2.3-9.6l0,0
		c0,0,9.6,0.5,10.5,0.3c0,0,0.1,0,0.1,0c0.4,0.2-0.3,2.4-0.4,2.9c-0.4,1.4-0.7,4.2-1.3,9.7c-0.2,2.2-1.2,20.1-0.7,11.7l0,0
		c0,0-3.3,0.7-5.1,1.1C131.4,76.3,128.9,76.8,125.8,77.1z"/>
	<path class="st5" d="M144.1,50.6c-0.2,1.6-0.6,4-1.1,7c-0.6,3.5-0.9,5.6-1.1,6.5c-0.5,3.2-0.9,7.9-0.2,14.7"/>
	<path class="st3" d="M64.8,22.4c3.8,0,7.8,0,11.9,0.2c4.9,0.2,9.6,0.5,14,0.9l-0.1,0c6.2-1.4,11.2-2.6,14.4-3.5
		c0,0,19.1-4.8,26.3-5.6c0.1,0,2.5-0.3,2.5-0.3l0,0c1.6-1.8,3.3-3.7,4.9-5.5"/>
	<path class="st4" d="M133.4,21c0.6-1.9,2.3-2.6,2.9-2.8c1.9-0.8,3.6-0.2,4.2,0c1,0.3,2.4,0.8,3,2.2c0.7,1.7-0.7,3.5-1,3.8
		c-1.3,1.6-3.1,1.9-3.7,2c-0.6,0.1-3.3,0.4-4.8-1.5C133.3,23.6,133.1,22.2,133.4,21z"/>
	<path class="st2" d="M157.6,12.5c3.3-0.6,7.8-1.3,13.1-1.6c4.1-0.2,9.7-0.6,16.8,0.3c5.1,0.6,11.4,1.4,18.9,4.7
		c5.5,2.5,9.7,5.5,14.2,8.7c4.4,3.2,4,3.8,7.4,5.8c0.2,0.1,0.3,0.2,0.3,0.3c-0.2,2.1-77.6-3.6-80.4-2.9c0,0-0.1,0-0.2,0
		c-0.6-0.5,3.5-6.5,8.1-13L157.6,12.5z"/>
	<path class="st3" d="M134.9,21c0.7-1.2,2.1-1.9,3.3-1.8c0.2,0,2.4,0.1,3,1.7c0.5,1.2-0.2,2.3-0.3,2.5c-0.8,1.4-2.5,1.6-3,1.6
		c-1.1,0-2.9-0.4-3.4-1.8C134.3,22.2,134.8,21.2,134.9,21z"/>
	<line class="st5" x1="134.8" y1="22" x2="141.5" y2="22"/>
	<path class="st5" d="M226.5,23.6c0.1-0.5,0.4-1.4,1.1-1.8c0.5-0.3,1-0.3,1.5-0.3c2.8,0.1,4.1,0.2,4.9,0.5c0.9,0.3,1.9,0.6,2.8,1.5
		c0.4,0.4,0.8,0.9,0.9,1.4c0.2,1.5-2.2,2.9-3.5,3.5c-0.4,0.2-5,2.2-7.1-0.2C225.8,26.7,226.4,24.1,226.5,23.6z"/>
	<path class="st8" d="M227.5,23.2c1.2-0.1,2.1,0.2,2.7,0.3c0.8,0.3,1.4,0.5,1.7,1.1c0.3,0.7-0.1,1.4-0.2,1.6
		c-0.6,1.1-2.2,1.6-3.9,1.4L227.5,23.2z"/>
	<path class="st5" d="M228.8,29.2v1.9h4.7l1.8-2.9l3.9,2.9c-1.9,0-3.8,0-5.7,0"/>
	<path class="st3" d="M240.1,31.1c3.7,0.2,7.4,0.5,11.2,0.7c-9.3-5.1-13.2-7.3-13.6-7.6c0,0-0.2-0.1-0.2-0.1c0,0,0.5,0.4,0.7,0.9
		c0.2,0.7-0.5,1.4-0.8,1.7c-0.8,0.9-1.6,1-1.6,1.4c0,0.3,0.4,0.6,0.7,0.8c0.8,0.5,1.7,1.1,3,2L240.1,31.1z"/>
	<path class="st4" d="M273.4,66.9c1.6-2.3,4.1-2.9,4.7-3c0.9-0.2,3.9-0.6,6.3,1.5c2.9,2.6,2.3,6.5,2.3,6.7c-0.5,2.7-2.5,4.8-5,5.6
		c-2.9,0.9-6.3,0-8.2-2.6C271.8,72.6,271.9,69.3,273.4,66.9z"/>
	<g>
		<path class="st2" d="M252.3,62.2c2.3-6.7,6.7-10.5,8.7-12.2c3.9-3.3,7.5-4.7,8.6-5.1c2.3-0.9,6.5-2.1,11.6-1.7
			c8.5,0.5,14.2,4.9,16.1,6.5c2.4,1.8,6.7,5.4,9.1,11.7c2.3,6.2,1.4,11.6,0.9,14.5c-0.3,1.9-1.6,7.6-5.9,13.3
			c-1.8,2.3-4,5.1-7.9,7.1c-3.2,1.6-5.9,1.7-11.1,1.9c-6.8,0.2-10.2,0.4-14.3-1.2c-6.5-2.5-10.2-7.2-11.4-8.9
			c-0.9-1.2-4.2-5.8-5.3-12.8C251,73.1,250.3,68.1,252.3,62.2z"/>
		<path class="st3" d="M268.5,50.5c1.6-0.8,4.5-2.2,8.5-2.6c5.3-0.5,9.3,1.1,11,1.8c1.8,0.7,5.9,2.5,9.3,6.7c3.7,4.5,4.5,9.2,4.8,11
			c0.9,5.4-0.3,9.7-1,11.7c-0.7,1.9-2.2,6.4-6.7,10.2c-4.4,3.7-9.1,4.6-11.3,5c-2.3,0.4-8.2,1.3-14.4-1.8
			c-6.8-3.4-9.7-9.3-10.7-11.6c-1-2.1-3.4-7.4-2.1-14.3c0.3-1.4,1.4-6.8,5.9-11.5C264.5,52.5,267.1,51.2,268.5,50.5z"/>
		<g>
			<polygon class="st5" points="260,58.4 273.3,64.8 266.6,52 			"/>
			<polygon class="st5" points="269,51.3 278.1,48.9 278.1,63.1 			"/>
			<polygon class="st5" points="280.6,49.2 281.5,63.1 288.9,51.7 			"/>
			<polygon class="st5" points="291.3,53.5 285,64.8 297.2,59.1 			"/>
			<polygon class="st5" points="287.6,68.4 298.8,61.7 300.3,69.7 			"/>
			<path class="st5" d="M287.6,72.7l12.8-0.3c-0.9,2.7-1.8,5.4-2.8,8.1C294.2,77.9,290.9,75.3,287.6,72.7z"/>
			<polygon class="st5" points="286,76.5 297.2,83.2 291.1,89.1 			"/>
			<polygon class="st5" points="281.4,79.1 281.1,92.4 288.9,90.4 			"/>
			<polygon class="st5" points="277.6,78.8 277.6,92.7 269.7,89.9 			"/>
			<polygon class="st5" points="273.6,77.1 268.1,89.1 261.8,82.8 			"/>
			<polygon class="st5" points="257.9,72.5 260.5,80.7 271.7,73.7 			"/>
			<polygon class="st5" points="259,61.7 257.1,69.7 270.7,69 			"/>
		</g>
		<path class="st4" d="M276.2,69c1.1-1.8,3.2-1.8,3.5-1.9c0.5,0,2.6,0,3.8,1.7c1,1.5,0.8,3.6-0.3,4.9c-1.4,1.6-3.7,1.2-4.1,1.2
			c-0.5-0.1-2.4-0.4-3.3-2.2C275.1,70.9,276.2,69.1,276.2,69z"/>
		<path class="st3" d="M278.1,69.9c0.7-0.9,1.9-1.1,2.8-0.8c0.7,0.3,1.4,0.9,1.5,1.9c0.1,1.1-0.6,1.8-0.7,1.9
			c-0.9,0.8-2.7,1-3.6-0.1C277.5,72,277.5,70.8,278.1,69.9z"/>
	</g>
	<polyline class="st5" points="62.8,25.9 125.8,27.7 147.3,28.1 	"/>
	<polyline class="st5" points="126.1,27.4 133.6,16.6 140.5,8.5 	"/>
	<path class="st5" d="M87.4,50.1"/>
	<polyline class="st3" points="89.5,53.6 129.8,49.8 130.7,46 87.7,49.6 	"/>
	<path class="st3" d="M140.1,28.1c-1.6,2.4-2.9,4.6-3.8,6.2c-1.9,3.3-3.6,6.5-5,10.9c-0.5,1.6-0.9,3-1.1,3.9l0.8,0.5l69-5.3
		l47.2-2.4l1.9-3.5l-53.7,2.9l-64,4.7"/>
	<line class="st5" x1="247.6" y1="41.9" x2="262.9" y2="41.4"/>
	<path class="st5" d="M249.4,38.3c-0.5-0.9-1.2-1.9-2-3c-1.4-1.7-3-2.9-4.2-3.7"/>
	<path class="st5" d="M249.9,38.3c3.1,0,7.7,0.1,13.5,0.1c10.8,0,12.2,0,15.1,0.3c6.7,0.7,11.9,1.2,17.6,4.5
		c10.3,5.9,13.8,15.9,14.1,17.2c0,0.1,0.1,0.2,0.6,2.6l0,0c1.4,1.7,3.6,4.4,3.6,4.4l0,0l0,0c1.1,0,3.1,0,5.8,0c5.1,0,6.6,0,9-0.4
		c2.4-0.4,4.2-0.8,5.9-2.3c1.4-1.3,2.1-2.8,2.5-3.7"/>
	<path class="st5" d="M308.5,81.2c2.3-0.1,5.5-0.2,9.3-0.3c11.2-0.4,2.1-0.1,9-0.4c4.9-0.2,7.8-0.2,11.2-1.9c0.8-0.4,1.4-0.8,1.8-1"
		/>
	<path class="st2" d="M333.3,70.2c-0.2,0.2-0.8,0.7-1,2.5c-0.2,1.4-0.4,2.7,0.3,3.3c0.4,0.3,0.9,0.4,1.4,0.2c0.1-0.1,0.6-0.3,1-1.7
		c0.3-1,0.7-2.2,0.3-3.5c-0.1-0.4-0.3-1.1-0.8-1.2C333.9,69.7,333.5,70.1,333.3,70.2z"/>
	<polyline class="st2" points="328.5,72.5 330.1,78.4 325.6,79 326.6,73.6 336.7,65.8 	"/>
	<path class="st5" d="M307.4,83.6l5.4-0.3c0.6-1.4,1.1-3.1,1.5-5c0.9-4.3,0.7-8,0.3-10.6"/>
	<polyline class="st5" points="336.2,83.3 320,83.1 311.4,85.9 312.8,83.4 319,83.1 	"/>
	<polygon class="st3" points="311.8,86.1 335.4,83.6 320,83.3 	"/>
	<path class="st3" d="M300,38.8c4.3,0.7,7.5,1.9,9.7,2.8c2.7,1.2,5.6,2.8,8,4.1c1,0.6,1.7,1,2.9,1.7c2,1.2,4.8,2.8,8.1,4.9l3,0.3
		c-1.3,0.7-2.4,1-3.2,1.2c-2.9,0.7-6,0.5-6.1,0.5c-1.5-1.5-3.6-3.4-6.1-5.4c-2.2-1.8-5.1-4-9-6.3c-1.2-0.7-5.8-3.2-12.5-5.2
		c0,0-3.5-1-14.8-2.4c0,0-0.4,0-0.4,0c0,0.1,4.3,0.7,9.1,2.3c3.5,1.1,6.1,2.4,7.7,3.2c2.7,1.3,4.1,2,5.9,3.3
		c2.8,2.2,4.7,4.7,5.4,5.9c0.1,0.1,1,1.8,1,1.8l0,0c0,0,2.7,0.7,2.9,0.7c1.5,0.4,4,0.6,8.6,0.2"/>
	<path class="st5" d="M317.6,45.7c0.2,0.8,0.3,1.7,0.3,2.7c0,0.5,0,0.9-0.1,1.4"/>
	<path class="st5" d="M319.7,47c0.4,0.6,1,1.6,1.2,3.2c0.1,0.9,0,1.7-0.1,2.2"/>
	<path class="st5" d="M315.3,44.7c0.2,0.5,0.3,1.1,0.4,1.7c0.1,0.7,0.1,1.4,0.1,1.9"/>
	<path class="st5" d="M237.6,80.7c-0.2-1.3-0.5-3.1-0.6-5.2c-0.4-5.9,0.3-10.4,0.4-11.5c0.9-5.6,2.5-9.6,3-10.8
		c1.9-4.6,4.3-8.3,6.5-11"/>
	<path class="st5" d="M138.2,77.5l0.3,1.7l108,2c-0.7-2.5-1.4-6.1-1.3-10.6c0.1-6.4,1.9-11.1,2.4-12.2c2.3-5.8,5.6-9.4,6.9-10.8
		c3.2-3.2,6.4-5.2,8.6-6.3"/>
	<path class="st5" d="M139.1,74.6l19.5,1.1l70,2.4c-0.2-2.8-0.4-5.8-0.3-9.1c0-2.4,0.2-4.6,0.4-6.8L147.3,61l81.9-1
		c0.8-3.6,2.1-8,4.5-12.6c0.9-1.7,1.8-3.3,2.8-4.7"/>
	<polygon class="st3" points="153.9,61.3 228.4,66 228.7,62.4 	"/>
	<path class="st5" d="M229.4,60.4"/>
	<path class="st5" d="M235.8,61.2"/>
	<polyline class="st5" points="229.5,60.2 235.8,61.2 229.1,62.4 	"/>
	<line class="st5" x1="238.4" y1="61" x2="246.4" y2="60.8"/>
	<line class="st5" x1="248.4" y1="57.3" x2="252.7" y2="57.3"/>
	<path class="st5" d="M135.9,14.4c5.3-1,12.7-2.2,21.6-3.3c11.4-1.4,17.2-2.1,24.4-1.6c13.1,0.8,19.6,3.2,22.3,4.4
		c3.5,1.6,6.3,3.4,8.1,4.7"/>
	<polygon class="st3" points="136.4,8.3 141,3.4 144.1,3.4 141.7,7.9 	"/>
	<polyline class="st3" points="92.2,78.3 92.2,63.7 121.5,61.3 119.7,78.8 	"/>
	<line class="st5" x1="122.2" y1="59.6" x2="128.4" y2="55.5"/>
	<path class="st5" d="M123.7,50.7c-0.6,2-1.2,4.1-1.7,6.3c-1.8,7.8-2.4,15-2.4,21.2"/>
	<line class="st5" x1="91.3" y1="78.3" x2="138.5" y2="79.2"/>
	<path class="st3" d="M195.5,83.7l57.2,3.4L195.5,83.7z"/>
	<polyline class="st5" points="228.8,86 179.9,85.4 108.9,84.9 93.8,84.4 92.7,80.9 	"/>
	<polyline class="st5" points="82,78.7 86.3,78.6 89.4,78.5 	"/>
	<path class="st3" d="M51.4,28.3c2.4-0.3,5-0.6,7.7-0.8c3.8-0.2,4.9-0.5,6.7-0.2c1.5,0.3,2.7,0.9,5,2c2.4,1.2,4,1.9,5.9,3.3
		c2.1,1.5,4.4,3.1,6.2,6.1c0.8,1.3,1.9,3.7,2.2,7.2l0.2,0.7c-1.6-2.7-4.4-6.5-8.9-9.8c-0.8-0.6-3.8-2.8-8.3-4.7
		c-4.4-1.8-7.9-2.4-13.3-3.2c-3.2-0.5-7.6-0.9-12.8-1.1"/>
	<path class="st9" d="M301.8,39.8c-0.1,0.4,4.5,2,8.5,4.5c2.8,1.8,4.6,2.9,5.1,3.5c0,0,0.1,0.2,0.2,0.1c0.2-0.1-0.3-2.3-0.5-3.2
		c0,0-0.1-0.3-0.1-0.3h0c0,0-3.7-2.1-7.5-3.4C304.7,40.1,301.9,39.5,301.8,39.8z"/>
	<path class="st7" d="M315.7,45.1c0.1,0.5,0.2,0.9,0.2,1.2c0.1,1,0.1,2,0.1,2c0.8,0.5,1.1,0.9,1.3,1.1c0,0,0,0.1,0.1,0l0,0
		c0,0-0.1-3.7-0.1-3.7c-0.5-0.2-0.9-0.5-1.4-0.7L315.7,45.1z"/>
	<path class="st8" d="M318,46.4c0,2.6,0,3.2,0,3.3c0,0,0,0.2,0,0.2l0,0c1.7,1.4,2.3,2,2.4,2.2c0,0,0,0,0,0c0.1,0,0.4-1.2,0.2-2.4
		c0,0-0.1-0.5-1-2.6l0,0c-0.4-0.2-0.9-0.5-1.3-0.7L318,46.4z"/>
	<path class="st10" d="M16.2,33.5"/>
	<path class="st10" d="M14.8,35.8"/>
	<path class="st5" d="M144.4,49.6"/>
	<path class="st3" d="M142.7,60.2l2-11.7l57.6-4.4l33.7-1.7l-2.9,4.8c-4.1,0.3-9.8,0.8-16.6,1.5c-8.7,0.9-19.8,2-34.2,4
		c-20.3,2.8-30,5.1-33.6,5.9C146.4,59.3,144.4,59.8,142.7,60.2c-1.1,0.3-2,0.5-2.9,0.8"/>
	<polygon class="st11" points="12.3,39 11,41.8 8.4,41 	"/>
	<path class="st3" d="M195.5,8.3c6.6,1.9,11.9,3.9,15.8,5.7c6.9,3.1,10.9,5.7,12.4,6.6c1.2,0.8,2.4,1.7,2.4,1.7l0.7,0.4l1-1.1
		l2.4-0.1l1.7,0.1l0.2-0.6l0.3,0.2c-4.8-2.5-8.9-4.4-11.9-5.7c-6.1-2.7-9.3-4.1-13.9-5.3c-4.4-1.2-8.1-1.6-10.6-1.8l0.3,0.1"/>
	<path class="st12" d="M232.2,25.4"/>
	<line class="st5" x1="232.2" y1="25.4" x2="237.8" y2="24.5"/>
	<polyline class="st3" points="195.6,83.5 251.1,84 252.7,87.1 	"/>
</g>
</svg>
