<?xml version="1.0" encoding="utf-8"?>
<!-- Generator: Adobe Illustrator 19.2.1, SVG Export Plug-In . SVG Version: 6.00 Build 0)  -->
<svg version="1.1" id="Слой_1" xmlns="http://www.w3.org/2000/svg" xmlns:xlink="http://www.w3.org/1999/xlink" x="0px" y="0px"
	 viewBox="0 0 31.8 54" style="enable-background:new 0 0 31.8 54;" xml:space="preserve">
<style type="text/css">
	.st0{fill:#E3F3F5;stroke:#231F20;stroke-width:0.75;stroke-miterlimit:10;}
	.st1{fill:none;stroke:#231F20;stroke-width:0.5;stroke-miterlimit:10;}
	.st2{fill:#EE2A25;stroke:#231F20;stroke-width:0.5;stroke-miterlimit:10;}
	.st3{fill:#EE2926;stroke:#231F20;stroke-width:0.5;stroke-miterlimit:10;}
</style>
<g>
	<path class="st0" d="M1,51.5c0.3-0.9,1.1-2.5,1.4-3.1c0.8-1.7,1.3-2.5,1.5-3C4,45,4.2,44.6,4.6,44.4c0.3-0.1,0.6-0.1,1.1-0.4
		c0.1-0.1,0.2-0.2,0.4-0.3c0.2-0.2,0.7-0.6,1.1-1.3c0.3-0.6,0.3-1.1,0.3-1.4c0.1-1.7,0.4-3.3,0.6-4.9c0.2-1.3,0.2-1.2,0.7-3.9
		c0.2-1.5,0.4-2.6,0.8-5.5c0.7-5.2,0.8-5.9,1.3-9.7c0.1-0.5,0.4-3.3,1-6.8c0.7-5.1,0.7-4.6,0.7-4.8c0-0.8,0.3-1.6,0.4-2.3
		c0.1-0.5,0.1-0.9,0.5-1.3c0.4-0.3,0.8-0.4,1.1-0.4c0.5-0.1,0.9-0.1,1.4,0c1,0.1,1.5,0.1,1.8,0.4C18,2.1,17.9,2.4,18,3.2
		c0.1,0.7,0.2,1.4,0.3,2.1c0.1,1.7,1.2,8.5,2.1,14.7c0,0,1.2,8.2,2.2,16.2c0.2,1.9,0.3,2.8,0.3,2.8c0,0,0.1,1.3,0.3,2.9
		c0,0,0.1,0.4,0.4,1c0.2,0.3,0.3,0.5,0.5,0.6c0.1,0.1,0.2,0,0.4,0.1c0.3,0,0.7,0,1,0.2c0.3,0.2,0.5,0.5,0.6,0.6
		c0.2,0.4,1.1,1.8,2.9,4.6c0.6,1,1.5,2.3,1.5,2.3c0,0,0.3,0.8,0,1.4c0,0.1-0.2,0.4-0.4,0.6c-0.3,0.2-0.6,0.2-0.7,0.2
		c-1.8,0.1-2.8,0.1-3.2,0.1c-0.8,0-0.8,0.1-2.2,0.1c-1.7,0.1-2.8,0.1-4.6,0.1c-2.3,0-4.5,0-6.8,0.1c-4.7,0-5.1,0-5.9,0
		c-1.8,0-4.6-0.2-4.6-0.2c0,0-0.3-0.1-0.6-0.2c-0.2-0.1-0.3-0.2-0.4-0.3c-0.1-0.1-0.1-0.2-0.1-0.8C0.9,51.8,1,51.5,1,51.5z"/>
	<g>
		<path class="st1" d="M7.4,43.1c-0.1,0.3-0.1,0.6,0.1,1c0.3,0.7,1.1,1,1.9,1.3c2.1,0.6,4,0.8,4.2,0.8c1.9,0.1,3.2,0,5-0.1
			c0,0,1.6-0.1,3.8-0.8c0.3-0.1,0.8-0.3,1.1-0.8c0.2-0.4,0.2-0.8,0.2-1.1"/>
		<path class="st1" d="M7.7,42.4c0.3,0.3,0.7,0.7,1.4,1.1c0.4,0.3,1.3,0.7,4.2,0.9c1.8,0.2,3.1,0.1,4.3,0.1c2.3-0.1,3-0.3,3.6-0.5
			c0.9-0.4,1.5-0.8,2-1.2"/>
		<path class="st1" d="M2.9,48.4c0.3,0.4,0.7,1,1.4,1.6c0.8,0.6,1.6,1,3.4,1.5c1.5,0.4,2.8,0.8,4.7,1c2.3,0.2,4,0.1,5.6,0
			c1.3-0.1,2.7-0.4,5.4-0.9c1.4-0.3,2.3-0.5,3.2-1.2c0.8-0.7,1.3-1.5,1.5-2"/>
		<path class="st1" d="M24.3,43.6c0.4,0.4,0.8,0.8,1.2,1.2c0.5,0.5,1.1,1,1.6,1.4"/>
		<path class="st1" d="M3.5,46.8c0.5-0.5,1-1.1,1.6-1.7c0.6-0.6,1.2-1.2,1.8-1.7"/>
	</g>
	<path class="st2" d="M8.6,33.5c-0.1,0.3,0,0.4,0,0.4c0.1,0.5,1.4,0.7,2.5,0.8c2.1,0.2,3.6,0.2,3.6,0.2c2.4,0,3.6,0.1,4.1,0
		c1.6-0.2,3.4-0.7,3.4-0.7l0,0c0,0-0.1-0.5-0.1-0.6c-0.1-0.6-0.2-1.5-0.3-1.9c-0.1-0.8-0.1-0.7-0.2-1.9c-0.2-1.6-0.4-3.1-0.4-3.1v0
		c-2.2,0-3.2,0-3.2,0c-2.5,0-4.1,0-4.6,0c-1.7,0-1.6-0.1-2-0.1c0,0-0.8,0-1.2,0c-0.1,0-0.1,0-0.2,0c-0.2,0-0.2,0-0.2,0
		c-0.1,0-0.1,0.1-0.1,0.3c0,0.1,0,0.2,0,0.4c0,0.1-0.1,0.6-0.2,1.7C9.2,29.5,9.2,30,9,30.7c-0.1,0.9-0.2,1.3-0.3,1.6
		C8.7,32.7,8.6,33,8.6,33.5z"/>
	<path class="st3" d="M11.5,17.7c0.1,0,0.2,0,0.5,0c1.8-0.1,2.5-0.2,2.5-0.2c1,0,0.6,0,2.6,0c0,0,1.3,0,2,0.1
		c0.4,0.1,0.8,0.1,0.9,0.2c0,0,0,0,0,0c0.1,0-1.2-7.9-1.2-7.9v0c0,0-0.6-0.2-0.9-0.3c-0.4-0.1-0.8-0.1-1.7-0.1c-0.6,0-1.1,0-1.8,0.1
		c-0.1,0-0.4,0.1-1.2,0.2c-0.6,0.1-1.2,0.2-1.3,0.5c0,0,0,0.1-0.1,0.3c0,0.2-0.1,0.3-0.1,0.4c-0.1,0.4-0.1,0.6-0.1,0.9
		c-0.1,0.8-0.2,1.4-0.4,2.8c-0.2,1.4-0.2,2.1-0.3,2.4c0,0.2-0.1,0.3-0.1,0.4c0,0.2,0,0.2,0,0.2C10.9,17.9,11.1,17.8,11.5,17.7z"/>
</g>
</svg>
