<?xml version="1.0" encoding="utf-8"?>
<!-- Generator: Adobe Illustrator 19.2.1, SVG Export Plug-In . SVG Version: 6.00 Build 0)  -->
<svg version="1.1" id="Слой_1" xmlns="http://www.w3.org/2000/svg" xmlns:xlink="http://www.w3.org/1999/xlink" x="0px" y="0px"
	 viewBox="0 0 67.3 37.8" style="enable-background:new 0 0 67.3 37.8;" xml:space="preserve">
<style type="text/css">
	.st0{fill:#EE3624;stroke:#000000;stroke-width:0.25;stroke-miterlimit:10;}
	.st1{fill:#231F20;stroke:#000000;stroke-width:0.25;stroke-miterlimit:10;}
</style>
<g>
	<path class="st0" d="M64.3,0C44.6,0.2,24.8,0.4,5.1,0.7C4.2,1.9,3,3.9,2,6.5c-1.7,4.4-1.8,8.1-2,11.5C0,19.6,0,22.8,0.6,26.8
		c0.8,4.9,1.9,7,2.4,7.8c0.9,1.5,1.9,2.5,2.6,3.2c19.6,0,39.1,0,58.7,0L64.3,0z"/>
	<path class="st1" d="M47.7,37.8c-1.3-3.6-1.9-6.7-2.3-9c-0.6-4.4-0.5-8.1-0.3-10.9c0-0.7,0.1-2.3,0.4-4.4c0.4-3.6,1.2-8.1,2.7-13.3
		c-1.4,0-2.8,0-4.3,0c-0.3,0.9-0.6,2.1-1,3.6c-0.2,1.1-0.4,2-0.5,2.6c-0.3,1.5-0.8,4.7-1.1,7.1c-0.9,8.3,0.2,15.5,0.2,15.5
		c0.4,2.1,1,5.2,2.3,8.7C45.2,37.8,46.4,37.8,47.7,37.8z"/>
	<path class="st1" d="M27.7,37.8c-0.8-2.3-1.6-5.5-2.2-9.3c-0.5-3.9-0.5-6.9-0.4-9.7c0.1-2.6,0.2-6.3,1.1-11c0.6-3,1.3-5.5,1.9-7.4
		c-1.4,0-2.8,0.1-4.2,0.1c-0.5,1.5-1,3.6-1.5,6c-0.3,1.2-0.8,4-1.2,7c-0.9,7.8,0.1,14,0.3,15.5c0.4,2.3,1.1,5.3,2.3,8.8
		C25.2,37.8,26.4,37.8,27.7,37.8z"/>
	<ellipse class="st1" cx="64.3" cy="18.9" rx="3" ry="18.9"/>
	<path class="st1" d="M6.3,37.8c-1-2.2-2.2-5.1-3.1-8.7c-1.2-4.8-1.2-8.6-1.2-9.9C2,13.2,3.2,8.9,3.5,7.9c0.9-3.1,2.1-5.6,3-7.3
		C6.2,0.5,5.7,0.4,5.1,0.7C4.7,0.9,4.6,1.2,4.2,1.9c-0.6,1.2-0.9,1.8-1,2C2.4,5.7,2.3,5.9,2,6.7c-1.1,2.6-1.5,6-1.6,6.9
		c-0.6,4.5-0.3,7.9-0.1,9.9c0.2,2.2,0.5,3.7,0.8,5c0.4,2,0.8,3.5,1.4,5.1c0,0,0.5,1.3,2.1,3.3c0.2,0.2,0.5,0.6,1,0.7
		C5.9,37.8,6.2,37.8,6.3,37.8z"/>
</g>
</svg>
