<?xml version="1.0" encoding="utf-8"?>
<!-- Generator: Adobe Illustrator 19.2.1, SVG Export Plug-In . SVG Version: 6.00 Build 0)  -->
<svg version="1.1" id="Слой_1" xmlns="http://www.w3.org/2000/svg" xmlns:xlink="http://www.w3.org/1999/xlink" x="0px" y="0px"
	 viewBox="0 0 52.8 52.6" style="enable-background:new 0 0 52.8 52.6;" xml:space="preserve">
<style type="text/css">
	.st0{fill:#FFFFFF;stroke:#231F20;stroke-miterlimit:10;}
	.st1{fill:#232114;stroke:#231F20;stroke-miterlimit:10;}
	.st2{fill:#231F20;stroke:#231F20;stroke-miterlimit:10;}
	.st3{fill:#F16024;}
	.st4{font-family:'MyriadPro-Regular';}
	.st5{font-size:1.0785px;}
</style>
<g>
	<polygon class="st0" points="3.8,4.5 1,38.9 49,42.4 51,0.5 	"/>
	<polygon class="st1" points="5.2,6 2.8,37.1 47.1,40.2 49,3 	"/>
	<path class="st2" d="M1,38.9c-0.2,0.2-0.4,0.6-0.5,1.1c-0.1,0.9,0.2,1.6,0.3,1.8c32.3,2.8,47.4,4.1,47.5,4.1c0,0,0,0,0,0
		c0,0-0.4-0.3-0.7-0.7c-0.1-0.2-0.5-0.8-0.4-1.5c0.1-0.5,0.5-0.9,0.6-0.9c0.4-0.4,0.9-0.4,1.1-0.4L1,38.9z"/>
	
		<ellipse transform="matrix(6.721084e-002 -0.9977 0.9977 6.721084e-002 1.3255 89.6942)" class="st2" cx="48.6" cy="44.1" rx="1.7" ry="1.3"/>
	<ellipse class="st0" cx="25.9" cy="50.3" rx="13.4" ry="2.3"/>
	<polygon class="st2" points="51,0.5 52.2,0.5 49.9,44 48.9,42.4 	"/>
	<text transform="matrix(0.9979 6.486433e-002 -6.486433e-002 0.9979 22.4528 39.8729)" class="st3 st4 st5">Jew’s Fire</text>
	<polygon class="st2" points="20.3,49.4 20.6,43.5 29.5,44.3 29.8,50.3 	"/>
	<polygon class="st2" points="31.7,50.3 30.8,44.4 29.5,44.3 29.8,50.3 	"/>
</g>
</svg>
