<?xml version="1.0" encoding="UTF-8" standalone="no"?>
<!-- Created with Inkscape (http://www.inkscape.org/) -->

<svg
   xmlns:dc="http://purl.org/dc/elements/1.1/"
   xmlns:cc="http://creativecommons.org/ns#"
   xmlns:rdf="http://www.w3.org/1999/02/22-rdf-syntax-ns#"
   xmlns:svg="http://www.w3.org/2000/svg"
   xmlns="http://www.w3.org/2000/svg"
   xmlns:sodipodi="http://sodipodi.sourceforge.net/DTD/sodipodi-0.dtd"
   xmlns:inkscape="http://www.inkscape.org/namespaces/inkscape"
   id="svg2"
   version="1.1"
   inkscape:version="0.48.3.1 r9886"
   width="117"
   height="29"
   sodipodi:docname="Новый точечный рисунок.png">
  <metadata
     id="metadata8">
    <rdf:RDF>
      <cc:Work
         rdf:about="">
        <dc:format>image/svg+xml</dc:format>
        <dc:type
           rdf:resource="http://purl.org/dc/dcmitype/StillImage" />
        <dc:title></dc:title>
      </cc:Work>
    </rdf:RDF>
  </metadata>
  <defs
     id="defs6" />
  <sodipodi:namedview
     pagecolor="#ffffff"
     bordercolor="#666666"
     borderopacity="1"
     objecttolerance="10"
     gridtolerance="10"
     guidetolerance="10"
     inkscape:pageopacity="0"
     inkscape:pageshadow="2"
     inkscape:window-width="640"
     inkscape:window-height="480"
     id="namedview4"
     showgrid="false"
     inkscape:zoom="3.2478632"
     inkscape:cx="58.5"
     inkscape:cy="14.5"
     inkscape:window-x="55"
     inkscape:window-y="14"
     inkscape:window-maximized="0"
     inkscape:current-layer="svg2" />
  <g
     transform="matrix(0,1,-1,0,113.52078,-160.48205)"
     id="g3140">
    <path
       class="st0"
       d="m 170.38915,-3.0705748 c -0.94846,0.2835755 -3.56337,0.9177854 -5.73965,3.26593729 -2.35927,2.47666561 -2.76152,5.32766341 -3.16378,8.17866131 -0.38131,2.1805042 -0.67462,4.4085012 0.0951,6.9829052 0.72919,2.438908 2.47391,5.312227 2.47391,5.312227 -0.36037,1.510011 -0.79616,4.002016 -1.56439,7.110042 -1.56438,7.110041 -1.95828,8.261059 -1.94708,10.767027 0.0378,3.088458 0.63146,5.567878 1.31316,8.09479 1.08681,3.881861 2.78266,8.319664 2.78266,8.319664 -0.44975,2.939001 -0.97492,6.859995 -1.03352,11.600941 -0.0251,5.099938 0.39124,8.960855 0.85505,12.73377 0,0 1.12044,11.399764 3.37645,17.957994 l 0.12154,0.406485 0,0 c 0,0 0.0196,0.805988 -0.12989,1.293494 -0.33943,0.839518 -1.43735,1.610597 -2.32436,1.359177 -0.48751,-0.14946 -0.65653,-0.46794 -0.92752,-0.386918 -0.62999,0.114548 -0.72635,1.767038 -0.7878,2.302038 -0.2472,3.61647 1.40952,6.4423 1.40952,6.4423 0.6761,1.27393 2.12327,3.64578 4.87231,4.44754 2.26152,0.6523 4.20594,-0.003 5.06641,-0.33392 0.67747,-0.20255 3.30635,-1.28376 4.9141,-4.05236 0.37993,-0.70402 1.98768,-3.47262 1.12998,-6.09451 -0.49312,-1.40245 -1.77825,-3.232316 -1.77825,-3.232316 l 0,0 c 0,0 -0.13274,-2.912453 0.0251,-5.099939 0.24582,-2.139994 0.72074,-3.020022 1.50854,-5.322059 0.69282,-2.126031 1.10766,-3.947543 1.80883,-7.773553 0.38131,-2.180505 1.30038,-7.252518 1.72634,-13.726973 0,0 0.25555,-5.316455 0.13254,-11.405368 l 0,0 c 0,0 1.61611,-4.468579 2.47235,-7.529112 0.87019,-3.507529 1.04197,-6.14201 1.15367,-9.717975 0.20108,-5.004954 0.29184,-7.910425 -0.75446,-11.656791 -0.72221,-2.662407 -2.42504,-6.876712 -2.42504,-6.876712 l 0,0 c 1.07275,-2.830054 1.26272,-3.182066 1.26272,-3.182066 1.02526,-2.742051 0.18151,-5.810942 -0.75024,-8.9273255 -1.28936,-4.5593356 -1.97804,-6.8627494 -3.75767,-8.61857923 -4.4728,-4.34557307 -11.14559,-2.71953757 -11.41658,-2.63851607 z"
       id="path83"
       inkscape:connector-curvature="0"
       style="fill:#815522;stroke:#231f20;stroke-width:0.25;stroke-miterlimit:10" />
    <path
       class="st0"
       d="m 169.06732,70.759113 c 0.32546,-0.392523 0.69842,-0.873048 1.19989,-1.170586 2.6568,-1.975196 6.67278,-1.626035 8.27778,-1.441671"
       id="path85"
       inkscape:connector-curvature="0"
       style="fill:#815522;stroke:#231f20;stroke-width:0.25;stroke-miterlimit:10" />
    <path
       class="st0"
       d="m 169.00311,74.247074 c 1.05879,-2.383058 3.51864,-3.782746 6.41713,-3.468491 1.8285,0.191345 3.32455,0.998711 3.98108,1.46665"
       id="path87"
       inkscape:connector-curvature="0"
       style="fill:#815522;stroke:#231f20;stroke-width:0.25;stroke-miterlimit:10" />
    <path
       class="st0"
       d="m 170.25472,75.717952 c 0.14248,-0.264009 1.78375,-2.673616 4.78421,-2.758864 1.61198,-0.03913 2.84402,0.625755 3.37203,0.910707"
       id="path89"
       inkscape:connector-curvature="0"
       style="fill:#815522;stroke:#231f20;stroke-width:0.25;stroke-miterlimit:10" />
    <path
       class="st0"
       d="m 170.91548,78.915357 c 0.095,-0.176006 1.36331,-2.105088 3.78127,-2.163788 1.83547,-0.03215 3.00606,1.167735 3.22258,1.398214"
       id="path91"
       inkscape:connector-curvature="0"
       style="fill:#815522;stroke:#231f20;stroke-width:0.25;stroke-miterlimit:10" />
    <path
       class="st0"
       d="m 170.7968,82.714819 c 0.18996,-0.352011 1.08533,-1.800568 3.07026,-2.320227 2.25593,-0.60068 4.04951,0.708154 4.31352,0.85063"
       id="path93"
       inkscape:connector-curvature="0"
       style="fill:#815522;stroke:#231f20;stroke-width:0.25;stroke-miterlimit:10" />
    <path
       class="st0"
       d="m 171.52461,86.630209 c 0.44838,-1.462519 1.77678,-2.450117 3.11776,-2.408229 1.34099,0.04189 2.24757,1.099299 2.37608,1.282286"
       id="path95"
       inkscape:connector-curvature="0"
       style="fill:#815522;stroke:#231f20;stroke-width:0.25;stroke-miterlimit:10" />
  </g>
</svg>
