<?xml version="1.0" encoding="UTF-8" standalone="no"?>
<!-- Created with Inkscape (http://www.inkscape.org/) -->

<svg
   xmlns:dc="http://purl.org/dc/elements/1.1/"
   xmlns:cc="http://creativecommons.org/ns#"
   xmlns:rdf="http://www.w3.org/1999/02/22-rdf-syntax-ns#"
   xmlns:svg="http://www.w3.org/2000/svg"
   xmlns="http://www.w3.org/2000/svg"
   xmlns:sodipodi="http://sodipodi.sourceforge.net/DTD/sodipodi-0.dtd"
   xmlns:inkscape="http://www.inkscape.org/namespaces/inkscape"
   id="svg2"
   version="1.1"
   inkscape:version="0.48.3.1 r9886"
   width="110"
   height="29"
   sodipodi:docname="Новый точечный рисунок.png">
  <metadata
     id="metadata8">
    <rdf:RDF>
      <cc:Work
         rdf:about="">
        <dc:format>image/svg+xml</dc:format>
        <dc:type
           rdf:resource="http://purl.org/dc/dcmitype/StillImage" />
        <dc:title></dc:title>
      </cc:Work>
    </rdf:RDF>
  </metadata>
  <defs
     id="defs6" />
  <sodipodi:namedview
     pagecolor="#ffffff"
     bordercolor="#666666"
     borderopacity="1"
     objecttolerance="10"
     gridtolerance="10"
     guidetolerance="10"
     inkscape:pageopacity="0"
     inkscape:pageshadow="2"
     inkscape:window-width="640"
     inkscape:window-height="480"
     id="namedview4"
     showgrid="false"
     inkscape:zoom="3.4545455"
     inkscape:cx="55"
     inkscape:cy="14.5"
     inkscape:window-x="334"
     inkscape:window-y="93"
     inkscape:window-maximized="0"
     inkscape:current-layer="svg2" />
  <g
     transform="matrix(0,-1,1,0,0.99558815,104.25927)"
     id="g3092">
    <g
       transform="matrix(0.96742051,0.25317496,-0.25317496,0.96742051,16.465867,-20.623927)"
       id="g53">
      <path
         class="st0"
         d="m 74.3,1.1 c -4.2,1.9 -5.7,6 -5.8,6.5 0,0 -0.9,2.5 0.9,12.4 l 0,0 c 0,0 0.2,3.8 0.3,6.7 0.3,6.6 0.1,5.9 0.2,7.1 0.5,3.9 2.1,6.6 4.3,10.6 2.6,4.7 4,5.4 4.8,8.9 0.3,1.3 0.2,1.4 0.7,5.1 0,0 0.6,4.1 1.3,7.6 0.7,3.7 2.2,6.8 5.1,13.1 3.5,7.5 7.3,14.6 7.3,14.6 l 0,0 c -0.6,-1 1.2,2.4 0.7,3.4 -0.4,0.7 -1.1,0.5 -1.8,1.4 -0.6,0.8 -0.7,1.7 -0.7,2.2 -0.2,2.7 1.9,4.6 2,4.7 1.5,1.3 3.2,1.5 4.3,1.6 3.6,0.3 6.3,-1.5 7,-2 1.1,-0.8 2.7,-1.9 3.3,-3.8 0.6,-1.7 0.1,-3.3 -0.9,-6.5 -1.2,-4 -1.8,-4 -2.3,-6.6 -0.3,-1.6 -0.2,-3.2 -0.1,-6.5 0.2,-4.1 0.4,-4.4 0.5,-6.8 0.2,-4.8 -0.5,-8.5 -1,-11.1 -0.7,-3.7 -1.6,-7.1 -1.8,-7.8 -0.8,-2.8 -1.3,-3.8 -1.6,-6 -0.5,-2.7 -0.3,-4.5 -0.3,-6.3 0,-6.2 -1.8,-11.1 -2.6,-13.3 -1.8,-5 -4.8,-10 -4.8,-10 l 0,0 c 0,0 0.5,-4.4 -0.2,-7.6 C 92.3,8.7 89.5,6.1 88.2,4.9 86.6,3.4 83.7,0.7 79.5,0.4 76.7,0 74.8,0.9 74.3,1.1 z"
         id="path55"
         inkscape:connector-curvature="0"
         style="fill:#815522;stroke:#231f20;stroke-width:0.25;stroke-miterlimit:10" />
      <path
         class="st1"
         d="m 72.9,18.7 c 0.8,0.7 3.1,2.8 6.7,3.1 6,0.5 9.8,-4.6 10.1,-4.9"
         id="path57"
         inkscape:connector-curvature="0"
         style="fill:none;stroke:#231f20;stroke-width:0.25;stroke-miterlimit:10" />
    </g>
    <path
       class="st0"
       d="m 83.092561,28.132751 c 4.572194,1.093181 9.24113,2.211678 13.813324,3.304859"
       id="path59"
       inkscape:connector-curvature="0"
       style="fill:#815522;stroke:#231f20;stroke-width:0.25;stroke-miterlimit:10" />
    <path
       class="st0"
       d="m 83.351092,31.094704 c 0.790198,0.930369 2.467336,2.816425 5.365069,3.988236 4.033321,1.572362 7.584782,0.641165 8.607365,0.28857"
       id="path61"
       inkscape:connector-curvature="0"
       style="fill:#815522;stroke:#231f20;stroke-width:0.25;stroke-miterlimit:10" />
    <path
       class="st0"
       d="m 82.405288,35.498731 c 1.299226,0.960215 3.611979,2.392406 6.610983,3.177248 4.159908,1.088653 7.635416,0.447682 9.411147,-0.01792"
       id="path63"
       inkscape:connector-curvature="0"
       style="fill:#815522;stroke:#231f20;stroke-width:0.25;stroke-miterlimit:10" />
    <path
       class="st0"
       d="m 81.014676,38.442572 c 1.37065,1.082274 3.754828,2.636525 7.1408,3.522637 3.676198,0.962065 6.831635,0.754169 8.678789,0.41063"
       id="path65"
       inkscape:connector-curvature="0"
       style="fill:#815522;stroke:#231f20;stroke-width:0.25;stroke-miterlimit:10" />
    <path
       class="st0"
       d="m 80.964869,42.977714 c 1.421285,0.888791 3.397705,2.026228 5.887681,2.781225 3.819047,1.206184 7.26471,1.074241 9.305349,0.781337"
       id="path67"
       inkscape:connector-curvature="0"
       style="fill:#815522;stroke:#231f20;stroke-width:0.25;stroke-miterlimit:10" />
    <path
       class="st0"
       d="m 84.689657,57.183557 c 1.690722,0.649199 3.961896,1.450303 6.797261,1.675482 2.204278,0.266759 4.194282,0.167339 5.700575,-0.05867"
       id="path69"
       inkscape:connector-curvature="0"
       style="fill:#815522;stroke:#231f20;stroke-width:0.25;stroke-miterlimit:10" />
    <path
       class="st0"
       d="m 84.750176,60.50716 c 1.34986,0.76673 3.713249,2.005438 7.057641,2.260463 2.132853,0.144699 3.857949,-0.127416 5.074016,-0.429375"
       id="path71"
       inkscape:connector-curvature="0"
       style="fill:#815522;stroke:#231f20;stroke-width:0.25;stroke-miterlimit:10" />
    <path
       class="st0"
       d="m 84.638,64.095672 c 1.34986,0.76673 3.595717,1.664576 6.502507,2.011815 2.397761,0.317394 4.4384,0.02449 5.847952,-0.226835"
       id="path73"
       inkscape:connector-curvature="0"
       style="fill:#815522;stroke:#231f20;stroke-width:0.25;stroke-miterlimit:10" />
    <path
       class="st0"
       d="m 84.147911,66.758342 c 1.13106,0.812838 3.178904,2.072334 5.912999,2.684482 2.443869,0.536196 4.408555,0.533518 5.79279,0.378935"
       id="path75"
       inkscape:connector-curvature="0"
       style="fill:#815522;stroke:#231f20;stroke-width:0.25;stroke-miterlimit:10" />
    <path
       class="st0"
       d="m 84.321434,70.835092 c 0.962892,0.66546 3.082161,2.047017 6.11101,2.322831 2.132854,0.1447 3.883266,-0.224157 5.002592,-0.551434"
       id="path77"
       inkscape:connector-curvature="0"
       style="fill:#815522;stroke:#231f20;stroke-width:0.25;stroke-miterlimit:10" />
    <path
       class="st0"
       d="m 84.494956,74.911842 c 0.769408,0.614825 1.99721,1.452981 3.809991,2.030755 3.095746,0.81016 5.675258,0.03807 6.697841,-0.314521"
       id="path79"
       inkscape:connector-curvature="0"
       style="fill:#815522;stroke:#231f20;stroke-width:0.25;stroke-miterlimit:10" />
  </g>
</svg>
